<svg width="144" height="121" viewBox="0 0 144 121" fill="none" xmlns="http://www.w3.org/2000/svg">
<g clip-path="url(#clip0_4_689)">
<path d="M99.8363 59.9542C104.724 58.2703 107.079 52.2406 105.096 46.4863C103.114 40.7321 97.5446 37.4323 92.6571 39.1162C87.7697 40.8 85.4147 46.8298 87.3972 52.584C89.3797 58.3383 94.9488 61.638 99.8363 59.9542Z" fill="#327AA7"/>
<path d="M66.6296 75.9298L56.8096 47.4598C56.8096 47.4598 78.1796 36.5798 88.0696 20.7998C88.0696 20.7998 108.12 77.8898 107.07 77.3098C107.07 77.3098 82.5896 70.8598 66.6296 75.9298Z" fill="#013673"/>
<path d="M40.3539 80.438C45.2413 78.7542 47.5963 72.7244 45.6138 66.9702C43.6313 61.2159 38.0622 57.9162 33.1747 59.6001C28.2873 61.2839 25.9323 67.3137 27.9148 73.0679C29.8972 78.8222 35.4664 82.1219 40.3539 80.438Z" fill="#013673"/>
<path d="M58.0109 74.362L46.6465 78.2773L56.4836 106.83L67.8481 102.915L58.0109 74.362Z" fill="#013673"/>
<path opacity="0.16" d="M54.7998 80.8299L59.6698 79.1499L68.1498 103.76C68.265 104.093 68.3133 104.445 68.2922 104.797C68.2711 105.148 68.1809 105.492 68.0267 105.809C67.8725 106.126 67.6574 106.409 67.3937 106.642C67.13 106.876 66.8228 107.055 66.4898 107.17L64.1498 107.98L54.7998 80.8299Z" fill="black"/>
<path opacity="0.16" d="M105.38 71.2698C99.4491 69.8922 93.4371 68.8902 87.38 68.2698C84.1371 67.9498 80.8776 67.8296 77.62 67.9098C75.19 67.9798 73.57 68.1698 70.88 68.4198C68.7254 68.7577 66.5945 69.232 64.5 69.8398L66.61 75.9498C68.6909 75.3544 70.8089 74.8967 72.95 74.5798C75.08 74.3898 77.25 74.1398 79.68 74.0798C82.9377 73.9896 86.1978 74.1099 89.44 74.4398C95.373 75.0109 101.262 75.9696 107.07 77.3098C107.07 77.3098 107.27 77.3098 106.43 74.6398L105.38 71.2698Z" fill="#327CA7"/>
<path d="M66.8802 76.6598L44.7802 84.2298C44.7802 84.2298 35.5902 84.1598 33.7802 78.7598L28.4902 63.5798C28.4902 63.5798 30.0702 56.0198 34.4902 53.8398L56.4402 46.2798L66.8802 76.6598Z" fill="#013673"/>
<path d="M34.4502 53.8198L56.4002 46.2598L66.8802 76.6598L44.7802 84.2298" fill="#327AA7"/>
<path d="M56.4897 106.82L67.8597 102.9L68.1897 103.9C68.4101 104.544 68.3665 105.25 68.0687 105.863C67.7708 106.475 67.2427 106.945 66.5997 107.17L60.0697 109.38C59.7513 109.49 59.4142 109.537 59.0779 109.516C58.7415 109.496 58.4124 109.41 58.1096 109.262C57.8067 109.114 57.536 108.908 57.3129 108.655C57.0898 108.403 56.9188 108.109 56.8097 107.79V107.79L56.4697 106.79L56.4897 106.82Z" fill="#327AA7"/>
<path d="M113.409 52.2597C117.849 50.7297 119.989 45.2597 118.189 40.0297C116.389 34.7997 111.339 31.8097 106.899 33.3397" stroke="#DFDFDF" stroke-width="3"/>
<path d="M129.809 49.4399C135.879 47.3499 138.919 40.1899 136.599 33.4399C134.279 26.6899 127.479 22.9299 121.409 25.0199" stroke="#DFDFDF" stroke-width="3"/>
<path d="M137.869 9.02C139.946 9.02 141.629 7.33659 141.629 5.26C141.629 3.18341 139.946 1.5 137.869 1.5C135.793 1.5 134.109 3.18341 134.109 5.26C134.109 7.33659 135.793 9.02 137.869 9.02Z" stroke="#327CA7" stroke-width="3"/>
<path d="M5.73047 13.1802L5.96047 24.5302" stroke="black" stroke-width="3"/>
<path d="M11.6503 18.29L0.0302734 18.51" stroke="black" stroke-width="3"/>
<path d="M134.73 109.18L134.96 120.53" stroke="black" stroke-width="3"/>
<path d="M140.65 114.29L129.03 114.51" stroke="black" stroke-width="3"/>
</g>
<defs>
<clipPath id="clip0_4_689">
<rect width="143.12" height="120.56" fill="white"/>
</clipPath>
</defs>
</svg>
