<svg width="192" height="150" viewBox="0 0 192 150" fill="none" xmlns="http://www.w3.org/2000/svg">
<path opacity="0.05" d="M68.1796 94.19L49.5596 123.35L66.6396 92.27L68.1796 94.19Z" fill="#E53828"/>
<path d="M84.6396 114.69L66.6396 92.2701L167.64 13.7002C167.81 13.5653 168.026 13.5033 168.242 13.5277C168.457 13.552 168.654 13.6608 168.79 13.8302L185.72 34.9102C185.864 35.0955 185.93 35.3301 185.904 35.5637C185.878 35.7973 185.762 36.0113 185.58 36.1602L84.6396 114.69Z" fill="#09417B"/>
<path d="M49.5596 123.35C49.5596 123.35 27.4396 111.4 28.9396 128.61C31.2296 154.92 7.36957 139.61 3.80957 136.08" stroke="#030303" stroke-width="3" stroke-linejoin="bevel"/>
<path opacity="0.32" d="M66.6396 92.27L49.5596 123.35L84.6396 114.69L66.6396 92.27Z" fill="#9D9D9D"/>
<path d="M185.78 35L168.93 13.93L170.36 12.83C170.902 12.417 171.584 12.231 172.262 12.3112C172.939 12.3915 173.558 12.7316 173.99 13.26L187.63 30.33C188.048 30.8529 188.241 31.5201 188.168 32.1855C188.095 32.8509 187.761 33.4602 187.24 33.88V33.88L185.78 35Z" fill="black"/>
<path d="M84.6396 114.69L78.6396 107.2L174.25 32.6201L180.31 40.3001L84.6396 114.69Z" fill="#327AA7"/>
<path d="M184.799 36.7998L185.669 36.1198C185.837 35.9878 185.945 35.7951 185.971 35.5836C185.998 35.372 185.939 35.1587 185.809 34.9898V34.9898L168.809 13.8298C168.673 13.6583 168.475 13.5473 168.258 13.5211C168.041 13.4949 167.822 13.5555 167.649 13.6898L166.779 14.3598L184.799 36.7998Z" fill="#E2E2E2"/>
<path opacity="0.09" d="M184.8 36.8001L181 32.0501C180.48 31.4101 179.42 31.3701 180.05 30.8401L181.84 29.3801C182.642 28.7889 183.268 27.9903 183.65 27.0701C183.79 26.6184 183.877 26.1519 183.91 25.6801L183.81 25.5601C183.81 25.5601 187.53 30.1801 187.63 30.3301C187.878 30.6148 188.047 30.9596 188.12 31.3301C188.23 31.7798 188.209 32.2518 188.06 32.6901C187.842 33.2041 187.498 33.6547 187.06 34.0001L185.78 35.0001C185.885 35.112 185.953 35.2546 185.973 35.4072C185.992 35.5599 185.963 35.7149 185.89 35.8501C185.787 36.0385 185.63 36.1918 185.44 36.2901" fill="black"/>
<path d="M182.19 38.8198L164.29 16.3198L163.17 17.1898L181.06 39.6998L182.19 38.8198Z" fill="#6272FB" fill-opacity="0.67"/>
<path d="M181.799 39.1302L163.799 16.6802L162.279 17.8602L180.279 40.3002" fill="#DFDFDF"/>
<path d="M184.8 36.7901L166.87 14.3101L164.27 16.3101L182.17 38.8301L184.8 36.7901Z" fill="#327AA7"/>
<path opacity="0.2" d="M49.56 123.35L78.62 107.2L84.62 114.69L49.54 123.35" fill="#C1D2E7"/>
<g filter="url(#filter0_d_4_711)">
<path d="M72.6592 99.7599L66.6592 92.2699L162.259 17.6899L168.319 25.3799L72.6592 99.7599Z" fill="#327AA7"/>
</g>
<path opacity="0.22" d="M174.51 13.9101L173.05 14.0301C171.732 14.1387 170.474 14.6286 169.43 15.4401L68.1796 94.1901L66.6396 92.2701L93.7597 71.1801L108.71 59.5501L134.47 39.5501L144.15 32.0001L155.85 22.8901L163.41 17.0001L167.41 13.8601C167.41 13.8601 167.58 13.7301 167.78 13.6001C167.945 13.5016 168.142 13.4694 168.33 13.5101C168.54 13.5599 168.724 13.6843 168.85 13.8601L168.91 13.9201L169.71 13.3001L170.21 12.9301C170.58 12.6192 171.024 12.4091 171.5 12.3201C171.709 12.295 171.92 12.295 172.13 12.3201C172.337 12.335 172.542 12.3753 172.74 12.4401C173.058 12.5475 173.353 12.7137 173.61 12.9301C173.946 13.2218 174.248 13.5505 174.51 13.9101V13.9101Z" fill="black"/>
<path opacity="0.12" d="M78.6195 107.2L72.6195 99.7598L49.5195 123.35L78.6195 107.2Z" fill="#F5F5F5"/>
<path opacity="0.17" d="M72.6596 99.7599L49.5596 123.35L68.1796 94.1899L72.6596 99.7599Z" fill="white"/>
<path d="M49.5596 123.35L64.5596 119.69L60.2796 118.81L62.5196 115.81L57.6396 117.4L60.9496 112.72L55.4496 115.14L56.7696 110.34L49.5596 123.35Z" fill="#141212"/>
<g opacity="0.09" filter="url(#filter1_d_4_711)">
<path d="M181.53 30.1699L81.1201 110.84L84.5801 115.17L184.58 37.5099L185.72 36.6299C185.816 36.5437 185.891 36.4368 185.94 36.3172C185.988 36.1977 186.009 36.0686 186 35.9399C185.981 35.7875 185.922 35.6427 185.83 35.5199L181.53 30.1699Z" fill="black"/>
</g>
<path d="M31.97 46.6399C34.5768 46.6399 36.69 44.5625 36.69 41.9999C36.69 39.4373 34.5768 37.3599 31.97 37.3599C29.3632 37.3599 27.25 39.4373 27.25 41.9999C27.25 44.5625 29.3632 46.6399 31.97 46.6399Z" stroke="#327AA7" stroke-width="3"/>
<path d="M169.97 113.64L170.2 124.98" stroke="black" stroke-width="3"/>
<path d="M175.89 118.75L164.27 118.97" stroke="black" stroke-width="3"/>
<defs>
<filter id="filter0_d_4_711" x="62.6592" y="17.6899" width="109.66" height="90.0698" filterUnits="userSpaceOnUse" color-interpolation-filters="sRGB">
<feFlood flood-opacity="0" result="BackgroundImageFix"/>
<feColorMatrix in="SourceAlpha" type="matrix" values="0 0 0 0 0 0 0 0 0 0 0 0 0 0 0 0 0 0 127 0" result="hardAlpha"/>
<feOffset dy="4"/>
<feGaussianBlur stdDeviation="2"/>
<feComposite in2="hardAlpha" operator="out"/>
<feColorMatrix type="matrix" values="0 0 0 0 0 0 0 0 0 0 0 0 0 0 0 0 0 0 0.25 0"/>
<feBlend mode="normal" in2="BackgroundImageFix" result="effect1_dropShadow_4_711"/>
<feBlend mode="normal" in="SourceGraphic" in2="effect1_dropShadow_4_711" result="shape"/>
</filter>
<filter id="filter1_d_4_711" x="77.1201" y="30.1699" width="112.882" height="93" filterUnits="userSpaceOnUse" color-interpolation-filters="sRGB">
<feFlood flood-opacity="0" result="BackgroundImageFix"/>
<feColorMatrix in="SourceAlpha" type="matrix" values="0 0 0 0 0 0 0 0 0 0 0 0 0 0 0 0 0 0 127 0" result="hardAlpha"/>
<feOffset dy="4"/>
<feGaussianBlur stdDeviation="2"/>
<feComposite in2="hardAlpha" operator="out"/>
<feColorMatrix type="matrix" values="0 0 0 0 0 0 0 0 0 0 0 0 0 0 0 0 0 0 0.25 0"/>
<feBlend mode="normal" in2="BackgroundImageFix" result="effect1_dropShadow_4_711"/>
<feBlend mode="normal" in="SourceGraphic" in2="effect1_dropShadow_4_711" result="shape"/>
</filter>
</defs>
</svg>
