<svg width="189" height="136" viewBox="0 0 189 136" fill="none" xmlns="http://www.w3.org/2000/svg">
<path d="M113 0.769714H47.8004C46.6054 0.755191 45.4194 0.976684 44.3102 1.42149C43.2011 1.8663 42.1907 2.52567 41.3369 3.3618C40.4831 4.19793 39.8028 5.19437 39.3349 6.29398C38.867 7.39359 38.6208 8.57475 38.6104 9.76971V109.67C38.6208 110.865 38.867 112.046 39.3349 113.145C39.8028 114.245 40.4831 115.241 41.3369 116.078C42.1907 116.914 43.2011 117.573 44.3102 118.018C45.4194 118.463 46.6054 118.684 47.8004 118.67H121.37C122.564 118.683 123.749 118.46 124.857 118.015C125.965 117.57 126.975 116.91 127.827 116.074C128.68 115.238 129.359 114.242 129.827 113.143C130.294 112.044 130.54 110.864 130.55 109.67V17.7897L118.94 14.3797L113 0.769714Z" fill="#013673"/>
<path opacity="0.78" d="M130.55 17.7895L113 0.769531L116.4 16.9995L130.55 17.7895Z" fill="#F5ADA5"/>
<path opacity="0.45" d="M100.75 112.729L102.69 118.609H90.0003L89.2803 116.059C93.2567 115.568 97.129 114.444 100.75 112.729V112.729Z" fill="black"/>
<path opacity="0.28" d="M77.3001 51.8699C84.8119 49.9904 92.7615 51.1387 99.4344 55.0672C106.107 58.9957 110.969 65.3896 112.97 72.8699C113.928 76.5637 114.14 80.4114 113.594 84.1881C113.048 87.9648 111.754 91.5947 109.788 94.8656C107.823 98.1365 105.225 100.983 102.147 103.238C99.0684 105.493 95.5713 107.112 91.8601 108C84.3482 109.879 76.3986 108.731 69.7258 104.803C63.0529 100.874 58.1915 94.4801 56.1901 86.9999C55.232 83.3061 55.0199 79.4584 55.5662 75.6817C56.1125 71.905 57.4063 68.2751 59.3718 65.0042C61.3373 61.7333 63.9351 58.8871 67.0135 56.6319C70.0918 54.3767 73.5888 52.7578 77.3001 51.8699V51.8699Z" stroke="black" stroke-width="15"/>
<path d="M79.7202 102.479L67.9902 106.479L75.1002 131.749C75.6005 133.218 76.6394 134.443 78.0072 135.176C79.375 135.909 80.9699 136.096 82.4702 135.699V135.699H82.5702C83.3042 135.565 84.0027 135.281 84.6222 134.865C85.2418 134.449 85.7691 133.91 86.1715 133.282C86.5739 132.654 86.8426 131.949 86.9611 131.212C87.0796 130.476 87.0453 129.722 86.8602 128.999L79.7202 102.479Z" fill="#327AA7"/>
<path opacity="0.2" d="M130.55 17.7895L113 0.769531L112.58 21.9995L130.55 17.7895Z" fill="black"/>
<path d="M130.55 17.7895L113 0.769531L116.62 17.0495L130.55 17.7895Z" fill="#DFDFDF"/>
<path d="M72.95 63.4995H54.41C53.1011 63.4995 52.04 64.5606 52.04 65.8695V65.9695C52.04 67.2784 53.1011 68.3395 54.41 68.3395H72.95C74.2589 68.3395 75.32 67.2784 75.32 65.9695V65.8695C75.32 64.5606 74.2589 63.4995 72.95 63.4995Z" fill="black"/>
<path d="M72.95 76.5195H54.41C53.1011 76.5195 52.04 77.5806 52.04 78.8895V78.9895C52.04 80.2984 53.1011 81.3595 54.41 81.3595H72.95C74.2589 81.3595 75.32 80.2984 75.32 78.9895V78.8895C75.32 77.5806 74.2589 76.5195 72.95 76.5195Z" fill="black"/>
<path opacity="0.11" d="M56.5905 45.8099C63.9074 43.9828 71.6494 45.105 78.1464 48.9344C84.6435 52.7638 89.375 58.9935 91.3205 66.2799C92.2372 69.8716 92.4315 73.6095 91.8923 77.2769C91.3532 80.9443 90.0911 84.4682 88.1795 87.644C86.2678 90.8199 83.7446 93.5846 80.7561 95.7777C77.7677 97.9708 74.3735 99.5487 70.7705 100.42C63.4545 102.263 55.7071 101.155 49.2014 97.3343C42.6957 93.5136 37.9541 87.2872 36.0005 79.9999C35.0769 76.4021 34.8784 72.6565 35.4165 68.9812C35.9546 65.306 37.2186 61.7745 39.1348 58.5926C41.0511 55.4106 43.5813 52.6417 46.5782 50.4471C49.575 48.2526 52.9785 46.6762 56.5905 45.8099Z" fill="black"/>
<path d="M56.59 44.8198C63.9071 42.99 71.6503 44.111 78.148 47.9408C84.6458 51.7706 89.3769 58.002 91.32 65.2898C92.2367 68.8815 92.4311 72.6194 91.8919 76.2868C91.3527 79.9542 90.0907 83.4781 88.179 86.6539C86.2673 89.8298 83.7441 92.5945 80.7557 94.7876C77.7672 96.9807 74.373 98.5586 70.77 99.4298C63.4527 101.273 55.7041 100.163 49.1981 96.3404C42.6922 92.5177 37.9514 86.2889 36 78.9998C35.0779 75.4027 34.8806 71.6581 35.4194 67.984C35.9582 64.3099 37.2225 60.7796 39.1387 57.5988C41.0548 54.4179 43.5845 51.65 46.5806 49.4561C49.5766 47.2622 52.9791 45.6862 56.59 44.8198V44.8198Z" stroke="#327AA7" stroke-width="14"/>
<path opacity="0.16" d="M68.1504 107C68.1504 107 77.1504 105.61 79.9804 103.43L80.5404 105.52C80.5404 105.52 76.9004 108.87 68.7004 109L68.1504 107Z" fill="black"/>
<path d="M175.85 119.31C178.385 119.31 180.44 117.299 180.44 114.82C180.44 112.34 178.385 110.33 175.85 110.33C173.315 110.33 171.26 112.34 171.26 114.82C171.26 117.299 173.315 119.31 175.85 119.31Z" stroke="#327CA7" stroke-width="3"/>
<path d="M5.7207 0.0297852L5.9607 11.3798" stroke="black" stroke-width="3"/>
<path d="M11.6503 5.13965L0.0302734 5.35965" stroke="black" stroke-width="3"/>
<path d="M179.824 48.6258L179.746 48.548C178.77 47.5717 177.187 47.5717 176.211 48.548L155.217 69.542C154.24 70.5183 154.24 72.1013 155.217 73.0776L155.295 73.1554C156.271 74.1317 157.854 74.1317 158.83 73.1554L179.824 52.1614C180.8 51.185 180.8 49.6021 179.824 48.6258Z" fill="black"/>
<path d="M129.056 49.3107L128.979 49.3885C128.002 50.3648 128.002 51.9477 128.979 52.924L149.973 73.918C150.949 74.8943 152.532 74.8943 153.508 73.918L153.586 73.8402C154.562 72.8639 154.562 71.281 153.586 70.3047L132.592 49.3107C131.616 48.3344 130.033 48.3344 129.056 49.3107Z" fill="black"/>
<path d="M129.927 47.4598L129.849 47.382C128.873 46.4057 127.29 46.4057 126.313 47.382L118.224 55.4713C117.248 56.4476 117.248 58.0306 118.224 59.0069L118.302 59.0846C119.278 60.061 120.861 60.061 121.837 59.0846L129.927 50.9953C130.903 50.019 130.903 48.4361 129.927 47.4598Z" fill="black"/>
<path d="M129.091 40.6396C130.515 40.6396 131.907 41.0619 133.091 41.8531C134.275 42.6442 135.198 43.7687 135.743 45.0843C136.288 46.4 136.43 47.8476 136.152 49.2443C135.874 50.641 135.189 51.9239 134.182 52.9308C133.175 53.9378 131.892 54.6235 130.495 54.9013C129.099 55.1791 127.651 55.0365 126.335 54.4916C125.02 53.9466 123.895 53.0238 123.104 51.8398C122.313 50.6557 121.891 49.2637 121.891 47.8396C121.893 45.9309 122.653 44.1011 124.002 42.7514C125.352 41.4017 127.182 40.6423 129.091 40.6396Z" fill="#327AA7"/>
<path opacity="0.25" d="M155.811 73.5398L180.171 49.0898L178.131 53.8598L159.701 72.2898L155.811 73.5398Z" fill="#514F4F"/>
<path d="M180.67 55.0396C184.73 55.0396 188.02 51.8161 188.02 47.8396C188.02 43.8632 184.73 40.6396 180.67 40.6396C176.611 40.6396 173.32 43.8632 173.32 47.8396C173.32 51.8161 176.611 55.0396 180.67 55.0396Z" fill="#327AA7"/>
<path d="M153.49 80.3199C157.467 80.3199 160.69 77.0964 160.69 73.1199C160.69 69.1435 157.467 65.9199 153.49 65.9199C149.514 65.9199 146.29 69.1435 146.29 73.1199C146.29 77.0964 149.514 80.3199 153.49 80.3199Z" fill="#327AA7"/>
<path opacity="0.05" d="M175.931 53.3497C175.931 53.3497 185.051 52.7897 183.521 41.1997C184.754 41.7 185.826 42.5318 186.617 43.603C187.407 44.6743 187.886 45.9432 188.001 47.2697C188.111 48.4836 187.902 49.7052 187.395 50.8137C186.888 51.9221 186.101 52.879 185.111 53.5897C184.15 54.3235 183.02 54.8049 181.826 54.99C180.631 55.1752 179.409 55.0582 178.271 54.6497C177.42 54.3573 176.628 53.9172 175.931 53.3497Z" fill="black"/>
<path opacity="0.07" d="M159.76 69.5796C159.76 69.5796 155.76 80.5796 146.29 73.1196C146.29 74.1011 146.49 75.0724 146.879 75.9735C147.268 76.8747 147.838 77.6866 148.553 78.3592C149.268 79.0319 150.113 79.5511 151.036 79.8848C151.959 80.2185 152.94 80.3597 153.92 80.2996C154.992 80.2438 156.037 79.9446 156.976 79.4248C157.915 78.905 158.724 78.1783 159.34 77.2996C159.946 76.4749 160.365 75.5272 160.565 74.5234C160.765 73.5195 160.743 72.4839 160.5 71.4896C160.361 70.8164 160.111 70.171 159.76 69.5796Z" fill="black"/>
<path opacity="0.05" d="M133.23 47.5896C133.23 47.5896 134.62 44.0796 133.12 41.8696C134.591 42.8743 135.655 44.3707 136.12 46.0896C136.489 47.5285 136.399 49.0469 135.86 50.4316C135.322 51.8162 134.364 52.9975 133.12 53.8096C133.12 53.8096 130.23 56.2796 125.84 54.2696C124.393 53.5025 123.233 52.2891 122.53 50.8096C122.53 50.8096 130.79 52.3996 133.23 47.5896Z" fill="black"/>
</svg>
