<?xml version="1.0" encoding="UTF-8"?><svg id="a" xmlns="http://www.w3.org/2000/svg" xmlns:xlink="http://www.w3.org/1999/xlink" viewBox="0 0 1721 1080"><defs><style>.ba{letter-spacing:-.02em;}.bb{opacity:.5;}.bb,.bc,.bd,.be,.bf,.bg,.bh,.bi,.bj,.bk,.bl,.bm,.bn,.bo,.bp,.bq,.br,.bs,.bt,.bu,.bv,.bw{isolation:isolate;stroke:#000;stroke-miterlimit:10;stroke-width:33px;}.bx{letter-spacing:-.03em;}.bc{fill:url(#aa);}.bc,.bd,.be,.bf,.bg,.bh{opacity:.1;}.bd{fill:url(#ak);}.be{fill:url(#ah);}.bf{fill:url(#n);}.bg{fill:url(#q);}.bh{fill:url(#x);}.by{font-size:64px;}.c`{letter-spacing:0em;}.ca{letter-spacing:-.02em;}.bi{fill:url(#u);}.bi,.bj,.bk,.bl,.bm,.bn,.bp,.bq,.br,.bs,.bt,.bu,.bv,.bw{opacity:.8;}.bj{fill:url(#g);}.bk{fill:url(#i);}.bl{fill:url(#k);}.bm{fill:url(#s);}.bn{fill:url(#d);}.cb{letter-spacing:-.02em;}.cc{fill:#fff;font-family:SofiaPro-SemiBold, Sofia Pro;}.cd{letter-spacing:0em;}.ce{letter-spacing:-.06em;}.cf{letter-spacing:0em;}.bo{opacity:.63;}.cg{font-size:46px;}.ch{letter-spacing:0em;}.bp{fill:url(#ac);}.bq{fill:url(#ao);}.br{fill:url(#ae);}.bs{fill:url(#au);}.bt{fill:url(#ar);}.bu{fill:url(#am);}.bv{fill:url(#aw);}.bw{fill:url(#ay);}.ci{letter-spacing:0em;}</style><linearGradient id="d" x1="11.87" y1="-95.9" x2="12.79" y2="-95.9" gradientTransform="translate(-2732.95 34263.58) scale(241.76 350.63)" gradientUnits="userSpaceOnUse"><stop offset="0" stop-color="#000"/><stop offset=".03" stop-color="#0d0402"/><stop offset=".08" stop-color="#2e0e08"/><stop offset=".15" stop-color="#641e12"/><stop offset=".24" stop-color="#af3520"/><stop offset=".26" stop-color="#c03a23"/><stop offset=".34" stop-color="#bc3922"/><stop offset=".44" stop-color="#af3520"/><stop offset=".53" stop-color="#9b2f1c"/><stop offset=".62" stop-color="#7d2617"/><stop offset=".72" stop-color="#581b10"/><stop offset=".81" stop-color="#2a0d08"/><stop offset=".89" stop-color="#000"/><stop offset="1" stop-color="#000"/></linearGradient><linearGradient id="g" x1="11.86" y1="-95.86" x2="12.78" y2="-95.86" gradientTransform="translate(-2728.11 34337.91) scale(241.45 352.56)" gradientUnits="userSpaceOnUse"><stop offset="0" stop-color="#000"/><stop offset=".11" stop-color="#140603"/><stop offset=".33" stop-color="#48150d"/><stop offset=".64" stop-color="#9b2e1c"/><stop offset=".96" stop-color="#000"/></linearGradient><linearGradient id="i" x1="11.87" y1="-95.82" x2="12.79" y2="-95.82" gradientTransform="translate(-2727.27 34140.01) scale(241.45 352.56)" gradientUnits="userSpaceOnUse"><stop offset=".34" stop-color="#3f130b"/><stop offset=".51" stop-color="#752315"/><stop offset=".59" stop-color="#962d1b"/><stop offset=".66" stop-color="#9f301d"/><stop offset=".71" stop-color="#bd3923"/><stop offset="1" stop-color="#000"/></linearGradient><linearGradient id="k" x1="11.87" y1="-95.94" x2="12.79" y2="-95.94" gradientTransform="translate(-2733.31 34461.87) scale(241.76 350.63)" gradientUnits="userSpaceOnUse"><stop offset="0" stop-color="#000"/><stop offset=".21" stop-color="#912b1b"/><stop offset=".45" stop-color="#43140c"/><stop offset=".63" stop-color="#120503"/><stop offset=".72" stop-color="#000"/></linearGradient><linearGradient id="n" x1="13.12" y1="-95.83" x2="14.04" y2="-95.83" gradientTransform="translate(-2732.95 34263.58) scale(241.76 350.63)" gradientUnits="userSpaceOnUse"><stop offset="0" stop-color="#000"/><stop offset=".03" stop-color="#0d0402"/><stop offset=".08" stop-color="#2e0e08"/><stop offset=".15" stop-color="#641e12"/><stop offset=".24" stop-color="#af3520"/><stop offset=".26" stop-color="#c03a23"/><stop offset=".34" stop-color="#bc3922"/><stop offset=".44" stop-color="#af3520"/><stop offset=".53" stop-color="#9b2f1c"/><stop offset=".62" stop-color="#7d2617"/><stop offset=".72" stop-color="#581b10"/><stop offset=".81" stop-color="#2a0d08"/><stop offset=".89" stop-color="#000"/><stop offset="1" stop-color="#000"/></linearGradient><linearGradient id="q" x1="13.11" y1="-95.8" x2="14.03" y2="-95.8" gradientTransform="translate(-2728.11 34337.91) scale(241.45 352.56)" gradientUnits="userSpaceOnUse"><stop offset="0" stop-color="#000"/><stop offset=".11" stop-color="#140603"/><stop offset=".33" stop-color="#48150d"/><stop offset=".64" stop-color="#9b2e1c"/><stop offset=".96" stop-color="#000"/></linearGradient><linearGradient id="s" x1="13.12" y1="-95.76" x2="14.04" y2="-95.76" gradientTransform="translate(-2727.27 34140.01) scale(241.45 352.56)" gradientUnits="userSpaceOnUse"><stop offset=".17" stop-color="#000"/><stop offset=".34" stop-color="#3f130b"/><stop offset=".51" stop-color="#752315"/><stop offset=".59" stop-color="#962d1b"/><stop offset=".66" stop-color="#9f301d"/><stop offset=".71" stop-color="#bd3923"/><stop offset="1" stop-color="#000"/></linearGradient><linearGradient id="u" x1="13.12" y1="-95.88" x2="14.04" y2="-95.88" gradientTransform="translate(-2733.31 34461.87) scale(241.76 350.63)" gradientUnits="userSpaceOnUse"><stop offset="0" stop-color="#000"/><stop offset=".21" stop-color="#912b1b"/><stop offset=".45" stop-color="#43140c"/><stop offset=".63" stop-color="#120503"/><stop offset=".72" stop-color="#000"/></linearGradient><linearGradient id="x" x1="14.46" y1="-95.83" x2="15.37" y2="-95.83" gradientTransform="translate(-2732.95 34263.58) scale(241.76 350.63)" gradientUnits="userSpaceOnUse"><stop offset="0" stop-color="#000"/><stop offset=".03" stop-color="#0d0402"/><stop offset=".08" stop-color="#2e0e08"/><stop offset=".15" stop-color="#641e12"/><stop offset=".24" stop-color="#af3520"/><stop offset=".26" stop-color="#c03a23"/><stop offset=".34" stop-color="#bc3922"/><stop offset=".44" stop-color="#af3520"/><stop offset=".53" stop-color="#9b2f1c"/><stop offset=".62" stop-color="#7d2617"/><stop offset=".72" stop-color="#581b10"/><stop offset=".81" stop-color="#2a0d08"/><stop offset=".89" stop-color="#000"/><stop offset="1" stop-color="#000"/></linearGradient><linearGradient id="aa" x1="14.44" y1="-95.8" x2="15.37" y2="-95.8" gradientTransform="translate(-2728.11 34337.91) scale(241.45 352.56)" gradientUnits="userSpaceOnUse"><stop offset="0" stop-color="#000"/><stop offset=".11" stop-color="#140603"/><stop offset=".33" stop-color="#48150d"/><stop offset=".64" stop-color="#9b2e1c"/><stop offset=".96" stop-color="#000"/></linearGradient><linearGradient id="ac" x1="14.46" y1="-95.76" x2="15.37" y2="-95.76" gradientTransform="translate(-2727.27 34140.01) scale(241.45 352.56)" gradientUnits="userSpaceOnUse"><stop offset=".1" stop-color="#000"/><stop offset=".22" stop-color="#3f130b"/><stop offset=".27" stop-color="#621d11"/><stop offset=".31" stop-color="#7e2617"/><stop offset=".35" stop-color="#902b1a"/><stop offset=".38" stop-color="#962d1b"/><stop offset=".41" stop-color="#9f301d"/><stop offset=".49" stop-color="#bd3923"/><stop offset="1" stop-color="#000"/></linearGradient><linearGradient id="ae" x1="14.46" y1="-95.88" x2="15.37" y2="-95.88" gradientTransform="translate(-2733.31 34461.87) scale(241.76 350.63)" gradientUnits="userSpaceOnUse"><stop offset="0" stop-color="#000"/><stop offset=".21" stop-color="#912b1b"/><stop offset=".45" stop-color="#43140c"/><stop offset=".63" stop-color="#120503"/><stop offset=".72" stop-color="#000"/></linearGradient><linearGradient id="ah" x1="15.79" y1="-95.83" x2="16.7" y2="-95.83" gradientTransform="translate(-2732.95 34263.58) scale(241.76 350.63)" gradientUnits="userSpaceOnUse"><stop offset="0" stop-color="#000"/><stop offset=".03" stop-color="#0d0402"/><stop offset=".08" stop-color="#2e0e08"/><stop offset=".15" stop-color="#641e12"/><stop offset=".24" stop-color="#af3520"/><stop offset=".26" stop-color="#c03a23"/><stop offset=".34" stop-color="#bc3922"/><stop offset=".44" stop-color="#af3520"/><stop offset=".53" stop-color="#9b2f1c"/><stop offset=".62" stop-color="#7d2617"/><stop offset=".72" stop-color="#581b10"/><stop offset=".81" stop-color="#2a0d08"/><stop offset=".89" stop-color="#000"/><stop offset="1" stop-color="#000"/></linearGradient><linearGradient id="ak" x1="15.77" y1="-95.8" x2="16.7" y2="-95.8" gradientTransform="translate(-2728.11 34337.91) scale(241.45 352.56)" gradientUnits="userSpaceOnUse"><stop offset="0" stop-color="#000"/><stop offset=".11" stop-color="#140603"/><stop offset=".33" stop-color="#48150d"/><stop offset=".64" stop-color="#9b2e1c"/><stop offset=".96" stop-color="#000"/></linearGradient><linearGradient id="am" x1="15.79" y1="-95.76" x2="16.7" y2="-95.76" gradientTransform="translate(-2727.27 34140.01) scale(241.45 352.56)" gradientUnits="userSpaceOnUse"><stop offset=".17" stop-color="#000"/><stop offset=".34" stop-color="#3f130b"/><stop offset=".51" stop-color="#752315"/><stop offset=".59" stop-color="#962d1b"/><stop offset=".66" stop-color="#9f301d"/><stop offset=".71" stop-color="#bd3923"/><stop offset="1" stop-color="#000"/></linearGradient><linearGradient id="ao" x1="15.79" y1="-95.88" x2="16.7" y2="-95.88" gradientTransform="translate(-2733.31 34461.87) scale(241.76 350.63)" gradientUnits="userSpaceOnUse"><stop offset="0" stop-color="#000"/><stop offset=".21" stop-color="#912b1b"/><stop offset=".45" stop-color="#43140c"/><stop offset=".63" stop-color="#120503"/><stop offset=".72" stop-color="#000"/></linearGradient><linearGradient id="ar" x1="17.04" y1="-95.83" x2="17.96" y2="-95.83" gradientTransform="translate(-2732.95 34263.58) scale(241.76 350.63)" gradientUnits="userSpaceOnUse"><stop offset="0" stop-color="#000"/><stop offset=".03" stop-color="#0d0402"/><stop offset=".08" stop-color="#2e0e08"/><stop offset=".15" stop-color="#641e12"/><stop offset=".24" stop-color="#af3520"/><stop offset=".26" stop-color="#c03a23"/><stop offset=".34" stop-color="#bc3922"/><stop offset=".44" stop-color="#af3520"/><stop offset=".53" stop-color="#9b2f1c"/><stop offset=".62" stop-color="#7d2617"/><stop offset=".72" stop-color="#581b10"/><stop offset=".81" stop-color="#2a0d08"/><stop offset=".89" stop-color="#000"/><stop offset="1" stop-color="#000"/></linearGradient><linearGradient id="au" x1="17.03" y1="-95.8" x2="17.95" y2="-95.8" gradientTransform="translate(-2728.11 34337.91) scale(241.45 352.56)" gradientUnits="userSpaceOnUse"><stop offset="0" stop-color="#000"/><stop offset=".11" stop-color="#140603"/><stop offset=".33" stop-color="#48150d"/><stop offset=".64" stop-color="#9b2e1c"/><stop offset=".96" stop-color="#000"/></linearGradient><linearGradient id="aw" x1="17.04" y1="-95.76" x2="17.96" y2="-95.76" gradientTransform="translate(-2727.27 34140.01) scale(241.45 352.56)" gradientUnits="userSpaceOnUse"><stop offset=".17" stop-color="#000"/><stop offset=".34" stop-color="#3f130b"/><stop offset=".51" stop-color="#752315"/><stop offset=".59" stop-color="#962d1b"/><stop offset=".66" stop-color="#9f301d"/><stop offset=".71" stop-color="#bd3923"/><stop offset="1" stop-color="#000"/></linearGradient><linearGradient id="ay" x1="17.04" y1="-95.88" x2="17.96" y2="-95.88" gradientTransform="translate(-2733.31 34461.87) scale(241.76 350.63)" gradientUnits="userSpaceOnUse"><stop offset="0" stop-color="#000"/><stop offset=".21" stop-color="#912b1b"/><stop offset=".45" stop-color="#43140c"/></linearGradient></defs><path id="b" d="M1721,1080H0V0H1721"/><path id="c" d="M194.2,813l73.4,51.1,91.5-63.3,.1-102-165,114.2Z" isolation="isolate" opacity=".63" stroke="#000" stroke-miterlimit="10" stroke-width="33"/><path id="e" d="M359.2,698.6l-.1,102s-150.8-97.5-173-119.9c-48.8-49.3-48.8-100.1-48.8-100.1l.1-101.7s7.9,57.6,44.6,94.7c2.5,2.5,28.3,22.4,31,24.3,30.8,21.6,146.2,100.7,146.2,100.7Z" fill="#d" isolation="isolate" opacity=".8" stroke="#000" stroke-miterlimit="10" stroke-width="33"/><path id="f" d="M303,367.3l-73.3-51.7-91.6,62.5-.3,102,165.2-112.8Z" isolation="isolate" opacity=".63" stroke="#000" stroke-miterlimit="10" stroke-width="33"/><path id="h" d="M137.8,480.3l.3-102s150.6,98.7,172.7,121.3c48.6,49.7,48.5,100.5,48.5,100.5l-.3,101.7s-7.8-57.7-44.3-95.1c-2.5-2.5-28.3-22.6-30.9-24.5-30.8-21.8-146-101.9-146-101.9Z" fill="#g" isolation="isolate" opacity=".8" stroke="#000" stroke-miterlimit="10" stroke-width="33"/><path id="j" d="M138.6,298.6l.3-102s150.6,98.7,172.7,121.3c48.6,49.7,48.5,100.5,48.5,100.5l-.3,101.7s-7.8-57.7-44.3-95.1c-2.5-2.5-28.3-22.6-30.9-24.5-30.8-21.9-146-101.9-146-101.9Z" fill="#i" isolation="isolate" opacity=".8" stroke="#000" stroke-miterlimit="10" stroke-width="33"/><path id="l" d="M358.8,880.4l-.1,102s-150.8-97.5-173-119.9c-48.7-49.3-48.7-100.2-48.7-100.2l.1-101.7s7.9,57.6,44.6,94.7c2.5,2.5,28.3,22.4,31,24.3,30.8,21.7,146.1,100.8,146.1,100.8Z" fill="#k" isolation="isolate" opacity=".8" stroke="#000" stroke-miterlimit="10" stroke-width="33"/><path id="m" d="M496,834.7l73.4,51.1,91.5-63.3,.1-102-165,114.2Z" isolation="isolate" opacity=".5" stroke="#000" stroke-miterlimit="10" stroke-width="33"/><path id="o" d="M660.9,720.4l-.1,102s-150.8-97.5-173-119.9c-48.8-49.3-48.7-100.1-48.7-100.1l.1-101.7s7.9,57.6,44.6,94.7c2.5,2.5,28.3,22.4,31,24.3,30.8,21.5,146.1,100.7,146.1,100.7Z" fill="#n" isolation="isolate" opacity=".1" stroke="#000" stroke-miterlimit="10" stroke-width="33"/><path id="p" d="M604.8,389.1l-73.3-51.7-91.6,62.5-.3,102,165.2-112.8Z" isolation="isolate" opacity=".5" stroke="#000" stroke-miterlimit="10" stroke-width="33"/><path id="r" d="M439.6,502.1l.3-102s150.6,98.7,172.7,121.3c48.6,49.7,48.5,100.5,48.5,100.5l-.3,101.7s-7.8-57.7-44.3-95.1c-2.5-2.5-28.3-22.6-30.9-24.5-30.8-21.9-146-101.9-146-101.9Z" fill="#q" isolation="isolate" opacity=".1" stroke="#000" stroke-miterlimit="10" stroke-width="33"/><path id="t" d="M440.4,320.3l.3-102s150.6,98.7,172.7,121.3c48.6,49.7,48.5,100.5,48.5,100.5l-.3,101.7s-7.8-57.7-44.3-95.1c-2.5-2.5-28.3-22.6-30.9-24.5-30.9-21.8-146-101.9-146-101.9Z" fill="#s" isolation="isolate" opacity=".8" stroke="#000" stroke-miterlimit="10" stroke-width="33"/><path id="v" d="M660.6,902.2l-.1,102s-150.8-97.5-173-119.9c-48.8-49.3-48.7-100.1-48.7-100.1l.1-101.7s7.9,57.6,44.6,94.7c2.5,2.5,28.3,22.4,31,24.3,30.7,21.5,146.1,100.7,146.1,100.7Z" fill="#u" isolation="isolate" opacity=".8" stroke="#000" stroke-miterlimit="10" stroke-width="33"/><path id="w" d="M818.9,834.7l73.4,51.1,91.5-63.3,.1-102-165,114.2Z" isolation="isolate" opacity=".5" stroke="#000" stroke-miterlimit="10" stroke-width="33"/><path id="y" d="M983.8,720.4l-.1,102s-150.8-97.5-173-119.9c-48.8-49.4-48.7-100.2-48.7-100.2v-101.7s7.9,57.6,44.6,94.7c2.5,2.5,28.3,22.4,31,24.3,30.8,21.6,146.2,100.8,146.2,100.8Z" fill="#x" isolation="isolate" opacity=".1" stroke="#000" stroke-miterlimit="10" stroke-width="33"/><path id="a`" d="M927.6,389.1l-73.3-51.7-91.6,62.5-.3,102,165.2-112.8Z" isolation="isolate" opacity=".5" stroke="#000" stroke-miterlimit="10" stroke-width="33"/><path id="ab" d="M762.4,502.1l.3-102s150.6,98.7,172.7,121.3c48.6,49.7,48.5,100.5,48.5,100.5l-.3,101.7s-7.8-57.7-44.3-95.1c-2.5-2.5-28.3-22.6-30.9-24.5-30.8-21.9-146-101.9-146-101.9Z" fill="#aa" isolation="isolate" opacity=".1" stroke="#000" stroke-miterlimit="10" stroke-width="33"/><path id="ad" d="M763.2,320.3l.3-102s150.6,98.7,172.7,121.3c48.6,49.7,48.5,100.5,48.5,100.5l-.3,101.7s-7.8-57.7-44.3-95.1c-2.5-2.5-28.3-22.6-30.9-24.5-30.8-21.8-146-101.9-146-101.9Z" fill="#ac" isolation="isolate" opacity=".8" stroke="#000" stroke-miterlimit="10" stroke-width="33"/><path id="af" d="M983.5,902.2l-.1,102s-150.8-97.5-173-119.9c-48.8-49.3-48.7-100.1-48.7-100.1l.1-101.7s7.9,57.6,44.6,94.7c2.5,2.5,28.3,22.4,31,24.3,30.7,21.5,146.1,100.7,146.1,100.7Z" fill="#ae" isolation="isolate" opacity=".8" stroke="#000" stroke-miterlimit="10" stroke-width="33"/><path id="ag" d="M1140.2,835.1l73.4,51.1,91.5-63.3,.1-102-165,114.2Z" isolation="isolate" opacity=".5" stroke="#000" stroke-miterlimit="10" stroke-width="33"/><path id="ai" d="M1305.1,720.8l-.1,102s-150.8-97.5-173-119.9c-48.8-49.3-48.7-100.1-48.7-100.1l.1-101.7s7.9,57.6,44.6,94.7c2.5,2.5,28.3,22.4,31,24.3,30.7,21.5,146.1,100.7,146.1,100.7Z" fill="#ah" isolation="isolate" opacity=".1" stroke="#000" stroke-miterlimit="10" stroke-width="33"/><path id="aj" d="M1248.9,389.4l-73.3-51.7-91.6,62.5-.3,102,165.2-112.8Z" isolation="isolate" opacity=".5" stroke="#000" stroke-miterlimit="10" stroke-width="33"/><path id="al" d="M1083.7,502.5l.3-102s150.6,98.7,172.7,121.3c48.6,49.7,48.5,100.5,48.5,100.5l-.3,101.7s-7.8-57.7-44.3-95.1c-2.5-2.5-28.3-22.6-30.9-24.5-30.8-21.9-146-101.9-146-101.9Z" fill="#ak" isolation="isolate" opacity=".1" stroke="#000" stroke-miterlimit="10" stroke-width="33"/><path id="an" d="M1084.5,320.7l.3-102s150.6,98.7,172.7,121.3c48.6,49.7,48.5,100.5,48.5,100.5l-.3,101.7s-7.8-57.7-44.3-95.1c-2.5-2.5-28.3-22.6-30.9-24.5-30.8-21.8-146-101.9-146-101.9Z" fill="#am" isolation="isolate" opacity=".8" stroke="#000" stroke-miterlimit="10" stroke-width="33"/><path id="ap" d="M1304.7,902.5l-.1,102s-150.8-97.5-173-119.9c-48.8-49.3-48.7-100.1-48.7-100.1l.1-101.7s7.9,57.6,44.6,94.7c2.5,2.5,28.3,22.4,31,24.3,30.8,21.6,146.1,100.7,146.1,100.7Z" fill="#ao" isolation="isolate" opacity=".8" stroke="#000" stroke-miterlimit="10" stroke-width="33"/><path id="aq" d="M1443,835.1l73.4,51.1,91.5-63.3,.1-102-165,114.2Z" isolation="isolate" opacity=".63" stroke="#000" stroke-miterlimit="10" stroke-width="33"/><path id="as" d="M1608,720.8l-.1,102s-150.8-97.5-173-119.9c-48.8-49.3-48.7-100.1-48.7-100.1l.1-101.7s7.9,57.6,44.6,94.7c2.5,2.5,28.3,22.4,31,24.3,30.7,21.5,146.1,100.7,146.1,100.7Z" fill="#ar" isolation="isolate" opacity=".8" stroke="#000" stroke-miterlimit="10" stroke-width="33"/><path id="at" d="M1551.8,389.4l-73.3-51.7-91.6,62.5-.3,102,165.2-112.8Z" isolation="isolate" opacity=".63" stroke="#000" stroke-miterlimit="10" stroke-width="33"/><path id="av" d="M1386.6,502.5l.3-102s150.6,98.7,172.7,121.3c48.6,49.7,48.5,100.5,48.5,100.5l-.3,101.7s-7.8-57.7-44.3-95.1c-2.5-2.5-28.3-22.6-30.9-24.5-30.8-21.9-146-101.9-146-101.9Z" fill="#au" isolation="isolate" opacity=".8" stroke="#000" stroke-miterlimit="10" stroke-width="33"/><path id="ax" d="M1387.4,320.7l.3-102s150.6,98.7,172.7,121.3c48.6,49.7,48.5,100.5,48.5,100.5l-.3,101.7s-7.8-57.7-44.3-95.1c-2.5-2.5-28.3-22.6-30.9-24.5-30.8-21.8-146-101.9-146-101.9Z" fill="#aw" isolation="isolate" opacity=".8" stroke="#000" stroke-miterlimit="10" stroke-width="33"/><path id="b`" d="M1607.6,902.5l-.1,102s-150.8-97.5-173-119.9c-48.8-49.3-48.7-100.1-48.7-100.1l.1-101.7s7.9,57.6,44.6,94.7c2.5,2.5,28.3,22.4,31,24.3,30.8,21.6,146.1,100.7,146.1,100.7Z" fill="#ay" isolation="isolate" opacity=".8" stroke="#000" stroke-miterlimit="10" stroke-width="33"/><text transform="translate(526.09 594.86)" fill="#fff" font-family="SofiaPro-SemiBold, Sofia Pro"><tspan font-size="64"><tspan x="0" y="0" letter-spacing="0em">H</tspan><tspan x="44.42" y="0">ello </tspan><tspan x="165.18" y="0" letter-spacing="0em">m</tspan><tspan x="220.03" y="0" letter-spacing="-.02em">y</tspan><tspan x="251.13" y="0" xml:space="preserve"> name is </tspan><tspan x="510.65" y="0" letter-spacing="-.02em">K</tspan><tspan x="547.7" y="0">a</tspan><tspan x="587" y="0" letter-spacing="0em">t</tspan><tspan x="609.08" y="0">e,</tspan></tspan><tspan font-size="46"><tspan x="-38.1" y="71">UX </tspan><tspan x="34.21" y="71" letter-spacing="0em">D</tspan><tspan x="66.83" y="71" letter-spacing="0em">esigne</tspan><tspan x="204.69" y="71" letter-spacing="-.06em">r</tspan><tspan x="221.02" y="71" xml:space="preserve">,  Questione</tspan><tspan x="470.75" y="71" letter-spacing="-.02em">r</tspan><tspan x="488.59" y="71" xml:space="preserve"> &amp; Thin</tspan><tspan x="634.13" y="71" letter-spacing="-.03em">k</tspan><tspan x="656.63" y="71">e</tspan><tspan x="682.07" y="71" letter-spacing="-.02em">r</tspan></tspan></text></svg>