<svg width="187" height="134" viewBox="0 0 187 134" fill="none" xmlns="http://www.w3.org/2000/svg">
<path opacity="0.05" d="M66.1796 82.19L47.5596 111.35L64.6396 80.27L66.1796 82.19Z" fill="#E53828"/>
<path d="M82.6396 102.69L64.6396 80.2701L165.64 1.70015C165.81 1.56531 166.026 1.50329 166.242 1.52765C166.457 1.55202 166.654 1.66079 166.79 1.83015L183.72 22.9102C183.864 23.0955 183.93 23.3301 183.904 23.5637C183.878 23.7973 183.762 24.0113 183.58 24.1602L82.6396 102.69Z" fill="#67C0EB"/>
<path d="M47.5596 111.35C47.5596 111.35 25.4396 99.4 26.9396 116.61C29.2296 142.92 5.36957 127.61 1.80957 124.08" stroke="#BA3B7D" stroke-width="3" stroke-linejoin="bevel"/>
<path opacity="0.32" d="M64.6396 80.27L47.5596 111.35L82.6396 102.69L64.6396 80.27Z" fill="#ED7EA8"/>
<path d="M183.78 23L166.93 1.92996L168.36 0.829957C168.902 0.416999 169.584 0.231013 170.262 0.311238C170.939 0.391462 171.558 0.731625 171.99 1.25996L185.63 18.33C186.048 18.8529 186.241 19.5201 186.168 20.1855C186.095 20.8509 185.761 21.4602 185.24 21.88V21.88L183.78 23Z" fill="#BA3B7D"/>
<path d="M82.6396 102.69L76.6396 95.2001L172.25 20.6201L178.31 28.3001L82.6396 102.69Z" fill="#346DB1"/>
<path d="M182.799 24.7998L183.669 24.1198C183.837 23.9878 183.945 23.7951 183.971 23.5836C183.998 23.372 183.939 23.1587 183.809 22.9898V22.9898L166.809 1.82981C166.673 1.65828 166.475 1.54734 166.258 1.52112C166.041 1.4949 165.822 1.55553 165.649 1.68981L164.779 2.35981L182.799 24.7998Z" fill="#E2E2E2"/>
<path opacity="0.09" d="M182.8 24.8001L179 20.0501C178.48 19.4101 177.42 19.3701 178.05 18.8401L179.84 17.3801C180.642 16.7889 181.268 15.9903 181.65 15.0701C181.79 14.6184 181.877 14.1519 181.91 13.6801L181.81 13.5601C181.81 13.5601 185.53 18.1801 185.63 18.3301C185.878 18.6148 186.047 18.9596 186.12 19.3301C186.23 19.7798 186.209 20.2518 186.06 20.6901C185.842 21.2041 185.498 21.6547 185.06 22.0001L183.78 23.0001C183.885 23.112 183.953 23.2546 183.973 23.4072C183.992 23.5599 183.963 23.7149 183.89 23.8501C183.787 24.0385 183.63 24.1918 183.44 24.2901" fill="black"/>
<path d="M180.19 26.8198L162.29 4.31982L161.17 5.18983L179.06 27.6998L180.19 26.8198Z" fill="#6272FB" fill-opacity="0.67"/>
<path d="M179.799 27.1302L161.799 4.68018L160.279 5.86018L178.279 28.3002" fill="#DFDFDF"/>
<path d="M182.8 24.7901L164.87 2.31006L162.27 4.31006L180.17 26.8301L182.8 24.7901Z" fill="#327AA7"/>
<path opacity="0.2" d="M47.56 111.35L76.62 95.2002L82.62 102.69L47.54 111.35" fill="#C1D2E7"/>
<g filter="url(#filter0_d_4_712)">
<path d="M70.6592 87.7599L64.6592 80.2699L160.259 5.68994L166.319 13.3799L70.6592 87.7599Z" fill="#346DB1"/>
</g>
<path opacity="0.22" d="M172.51 1.91013L171.05 2.03013C169.732 2.13868 168.474 2.62861 167.43 3.44013L66.1796 82.1901L64.6396 80.2701L91.7597 59.1801L106.71 47.5501L132.47 27.5501L142.15 20.0001L153.85 10.8901L161.41 5.00013L165.41 1.86013C165.41 1.86013 165.58 1.73013 165.78 1.60013C165.945 1.50157 166.142 1.4694 166.33 1.51013C166.54 1.55988 166.724 1.68426 166.85 1.86013L166.91 1.92013L167.71 1.30013L168.21 0.93013C168.58 0.619185 169.024 0.409077 169.5 0.32013C169.709 0.294983 169.92 0.294983 170.13 0.32013C170.337 0.335001 170.542 0.375302 170.74 0.440129C171.058 0.54752 171.353 0.713739 171.61 0.93013C171.946 1.22175 172.248 1.55052 172.51 1.91013V1.91013Z" fill="black"/>
<path opacity="0.12" d="M76.6195 95.1998L70.6195 87.7598L47.5195 111.35L76.6195 95.1998Z" fill="#F5F5F5"/>
<path opacity="0.17" d="M70.6596 87.7599L47.5596 111.35L66.1796 82.1899L70.6596 87.7599Z" fill="white"/>
<path d="M47.5596 111.35L62.5596 107.69L58.2796 106.81L60.5196 103.81L55.6396 105.4L58.9496 100.72L53.4496 103.14L54.7696 98.3398L47.5596 111.35Z" fill="#141212"/>
<defs>
<filter id="filter0_d_4_712" x="60.6592" y="5.68994" width="109.66" height="90.0698" filterUnits="userSpaceOnUse" color-interpolation-filters="sRGB">
<feFlood flood-opacity="0" result="BackgroundImageFix"/>
<feColorMatrix in="SourceAlpha" type="matrix" values="0 0 0 0 0 0 0 0 0 0 0 0 0 0 0 0 0 0 127 0" result="hardAlpha"/>
<feOffset dy="4"/>
<feGaussianBlur stdDeviation="2"/>
<feComposite in2="hardAlpha" operator="out"/>
<feColorMatrix type="matrix" values="0 0 0 0 0 0 0 0 0 0 0 0 0 0 0 0 0 0 0.25 0"/>
<feBlend mode="normal" in2="BackgroundImageFix" result="effect1_dropShadow_4_712"/>
<feBlend mode="normal" in="SourceGraphic" in2="effect1_dropShadow_4_712" result="shape"/>
</filter>
</defs>
</svg>
