<svg id="Layer_1" data-name="Layer 1" xmlns="http://www.w3.org/2000/svg" viewBox="0 0 590.35 460.23"><defs><style>.cls-1,.cls-2,.cls-3,.cls-6{fill:none;}.cls-2{stroke:#e53828;}.cls-2,.cls-3,.cls-6{stroke-width:3px;}.cls-3{stroke:#000;}.cls-14,.cls-16,.cls-17,.cls-4,.cls-9{fill:#e53828;}.cls-4{opacity:0.05;}.cls-11,.cls-14,.cls-15,.cls-16,.cls-17,.cls-19,.cls-4{isolation:isolate;}.cls-5{fill:#f8bbb4;}.cls-6{stroke:#030303;stroke-linejoin:bevel;}.cls-7{fill:#ffedc5;}.cls-8{fill:#ed4e35;}.cls-10{fill:#84878a;}.cls-11{opacity:0.09;}.cls-12{fill:#cf9c9d;}.cls-13{fill:#959596;}.cls-14{opacity:0.11;}.cls-15{opacity:0.22;}.cls-16{opacity:0.06;}.cls-17,.cls-19{opacity:0.1;}.cls-18{fill:#141212;}.cls-20{opacity:0.02;}</style></defs><title>pencil2</title><g id="Group_22" data-name="Group 22"><g id="Ellipse_14" data-name="Ellipse 14"><ellipse id="Ellipse_16" data-name="Ellipse 16" class="cls-1" cx="464.02" cy="279.09" rx="16.89" ry="16.63"/><ellipse id="Ellipse_17" data-name="Ellipse 17" class="cls-2" cx="464.02" cy="279.09" rx="15.08" ry="14.84"/></g><g id="Ellipse_15" data-name="Ellipse 15"><ellipse id="Ellipse_18" data-name="Ellipse 18" class="cls-1" cx="144.3" cy="16.63" rx="16.89" ry="16.63"/><ellipse id="Ellipse_19" data-name="Ellipse 19" class="cls-2" cx="144.3" cy="16.63" rx="15.08" ry="14.84"/></g><line id="Line_1" data-name="Line 1" class="cls-3" x1="307.22" y1="6" x2="307.67" y2="27.91"/><line id="Line_2" data-name="Line 2" class="cls-3" x1="318.58" y1="15.86" x2="296.32" y2="16.3"/><line id="Line_3" data-name="Line 3" class="cls-3" x1="307.22" y1="438.29" x2="307.67" y2="460.2"/><line id="Line_4" data-name="Line 4" class="cls-3" x1="318.58" y1="448.15" x2="296.32" y2="448.59"/><path id="Path_298" data-name="Path 298" class="cls-4" d="M213.74,300.39,154.2,393.6l54.61-99.35Z" transform="translate(-6.94 -36.6)"/><g id="Group_13" data-name="Group 13"><path id="Rectangle_54" data-name="Rectangle 54" class="cls-5" d="M266.34,365.92l-57.53-71.67L531.7,43.13a2.65,2.65,0,0,1,3.7.42h0l54.09,67.38a2.84,2.84,0,0,1-.43,4l0,0h0Z" transform="translate(-6.94 -36.6)"/><g id="Group_12" data-name="Group 12"><path id="Path_259-2" data-name="Path 259-2" class="cls-6" d="M154.21,393.6s-70.7-38.19-65.91,16.79c7.33,84.12-68.94,35.25-80.3,23.9H8" transform="translate(-6.94 -36.6)"/></g><path id="Path_295" data-name="Path 295" class="cls-7" d="M208.81,294.25l-54.6,99.35,112.13-27.68Z" transform="translate(-6.94 -36.6)"/><g id="Rectangle_55" data-name="Rectangle 55"><path id="Path_289" data-name="Path 289" class="cls-8" d="M589.6,111.23,535.75,43.87l4.57-3.51a8.35,8.35,0,0,1,11.58,1.37L595.5,96.3a8.06,8.06,0,0,1-1.23,11.33l-.14.11,0,0Z" transform="translate(-6.94 -36.6)"/></g><path id="Path_297" data-name="Path 297" class="cls-9" d="M266.34,365.92,247.11,342,552.67,103.62,572,128.17Z" transform="translate(-6.94 -36.6)"/><path id="Path_290" data-name="Path 290" class="cls-10" d="M586.46,117l2.77-2.15a2.57,2.57,0,0,0,.47-3.61l0,0L535.49,43.5a2.68,2.68,0,0,0-3.71-.43L529,45.22Z" transform="translate(-6.94 -36.6)"/><path id="Path_293" data-name="Path 293" class="cls-11" d="M586.46,117l-12.15-15.16c-1.65-2.06-5.06-2.17-3-3.89L577,93.25c2.56-2.2,4.67-4.25,5.81-7.39a20.39,20.39,0,0,0,.81-4.45l-.3-.37S595.18,95.82,595.5,96.3a6.85,6.85,0,0,1,1.58,3.24,7.85,7.85,0,0,1-.21,4.35c-.39,1.93-3.18,4.2-3.18,4.2l-4.08,3.14a2.31,2.31,0,0,1,.32,2.69,3.44,3.44,0,0,1-1.42,1.43" transform="translate(-6.94 -36.6)"/><path id="Path_294" data-name="Path 294" class="cls-12" d="M578.12,123.41l-57.2-71.9-3.59,2.79,57.19,71.94Z" transform="translate(-6.94 -36.6)"/><path id="Path_295-2" data-name="Path 295-2" class="cls-10" d="M576.87,124.41,519.45,52.66l-4.86,3.78L572,128.17" transform="translate(-6.94 -36.6)"/><path id="Path_296" data-name="Path 296" class="cls-13" d="M586.46,117,529.14,45.1l-8.28,6.43,57.19,72Z" transform="translate(-6.94 -36.6)"/><path id="Path_299" data-name="Path 299" class="cls-14" d="M154.2,393.6,247.11,342l19.23,23.95L154.2,393.6" transform="translate(-6.94 -36.6)"/><path id="Path_297-2" data-name="Path 297-2" class="cls-9" d="M228.05,318.21l-19.23-24L514.38,55.9l19.38,24.55Z" transform="translate(-6.94 -36.6)"/><path id="Path_297-3" data-name="Path 297-3" class="cls-15" d="M553.57,43.81l-4.66.39a21.83,21.83,0,0,0-11.57,4.5L213.74,300.39l-4.93-6.14,86.67-67.4,47.79-37.18,82.34-64,30.92-24,37.4-29.09,24.18-18.81,12.87-10s.55-.43,1.19-.85a2.48,2.48,0,0,1,1.73-.26,2.72,2.72,0,0,1,1.68,1.1l.18.2,2.58-2,1.57-1.2A9.31,9.31,0,0,1,544,38.73a8,8,0,0,1,2-.08,9.42,9.42,0,0,1,2,.39,9,9,0,0,1,2.78,1.56A19.24,19.24,0,0,1,553.57,43.81Z" transform="translate(-6.94 -36.6)"/><path id="Path_300" data-name="Path 300" class="cls-16" d="M247.11,342l-19.06-23.76L154.2,393.6Z" transform="translate(-6.94 -36.6)"/><path id="Path_301" data-name="Path 301" class="cls-17" d="M228.05,318.21,154.2,393.6l59.54-93.21Z" transform="translate(-6.94 -36.6)"/><path id="Path_298-2" data-name="Path 298-2" class="cls-18" d="M154.2,393.6,202,381.91l-13.67-2.83,7.15-9.69-15.59,5.08,10.57-15-17.55,7.72,4.21-15.32Z" transform="translate(-6.94 -36.6)"/></g><path id="Path_302" data-name="Path 302" class="cls-19" d="M213.74,300.39,154.2,393.6l54.61-99.35Z" transform="translate(-6.94 -36.6)"/></g><path class="cls-11" d="M576,94.09,251.09,346.93l15.25,19L585.69,117.55l3.64-2.83a2.58,2.58,0,0,0,.37-3.53Z" transform="translate(-6.94 -36.6)"/><path class="cls-9" d="M251,347" transform="translate(-6.94 -36.6)"/><polygon class="cls-20" points="147.26 357 259.4 329.32 244.15 310.33 147.26 357"/></svg>