<svg id="Layer_1" data-name="Layer 1" xmlns="http://www.w3.org/2000/svg" viewBox="0 0 185.44 132.92"><defs><style>.cls-1{fill:#e53828;opacity:0.05;}.cls-1,.cls-10,.cls-11,.cls-13,.cls-14,.cls-4,.cls-7{isolation:isolate;}.cls-10,.cls-12,.cls-13,.cls-2{fill:#f8bbb4;}.cls-15,.cls-16,.cls-17,.cls-3{fill:none;}.cls-3{stroke:#030303;stroke-linejoin:bevel;}.cls-16,.cls-17,.cls-3{stroke-width:3px;}.cls-4{fill:#ffedc5;}.cls-5{fill:#ed5037;}.cls-6{fill:#84878a;}.cls-7{opacity:0.09;}.cls-8{fill:#cf9c9d;}.cls-9{fill:#959596;}.cls-10{opacity:0.4;}.cls-11{opacity:0.22;}.cls-12{opacity:0.37;}.cls-13{opacity:0.26;}.cls-14{fill:#141212;opacity:0.89;}.cls-16{stroke:#e53828;}.cls-17{stroke:#000;}</style></defs><title>pencil</title><g id="Group_22" data-name="Group 22"><path id="Path_298" data-name="Path 298" class="cls-1" d="M68.52,91.61,49.9,120.77,67,89.69Z" transform="translate(-3.1 -9.71)"/><g id="Group_13" data-name="Group 13"><path id="Rectangle_54" data-name="Rectangle 54" class="cls-2" d="M85,112.11,67,89.69,168,11.12a.8.8,0,0,1,1.15.13h0l16.93,21.08a.9.9,0,0,1-.14,1.25h0Z" transform="translate(-3.1 -9.71)"/><g id="Group_12" data-name="Group 12"><path id="Path_259-2" data-name="Path 259-2" class="cls-3" d="M49.9,120.77s-22.12-12-20.62,5.26c2.29,26.31-21.57,11-25.13,7.47h0" transform="translate(-3.1 -9.71)"/></g><path id="Path_295" data-name="Path 295" class="cls-4" d="M67,89.69,49.9,120.77,85,112.11Z" transform="translate(-3.1 -9.71)"/><g id="Rectangle_55" data-name="Rectangle 55"><path id="Path_289" data-name="Path 289" class="cls-2" d="M186.12,32.42,169.27,11.35l1.43-1.1a2.63,2.63,0,0,1,3.63.43L188,27.75a2.53,2.53,0,0,1-.39,3.55h0Z" transform="translate(-3.1 -9.71)"/></g><path id="Path_297" data-name="Path 297" class="cls-5" d="M85,112.11l-6-7.49L174.59,30l6.06,7.68Z" transform="translate(-3.1 -9.71)"/><path id="Path_290" data-name="Path 290" class="cls-6" d="M185.14,34.22l.87-.68a.81.81,0,0,0,.14-1.13h0l-17-21.16a.83.83,0,0,0-1.16-.14l-.87.67Z" transform="translate(-3.1 -9.71)"/><path id="Path_293" data-name="Path 293" class="cls-7" d="M185.14,34.22l-3.8-4.75c-.52-.64-1.58-.68-1-1.21l1.79-1.46A5.46,5.46,0,0,0,184,24.49a6.08,6.08,0,0,0,.26-1.39l-.1-.12s3.72,4.62,3.82,4.77a2,2,0,0,1,.49,1,2.42,2.42,0,0,1-.06,1.36,3.29,3.29,0,0,1-1,1.31l-1.28,1a.73.73,0,0,1,.11.85,1.12,1.12,0,0,1-.45.44" transform="translate(-3.1 -9.71)"/><path id="Path_294" data-name="Path 294" class="cls-8" d="M182.53,36.24l-17.9-22.5-1.12.87L181.4,37.12Z" transform="translate(-3.1 -9.71)"/><path id="Path_295-2" data-name="Path 295-2" class="cls-6" d="M182.14,36.55l-18-22.45-1.52,1.18,18,22.44" transform="translate(-3.1 -9.71)"/><path id="Path_296" data-name="Path 296" class="cls-9" d="M185.14,34.21,167.21,11.73l-2.6,2,17.9,22.52Z" transform="translate(-3.1 -9.71)"/><path id="Path_299" data-name="Path 299" class="cls-10" d="M49.9,120.77,79,104.62l6,7.49-35.08,8.66" transform="translate(-3.1 -9.71)"/><path id="Path_297-2" data-name="Path 297-2" class="cls-5" d="M73,97.18l-6-7.49,95.6-74.58,6.06,7.69Z" transform="translate(-3.1 -9.71)"/><path id="Path_297-3" data-name="Path 297-3" class="cls-11" d="M174.85,11.33l-1.46.12a6.72,6.72,0,0,0-3.62,1.41L68.52,91.61,67,89.69,94.1,68.6l15-11.63,25.76-20,9.68-7.55,11.7-9.11,7.56-5.89,4-3.14s.17-.13.37-.26a.71.71,0,0,1,.55-.09.86.86,0,0,1,.52.35l.06.06.8-.62.5-.37a2.66,2.66,0,0,1,1.29-.61,2.22,2.22,0,0,1,.63,0,2.07,2.07,0,0,1,.61.12,2.42,2.42,0,0,1,.87.49A5.57,5.57,0,0,1,174.85,11.33Z" transform="translate(-3.1 -9.71)"/><path id="Path_300" data-name="Path 300" class="cls-12" d="M79,104.62l-6-7.44-23.1,23.59Z" transform="translate(-3.1 -9.71)"/><path id="Path_301" data-name="Path 301" class="cls-13" d="M73,97.18,49.9,120.77,68.52,91.61Z" transform="translate(-3.1 -9.71)"/><path id="Path_298-2" data-name="Path 298-2" class="cls-14" d="M49.9,120.77l15-3.66-4.28-.88,2.24-3L58,114.82l3.31-4.68-5.5,2.42,1.32-4.8Z" transform="translate(-3.1 -9.71)"/></g></g><path class="cls-7" d="M181.87,27.05,81.46,107.72,84.92,112l100-77.62,1.14-.89a.79.79,0,0,0,.11-1.1Z" transform="translate(-3.1 -9.71)"/><g id="Ellipse_14-2" data-name="Ellipse 14-2"><ellipse id="Ellipse_16-2" data-name="Ellipse 16-2" class="cls-15" cx="29.22" cy="29.71" rx="5.28" ry="5.2"/><ellipse id="Ellipse_17-2" data-name="Ellipse 17-2" class="cls-16" cx="29.22" cy="29.71" rx="4.72" ry="4.64"/></g><line id="Line_1-2" data-name="Line 1-2" class="cls-17" x1="167.22" y1="101.35" x2="167.45" y2="112.7"/><line id="Line_2-2" data-name="Line 2-2" class="cls-17" x1="173.14" y1="106.46" x2="161.52" y2="106.68"/><polygon class="cls-7" points="78.37 98.01 46.8 111.06 81.82 102.33 78.37 98.01"/></svg>