<?xml version="1.0" encoding="utf-8"?>
<!-- Generator: Adobe Illustrator 26.2.1, SVG Export Plug-In . SVG Version: 6.00 Build 0)  -->
<svg version="1.1" id="Layer_1" xmlns="http://www.w3.org/2000/svg" xmlns:xlink="http://www.w3.org/1999/xlink" x="0px" y="0px"
	 viewBox="0 0 2000 1080" style="enable-background:new 0 0 2000 1080;" xml:space="preserve">
<style type="text/css">
	.st0{opacity:0.63;stroke:#000000;stroke-width:33;stroke-miterlimit:10;enable-background:new    ;}
	
		.st1{opacity:0.8;fill:url(#Path_4_00000152237997301197150560000009875051781388105143_);stroke:#000000;stroke-width:33;stroke-miterlimit:10;enable-background:new    ;}
	
		.st2{opacity:0.8;fill:url(#Path_6_00000016790599098887651490000012327922059066852487_);stroke:#000000;stroke-width:33;stroke-miterlimit:10;enable-background:new    ;}
	
		.st3{opacity:0.8;fill:url(#Path_7_00000142871104651401301990000008658680377659309708_);stroke:#000000;stroke-width:33;stroke-miterlimit:10;enable-background:new    ;}
	
		.st4{opacity:0.8;fill:url(#Path_14_00000062175998317775186030000009149681988479390388_);stroke:#000000;stroke-width:33;stroke-miterlimit:10;enable-background:new    ;}
	.st5{opacity:0.5;stroke:#000000;stroke-width:33;stroke-miterlimit:10;enable-background:new    ;}
	
		.st6{opacity:0.1;fill:url(#Path_4_00000177462522713581583640000000534170611334439302_);stroke:#000000;stroke-width:33;stroke-miterlimit:10;enable-background:new    ;}
	
		.st7{opacity:0.1;fill:url(#Path_6_00000139993502446490022080000014720500987531690673_);stroke:#000000;stroke-width:33;stroke-miterlimit:10;enable-background:new    ;}
	
		.st8{opacity:0.8;fill:url(#Path_7_00000120548998135786202700000018241596374755190952_);stroke:#000000;stroke-width:33;stroke-miterlimit:10;enable-background:new    ;}
	
		.st9{opacity:0.8;fill:url(#Path_14_00000054963455853448467070000015273088197387464886_);stroke:#000000;stroke-width:33;stroke-miterlimit:10;enable-background:new    ;}
	
		.st10{opacity:0.1;fill:url(#Path_4_00000113321494583077171570000000326483503853364914_);stroke:#000000;stroke-width:33;stroke-miterlimit:10;enable-background:new    ;}
	
		.st11{opacity:0.1;fill:url(#Path_6_00000008871598919748878370000005019612317376329891_);stroke:#000000;stroke-width:33;stroke-miterlimit:10;enable-background:new    ;}
	
		.st12{opacity:0.8;fill:url(#Path_7_00000075159462612696318640000015460242048544303268_);stroke:#000000;stroke-width:33;stroke-miterlimit:10;enable-background:new    ;}
	.st13{opacity:0.8;fill:#006094;stroke:#000000;stroke-width:33;stroke-miterlimit:10;enable-background:new    ;}
	
		.st14{opacity:0.1;fill:url(#Path_4_00000142138669550900703660000003831513287521487021_);stroke:#000000;stroke-width:33;stroke-miterlimit:10;enable-background:new    ;}
	
		.st15{opacity:0.1;fill:url(#Path_6_00000027583582730321980240000017787091238967467197_);stroke:#000000;stroke-width:33;stroke-miterlimit:10;enable-background:new    ;}
	
		.st16{opacity:0.8;fill:url(#Path_7_00000167358793071827732070000002479849515829036977_);stroke:#000000;stroke-width:33;stroke-miterlimit:10;enable-background:new    ;}
	
		.st17{opacity:0.8;fill:url(#Path_14_00000037661093634648578940000006375886971972886948_);stroke:#000000;stroke-width:33;stroke-miterlimit:10;enable-background:new    ;}
	
		.st18{opacity:0.8;fill:url(#Path_4_00000101790061471922761220000014188531670789940156_);stroke:#000000;stroke-width:33;stroke-miterlimit:10;enable-background:new    ;}
	
		.st19{opacity:0.8;fill:url(#Path_6_00000155111247183014876530000004495892974622094469_);stroke:#000000;stroke-width:33;stroke-miterlimit:10;enable-background:new    ;}
	
		.st20{opacity:0.8;fill:url(#Path_7_00000139293340584017435460000016500078934102240679_);stroke:#000000;stroke-width:33;stroke-miterlimit:10;enable-background:new    ;}
	
		.st21{opacity:0.8;fill:url(#Path_14_00000098909093026065483300000014454017602471894974_);stroke:#000000;stroke-width:33;stroke-miterlimit:10;enable-background:new    ;}
	.st22{fill:#FFFFFF;}
	.st23{font-family:'SofiaPro-SemiBold';}
	.st24{font-size:66px;}
	.st25{fill:#6699FF;}
	.st26{font-family:'SofiaPro-Bold';}
	.st27{font-size:47px;}
</style>
<path id="Path_2" d="M1864,1080.4H143V0.4h1721"/>
<path id="Path_3" class="st0" d="M337.2,813.4l73.4,51.1l91.5-63.3l0.1-102L337.2,813.4z"/>
<linearGradient id="Path_4_00000027584700660113844870000000241189574791195545_" gradientUnits="userSpaceOnUse" x1="280.3" y1="640.15" x2="502.2" y2="640.15">
	<stop  offset="0.343" style="stop-color:#000C55"/>
	<stop  offset="0.509" style="stop-color:#004794"/>
	<stop  offset="0.5909" style="stop-color:#006094"/>
	<stop  offset="0.6614" style="stop-color:#0044AA"/>
	<stop  offset="0.7143" style="stop-color:#3F51FF"/>
	<stop  offset="0.7955" style="stop-color:#0060D4"/>
	<stop  offset="1" style="stop-color:#000000"/>
</linearGradient>
<path id="Path_4" style="opacity:0.8;fill:url(#Path_4_00000027584700660113844870000000241189574791195545_);stroke:#000000;stroke-width:33;stroke-miterlimit:10;enable-background:new    ;" d="
	M502.2,699l-0.1,102c0,0-150.8-97.5-173-119.9C280.3,631.8,280.3,581,280.3,581l0.1-101.7c0,0,7.9,57.6,44.6,94.7
	c2.5,2.5,28.3,22.4,31,24.3C386.8,619.9,502.2,699,502.2,699z"/>
<path id="Path_5" class="st0" d="M446,367.7L372.7,316l-91.6,62.5l-0.3,102L446,367.7z"/>
<linearGradient id="Path_6_00000152955718173568799950000000387410708661209224_" gradientUnits="userSpaceOnUse" x1="280.8" y1="540.45" x2="502.3" y2="540.45">
	<stop  offset="0.343" style="stop-color:#000C55"/>
	<stop  offset="0.509" style="stop-color:#004794"/>
	<stop  offset="0.5909" style="stop-color:#006094"/>
	<stop  offset="0.6614" style="stop-color:#0044AA"/>
	<stop  offset="0.7143" style="stop-color:#3F51FF"/>
	<stop  offset="0.7955" style="stop-color:#0060D4"/>
	<stop  offset="1" style="stop-color:#000000"/>
</linearGradient>
<path id="Path_6" style="opacity:0.8;fill:url(#Path_6_00000152955718173568799950000000387410708661209224_);stroke:#000000;stroke-width:33;stroke-miterlimit:10;enable-background:new    ;" d="
	M280.8,480.7l0.3-102c0,0,150.6,98.7,172.7,121.3c48.6,49.7,48.5,100.5,48.5,100.5L502,702.2c0,0-7.8-57.7-44.3-95.1
	c-2.5-2.5-28.3-22.6-30.9-24.5C396,560.8,280.8,480.7,280.8,480.7z"/>
<linearGradient id="Path_7_00000178189038891719900180000013527171723574167943_" gradientUnits="userSpaceOnUse" x1="281.6" y1="358.75" x2="503.1" y2="358.75">
	<stop  offset="0.343" style="stop-color:#000C55"/>
	<stop  offset="0.509" style="stop-color:#004794"/>
	<stop  offset="0.5909" style="stop-color:#006094"/>
	<stop  offset="0.6614" style="stop-color:#0044AA"/>
	<stop  offset="0.7143" style="stop-color:#3F51FF"/>
	<stop  offset="0.7955" style="stop-color:#0060D4"/>
	<stop  offset="1" style="stop-color:#000000"/>
</linearGradient>
<path id="Path_7" style="opacity:0.8;fill:url(#Path_7_00000178189038891719900180000013527171723574167943_);stroke:#000000;stroke-width:33;stroke-miterlimit:10;enable-background:new    ;" d="
	M281.6,299l0.3-102c0,0,150.6,98.7,172.7,121.3c48.6,49.7,48.5,100.5,48.5,100.5l-0.3,101.7c0,0-7.8-57.7-44.3-95.1
	c-2.5-2.5-28.3-22.6-30.9-24.5C396.8,379,281.6,299,281.6,299z"/>
<linearGradient id="Path_14_00000042736594947769663990000003198122827722631090_" gradientUnits="userSpaceOnUse" x1="280" y1="821.9" x2="501.8" y2="821.9">
	<stop  offset="0.343" style="stop-color:#000C55"/>
	<stop  offset="0.509" style="stop-color:#004794"/>
	<stop  offset="0.5909" style="stop-color:#006094"/>
	<stop  offset="0.6614" style="stop-color:#0044AA"/>
	<stop  offset="0.7143" style="stop-color:#3F51FF"/>
	<stop  offset="0.7955" style="stop-color:#0060D4"/>
	<stop  offset="1" style="stop-color:#000000"/>
</linearGradient>
<path id="Path_14" style="opacity:0.8;fill:url(#Path_14_00000042736594947769663990000003198122827722631090_);stroke:#000000;stroke-width:33;stroke-miterlimit:10;enable-background:new    ;" d="
	M501.8,880.8l-0.1,102c0,0-150.8-97.5-173-119.9C280,813.6,280,762.7,280,762.7l0.1-101.7c0,0,7.9,57.6,44.6,94.7
	c2.5,2.5,28.3,22.4,31,24.3C386.5,801.7,501.8,880.8,501.8,880.8z"/>
<path id="Path_3_1_" class="st5" d="M639,835.1l73.4,51.1l91.5-63.3l0.1-102L639,835.1z"/>
<linearGradient id="Path_4_00000052070593933978177870000005337355809211516034_" gradientUnits="userSpaceOnUse" x1="582.1" y1="661.95" x2="803.9" y2="661.95">
	<stop  offset="0.343" style="stop-color:#000C55"/>
	<stop  offset="0.509" style="stop-color:#004794"/>
	<stop  offset="0.5909" style="stop-color:#006094"/>
	<stop  offset="0.6614" style="stop-color:#0044AA"/>
	<stop  offset="0.7143" style="stop-color:#3F51FF"/>
	<stop  offset="0.7955" style="stop-color:#0060D4"/>
	<stop  offset="1" style="stop-color:#000000"/>
</linearGradient>
<path id="Path_4_1_" style="opacity:0.1;fill:url(#Path_4_00000052070593933978177870000005337355809211516034_);stroke:#000000;stroke-width:33;stroke-miterlimit:10;enable-background:new    ;" d="
	M803.9,720.8l-0.1,102c0,0-150.8-97.5-173-119.9c-48.8-49.3-48.7-100.1-48.7-100.1l0.1-101.7c0,0,7.9,57.6,44.6,94.7
	c2.5,2.5,28.3,22.4,31,24.3C688.6,641.6,803.9,720.8,803.9,720.8z"/>
<path id="Path_5_1_" class="st5" d="M747.8,389.5l-73.3-51.7l-91.6,62.5l-0.3,102L747.8,389.5z"/>
<linearGradient id="Path_6_00000109746384894186841020000015303077454248106645_" gradientUnits="userSpaceOnUse" x1="582.6" y1="562.25" x2="804.1" y2="562.25">
	<stop  offset="0.343" style="stop-color:#000C55"/>
	<stop  offset="0.509" style="stop-color:#004794"/>
	<stop  offset="0.5909" style="stop-color:#006094"/>
	<stop  offset="0.6614" style="stop-color:#0044AA"/>
	<stop  offset="0.7143" style="stop-color:#3F51FF"/>
	<stop  offset="0.7955" style="stop-color:#0060D4"/>
	<stop  offset="1" style="stop-color:#000000"/>
</linearGradient>
<path id="Path_6_1_" style="opacity:0.1;fill:url(#Path_6_00000109746384894186841020000015303077454248106645_);stroke:#000000;stroke-width:33;stroke-miterlimit:10;enable-background:new    ;" d="
	M582.6,502.5l0.3-102c0,0,150.6,98.7,172.7,121.3c48.6,49.7,48.5,100.5,48.5,100.5L803.8,724c0,0-7.8-57.7-44.3-95.1
	c-2.5-2.5-28.3-22.6-30.9-24.5C697.8,582.5,582.6,502.5,582.6,502.5z"/>
<linearGradient id="Path_7_00000063618194321466239870000008195196172530747284_" gradientUnits="userSpaceOnUse" x1="583.4" y1="380.45" x2="804.9" y2="380.45">
	<stop  offset="0.343" style="stop-color:#000C55"/>
	<stop  offset="0.509" style="stop-color:#004794"/>
	<stop  offset="0.5909" style="stop-color:#006094"/>
	<stop  offset="0.6614" style="stop-color:#0044AA"/>
	<stop  offset="0.7143" style="stop-color:#3F51FF"/>
	<stop  offset="0.7955" style="stop-color:#0060D4"/>
	<stop  offset="1" style="stop-color:#000000"/>
</linearGradient>
<path id="Path_7_1_" style="opacity:0.8;fill:url(#Path_7_00000063618194321466239870000008195196172530747284_);stroke:#000000;stroke-width:33;stroke-miterlimit:10;enable-background:new    ;" d="
	M583.4,320.7l0.3-102c0,0,150.6,98.7,172.7,121.3c48.6,49.7,48.5,100.5,48.5,100.5l-0.3,101.7c0,0-7.8-57.7-44.3-95.1
	c-2.5-2.5-28.3-22.6-30.9-24.5C698.5,400.8,583.4,320.7,583.4,320.7z"/>
<linearGradient id="Path_14_00000155852632607637412070000017393307435946821811_" gradientUnits="userSpaceOnUse" x1="581.8" y1="843.75" x2="803.6" y2="843.75">
	<stop  offset="0.343" style="stop-color:#000C55"/>
	<stop  offset="0.509" style="stop-color:#004794"/>
	<stop  offset="0.5909" style="stop-color:#006094"/>
	<stop  offset="0.6614" style="stop-color:#0044AA"/>
	<stop  offset="0.7143" style="stop-color:#3F51FF"/>
	<stop  offset="0.7955" style="stop-color:#0060D4"/>
	<stop  offset="1" style="stop-color:#000000"/>
</linearGradient>
<path id="Path_14_1_" style="opacity:0.8;fill:url(#Path_14_00000155852632607637412070000017393307435946821811_);stroke:#000000;stroke-width:33;stroke-miterlimit:10;enable-background:new    ;" d="
	M803.6,902.6l-0.1,102c0,0-150.8-97.5-173-119.9c-48.8-49.3-48.7-100.1-48.7-100.1l0.1-101.7c0,0,7.9,57.6,44.6,94.7
	c2.5,2.5,28.3,22.4,31,24.3C688.2,823.4,803.6,902.6,803.6,902.6z"/>
<path id="Path_3_2_" class="st5" d="M961.9,835.1l73.4,51.1l91.5-63.3l0.1-102L961.9,835.1z"/>
<linearGradient id="Path_4_00000016780223607013481120000008603551751190403974_" gradientUnits="userSpaceOnUse" x1="905" y1="661.9" x2="1126.8" y2="661.9">
	<stop  offset="0.343" style="stop-color:#000C55"/>
	<stop  offset="0.509" style="stop-color:#004794"/>
	<stop  offset="0.5909" style="stop-color:#006094"/>
	<stop  offset="0.6614" style="stop-color:#0044AA"/>
	<stop  offset="0.7143" style="stop-color:#3F51FF"/>
	<stop  offset="0.7955" style="stop-color:#0060D4"/>
	<stop  offset="1" style="stop-color:#000000"/>
</linearGradient>
<path id="Path_4_2_" style="opacity:0.1;fill:url(#Path_4_00000016780223607013481120000008603551751190403974_);stroke:#000000;stroke-width:33;stroke-miterlimit:10;enable-background:new    ;" d="
	M1126.8,720.8l-0.1,102c0,0-150.8-97.5-173-119.9C904.9,653.5,905,602.7,905,602.7V501c0,0,7.9,57.6,44.6,94.7
	c2.5,2.5,28.3,22.4,31,24.3C1011.4,641.6,1126.8,720.8,1126.8,720.8z"/>
<path id="Path_5_2_" class="st5" d="M1070.6,389.5l-73.3-51.7l-91.6,62.5l-0.3,102L1070.6,389.5z"/>
<linearGradient id="Path_6_00000156589487723583186200000018308141864738545291_" gradientUnits="userSpaceOnUse" x1="905.4" y1="562.25" x2="1126.9" y2="562.25">
	<stop  offset="0.343" style="stop-color:#000C55"/>
	<stop  offset="0.509" style="stop-color:#004794"/>
	<stop  offset="0.5909" style="stop-color:#006094"/>
	<stop  offset="0.6614" style="stop-color:#0044AA"/>
	<stop  offset="0.7143" style="stop-color:#3F51FF"/>
	<stop  offset="0.7955" style="stop-color:#0060D4"/>
	<stop  offset="1" style="stop-color:#000000"/>
</linearGradient>
<path id="Path_6_2_" style="opacity:0.1;fill:url(#Path_6_00000156589487723583186200000018308141864738545291_);stroke:#000000;stroke-width:33;stroke-miterlimit:10;enable-background:new    ;" d="
	M905.4,502.5l0.3-102c0,0,150.6,98.7,172.7,121.3c48.6,49.7,48.5,100.5,48.5,100.5l-0.3,101.7c0,0-7.8-57.7-44.3-95.1
	c-2.5-2.5-28.3-22.6-30.9-24.5C1020.6,582.5,905.4,502.5,905.4,502.5z"/>
<linearGradient id="Path_7_00000058575148314960804260000003717847085747209104_" gradientUnits="userSpaceOnUse" x1="906.2" y1="380.45" x2="1127.7" y2="380.45">
	<stop  offset="0.343" style="stop-color:#000C55"/>
	<stop  offset="0.509" style="stop-color:#004794"/>
	<stop  offset="0.5909" style="stop-color:#006094"/>
	<stop  offset="0.6614" style="stop-color:#0044AA"/>
	<stop  offset="0.7143" style="stop-color:#3F51FF"/>
	<stop  offset="0.7955" style="stop-color:#0060D4"/>
	<stop  offset="1" style="stop-color:#000000"/>
</linearGradient>
<path id="Path_7_2_" style="opacity:0.8;fill:url(#Path_7_00000058575148314960804260000003717847085747209104_);stroke:#000000;stroke-width:33;stroke-miterlimit:10;enable-background:new    ;" d="
	M906.2,320.7l0.3-102c0,0,150.6,98.7,172.7,121.3c48.6,49.7,48.5,100.5,48.5,100.5l-0.3,101.7c0,0-7.8-57.7-44.3-95.1
	c-2.5-2.5-28.3-22.6-30.9-24.5C1021.4,400.8,906.2,320.7,906.2,320.7z"/>
<path id="Path_14_2_" class="st13" d="M1126.5,902.6l-0.1,102c0,0-150.8-97.5-173-119.9c-48.8-49.3-48.7-100.1-48.7-100.1l0.1-101.7
	c0,0,7.9,57.6,44.6,94.7c2.5,2.5,28.3,22.4,31,24.3C1011.1,823.4,1126.5,902.6,1126.5,902.6z"/>
<path id="Path_3_3_" class="st5" d="M1283.2,835.5l73.4,51.1l91.5-63.3l0.1-102L1283.2,835.5z"/>
<linearGradient id="Path_4_00000105417028526858012350000012326651024024011181_" gradientUnits="userSpaceOnUse" x1="1226.3" y1="662.35" x2="1448.1" y2="662.35">
	<stop  offset="0.343" style="stop-color:#000C55"/>
	<stop  offset="0.509" style="stop-color:#004794"/>
	<stop  offset="0.5909" style="stop-color:#006094"/>
	<stop  offset="0.6614" style="stop-color:#0044AA"/>
	<stop  offset="0.7143" style="stop-color:#3F51FF"/>
	<stop  offset="0.7955" style="stop-color:#0060D4"/>
	<stop  offset="1" style="stop-color:#000000"/>
</linearGradient>
<path id="Path_4_3_" style="opacity:0.1;fill:url(#Path_4_00000105417028526858012350000012326651024024011181_);stroke:#000000;stroke-width:33;stroke-miterlimit:10;enable-background:new    ;" d="
	M1448.1,721.2l-0.1,102c0,0-150.8-97.5-173-119.9c-48.8-49.3-48.7-100.1-48.7-100.1l0.1-101.7c0,0,7.9,57.6,44.6,94.7
	c2.5,2.5,28.3,22.4,31,24.3C1332.7,642,1448.1,721.2,1448.1,721.2z"/>
<path id="Path_5_3_" class="st5" d="M1391.9,389.8l-73.3-51.7l-91.6,62.5l-0.3,102L1391.9,389.8z"/>
<linearGradient id="Path_6_00000085955112348862436250000013802072582627043473_" gradientUnits="userSpaceOnUse" x1="1226.7" y1="562.65" x2="1448.2" y2="562.65">
	<stop  offset="0.343" style="stop-color:#000C55"/>
	<stop  offset="0.509" style="stop-color:#004794"/>
	<stop  offset="0.5909" style="stop-color:#006094"/>
	<stop  offset="0.6614" style="stop-color:#0044AA"/>
	<stop  offset="0.7143" style="stop-color:#3F51FF"/>
	<stop  offset="0.7955" style="stop-color:#0060D4"/>
	<stop  offset="1" style="stop-color:#000000"/>
</linearGradient>
<path id="Path_6_3_" style="opacity:0.1;fill:url(#Path_6_00000085955112348862436250000013802072582627043473_);stroke:#000000;stroke-width:33;stroke-miterlimit:10;enable-background:new    ;" d="
	M1226.7,502.9l0.3-102c0,0,150.6,98.7,172.7,121.3c48.6,49.7,48.5,100.5,48.5,100.5l-0.3,101.7c0,0-7.8-57.7-44.3-95.1
	c-2.5-2.5-28.3-22.6-30.9-24.5C1341.9,582.9,1226.7,502.9,1226.7,502.9z"/>
<linearGradient id="Path_7_00000179622440926102801320000018252372507037891504_" gradientUnits="userSpaceOnUse" x1="1227.5" y1="380.85" x2="1449" y2="380.85">
	<stop  offset="0.343" style="stop-color:#000C55"/>
	<stop  offset="0.509" style="stop-color:#004794"/>
	<stop  offset="0.5909" style="stop-color:#006094"/>
	<stop  offset="0.6614" style="stop-color:#0044AA"/>
	<stop  offset="0.7143" style="stop-color:#3F51FF"/>
	<stop  offset="0.7955" style="stop-color:#0060D4"/>
	<stop  offset="1" style="stop-color:#000000"/>
</linearGradient>
<path id="Path_7_3_" style="opacity:0.8;fill:url(#Path_7_00000179622440926102801320000018252372507037891504_);stroke:#000000;stroke-width:33;stroke-miterlimit:10;enable-background:new    ;" d="
	M1227.5,321.1l0.3-102c0,0,150.6,98.7,172.7,121.3c48.6,49.7,48.5,100.5,48.5,100.5l-0.3,101.7c0,0-7.8-57.7-44.3-95.1
	c-2.5-2.5-28.3-22.6-30.9-24.5C1342.7,401.2,1227.5,321.1,1227.5,321.1z"/>
<linearGradient id="Path_14_00000104705099214989793160000006992223263466313609_" gradientUnits="userSpaceOnUse" x1="1225.9" y1="844.05" x2="1447.7" y2="844.05">
	<stop  offset="0.343" style="stop-color:#000C55"/>
	<stop  offset="0.509" style="stop-color:#004794"/>
	<stop  offset="0.5909" style="stop-color:#006094"/>
	<stop  offset="0.6614" style="stop-color:#0044AA"/>
	<stop  offset="0.7143" style="stop-color:#3F51FF"/>
	<stop  offset="0.7955" style="stop-color:#0060D4"/>
	<stop  offset="1" style="stop-color:#000000"/>
</linearGradient>
<path id="Path_14_3_" style="opacity:0.8;fill:url(#Path_14_00000104705099214989793160000006992223263466313609_);stroke:#000000;stroke-width:33;stroke-miterlimit:10;enable-background:new    ;" d="
	M1447.7,902.9l-0.1,102c0,0-150.8-97.5-173-119.9c-48.8-49.3-48.7-100.1-48.7-100.1l0.1-101.7c0,0,7.9,57.6,44.6,94.7
	c2.5,2.5,28.3,22.4,31,24.3C1332.4,823.8,1447.7,902.9,1447.7,902.9z"/>
<path id="Path_3_4_" class="st0" d="M1586,835.5l73.4,51.1l91.5-63.3l0.1-102L1586,835.5z"/>
<linearGradient id="Path_4_00000032609379486141824360000002208528720210888888_" gradientUnits="userSpaceOnUse" x1="1529.2001" y1="662.35" x2="1751" y2="662.35">
	<stop  offset="0.343" style="stop-color:#000C55"/>
	<stop  offset="0.509" style="stop-color:#004794"/>
	<stop  offset="0.5909" style="stop-color:#006094"/>
	<stop  offset="0.6614" style="stop-color:#0044AA"/>
	<stop  offset="0.7143" style="stop-color:#3F51FF"/>
	<stop  offset="0.7955" style="stop-color:#0060D4"/>
	<stop  offset="1" style="stop-color:#000000"/>
</linearGradient>
<path id="Path_4_4_" style="opacity:0.8;fill:url(#Path_4_00000032609379486141824360000002208528720210888888_);stroke:#000000;stroke-width:33;stroke-miterlimit:10;enable-background:new    ;" d="
	M1751,721.2l-0.1,102c0,0-150.8-97.5-173-119.9c-48.8-49.3-48.7-100.1-48.7-100.1l0.1-101.7c0,0,7.9,57.6,44.6,94.7
	c2.5,2.5,28.3,22.4,31,24.3C1635.6,642,1751,721.2,1751,721.2z"/>
<path id="Path_5_4_" class="st0" d="M1694.8,389.8l-73.3-51.7l-91.6,62.5l-0.3,102L1694.8,389.8z"/>
<linearGradient id="Path_6_00000088104323979495594690000015897442720027328435_" gradientUnits="userSpaceOnUse" x1="1529.6" y1="562.65" x2="1751.1" y2="562.65">
	<stop  offset="0.343" style="stop-color:#000C55"/>
	<stop  offset="0.509" style="stop-color:#004794"/>
	<stop  offset="0.5909" style="stop-color:#006094"/>
	<stop  offset="0.6614" style="stop-color:#0044AA"/>
	<stop  offset="0.7143" style="stop-color:#3F51FF"/>
	<stop  offset="0.7955" style="stop-color:#0060D4"/>
	<stop  offset="1" style="stop-color:#000000"/>
</linearGradient>
<path id="Path_6_4_" style="opacity:0.8;fill:url(#Path_6_00000088104323979495594690000015897442720027328435_);stroke:#000000;stroke-width:33;stroke-miterlimit:10;enable-background:new    ;" d="
	M1529.6,502.9l0.3-102c0,0,150.6,98.7,172.7,121.3c48.6,49.7,48.5,100.5,48.5,100.5l-0.3,101.7c0,0-7.8-57.7-44.3-95.1
	c-2.5-2.5-28.3-22.6-30.9-24.5C1644.8,582.9,1529.6,502.9,1529.6,502.9z"/>
<linearGradient id="Path_7_00000026842034601447176910000008263737902531550871_" gradientUnits="userSpaceOnUse" x1="1530.4" y1="380.85" x2="1751.9" y2="380.85">
	<stop  offset="0.343" style="stop-color:#000C55"/>
	<stop  offset="0.509" style="stop-color:#004794"/>
	<stop  offset="0.5909" style="stop-color:#006094"/>
	<stop  offset="0.6614" style="stop-color:#0044AA"/>
	<stop  offset="0.7143" style="stop-color:#3F51FF"/>
	<stop  offset="0.7955" style="stop-color:#0060D4"/>
	<stop  offset="1" style="stop-color:#000000"/>
</linearGradient>
<path id="Path_7_4_" style="opacity:0.8;fill:url(#Path_7_00000026842034601447176910000008263737902531550871_);stroke:#000000;stroke-width:33;stroke-miterlimit:10;enable-background:new    ;" d="
	M1530.4,321.1l0.3-102c0,0,150.6,98.7,172.7,121.3c48.6,49.7,48.5,100.5,48.5,100.5l-0.3,101.7c0,0-7.8-57.7-44.3-95.1
	c-2.5-2.5-28.3-22.6-30.9-24.5C1645.6,401.2,1530.4,321.1,1530.4,321.1z"/>
<linearGradient id="Path_14_00000052802355929546052780000006925993610240373172_" gradientUnits="userSpaceOnUse" x1="1528.8" y1="844.05" x2="1750.6" y2="844.05">
	<stop  offset="0.343" style="stop-color:#000C55"/>
	<stop  offset="0.509" style="stop-color:#004794"/>
	<stop  offset="0.5909" style="stop-color:#006094"/>
	<stop  offset="0.6614" style="stop-color:#0044AA"/>
	<stop  offset="0.7143" style="stop-color:#3F51FF"/>
	<stop  offset="0.7955" style="stop-color:#0060D4"/>
	<stop  offset="1" style="stop-color:#000000"/>
</linearGradient>
<path id="Path_14_4_" style="opacity:0.8;fill:url(#Path_14_00000052802355929546052780000006925993610240373172_);stroke:#000000;stroke-width:33;stroke-miterlimit:10;enable-background:new    ;" d="
	M1750.6,902.9l-0.1,102c0,0-150.8-97.5-173-119.9c-48.8-49.3-48.7-100.1-48.7-100.1l0.1-101.7c0,0,7.9,57.6,44.6,94.7
	c2.5,2.5,28.3,22.4,31,24.3C1635.3,823.8,1750.6,902.9,1750.6,902.9z"/>
<text transform="matrix(1 0 0 1 656.5416 595.2626)"><tspan x="0" y="0" class="st22 st23 st24">Hello my name is Kate,</tspan><tspan x="-37.5" y="71" class="st25 st26 st27">UX Designer</tspan><tspan x="231.5" y="71" class="st22 st23 st27">,  Questioner &amp; Thinker</tspan></text>
</svg>
