<?xml version="1.0" encoding="utf-8"?>
<!-- Generator: Adobe Illustrator 26.2.1, SVG Export Plug-In . SVG Version: 6.00 Build 0)  -->
<svg version="1.1" id="Layer_1" xmlns="http://www.w3.org/2000/svg" xmlns:xlink="http://www.w3.org/1999/xlink" x="0px" y="0px"
	 viewBox="0 0 2000 1080" style="enable-background:new 0 0 2000 1080;" xml:space="preserve">
<style type="text/css">
	.st0{opacity:0.63;stroke:#000000;stroke-width:33;stroke-miterlimit:10;enable-background:new    ;}
	
		.st1{opacity:0.8;fill:url(#Path_4_00000093883994897051347230000001897803958498896304_);stroke:#000000;stroke-width:33;stroke-miterlimit:10;enable-background:new    ;}
	
		.st2{opacity:0.8;fill:url(#Path_6_00000127014885615687317440000011416974517166098614_);stroke:#000000;stroke-width:33;stroke-miterlimit:10;enable-background:new    ;}
	
		.st3{opacity:0.8;fill:url(#Path_7_00000049906314576904183350000016563735214240440250_);stroke:#000000;stroke-width:33;stroke-miterlimit:10;enable-background:new    ;}
	
		.st4{opacity:0.8;fill:url(#Path_14_00000094596537918863331670000005444115319942403510_);stroke:#000000;stroke-width:33;stroke-miterlimit:10;enable-background:new    ;}
	.st5{opacity:0.5;stroke:#000000;stroke-width:33;stroke-miterlimit:10;enable-background:new    ;}
	
		.st6{opacity:0.1;fill:url(#Path_4_00000069388847936057661660000003377204655668477879_);stroke:#000000;stroke-width:33;stroke-miterlimit:10;enable-background:new    ;}
	
		.st7{opacity:0.1;fill:url(#Path_6_00000034049786140097817500000009642612050370172861_);stroke:#000000;stroke-width:33;stroke-miterlimit:10;enable-background:new    ;}
	
		.st8{opacity:0.8;fill:url(#Path_7_00000049217500483508225500000007288270607105698495_);stroke:#000000;stroke-width:33;stroke-miterlimit:10;enable-background:new    ;}
	
		.st9{opacity:0.8;fill:url(#Path_14_00000142870352497119341760000005566157944141470375_);stroke:#000000;stroke-width:33;stroke-miterlimit:10;enable-background:new    ;}
	
		.st10{opacity:0.1;fill:url(#Path_4_00000007425736831177979360000017532938652537733016_);stroke:#000000;stroke-width:33;stroke-miterlimit:10;enable-background:new    ;}
	
		.st11{opacity:0.1;fill:url(#Path_6_00000023255399577844218870000006951443604699202747_);stroke:#000000;stroke-width:33;stroke-miterlimit:10;enable-background:new    ;}
	
		.st12{opacity:0.8;fill:url(#Path_7_00000152247862115297694490000003340270211008430778_);stroke:#000000;stroke-width:33;stroke-miterlimit:10;enable-background:new    ;}
	.st13{opacity:0.8;fill:#006094;stroke:#000000;stroke-width:33;stroke-miterlimit:10;enable-background:new    ;}
	
		.st14{opacity:0.1;fill:url(#Path_4_00000072979656727129895430000000472422541151199385_);stroke:#000000;stroke-width:33;stroke-miterlimit:10;enable-background:new    ;}
	
		.st15{opacity:0.1;fill:url(#Path_6_00000168090830007193212600000007232044425970310297_);stroke:#000000;stroke-width:33;stroke-miterlimit:10;enable-background:new    ;}
	
		.st16{opacity:0.8;fill:url(#Path_7_00000058549384438452580060000014043096859858378625_);stroke:#000000;stroke-width:33;stroke-miterlimit:10;enable-background:new    ;}
	
		.st17{opacity:0.8;fill:url(#Path_14_00000042731208884148924020000010475481231498427064_);stroke:#000000;stroke-width:33;stroke-miterlimit:10;enable-background:new    ;}
	
		.st18{opacity:0.8;fill:url(#Path_4_00000005253832489734978370000010328481188621203390_);stroke:#000000;stroke-width:33;stroke-miterlimit:10;enable-background:new    ;}
	
		.st19{opacity:0.8;fill:url(#Path_6_00000010312545760570491030000010780747179048092043_);stroke:#000000;stroke-width:33;stroke-miterlimit:10;enable-background:new    ;}
	
		.st20{opacity:0.8;fill:url(#Path_7_00000180367194630495536230000002692387897825571996_);stroke:#000000;stroke-width:33;stroke-miterlimit:10;enable-background:new    ;}
	
		.st21{opacity:0.8;fill:url(#Path_14_00000106129173883439541930000012335647649311105206_);stroke:#000000;stroke-width:33;stroke-miterlimit:10;enable-background:new    ;}
	.st22{fill:#FFFFFF;}
	.st23{font-family:'SofiaPro-SemiBold';}
	.st24{font-size:68px;}
	.st25{font-family:'SofiaPro-Bold';}
	.st26{font-size:44px;}
</style>
<g>
	<path id="Path_2" d="M1874.5,1080.4h-1721V0.4h1721"/>
	<path id="Path_3" class="st0" d="M337.2,813.4l73.4,51.1l91.5-63.3l0.1-102L337.2,813.4z"/>
	
		<linearGradient id="Path_4_00000043430628155758786830000009947516802845051040_" gradientUnits="userSpaceOnUse" x1="280.3" y1="640.15" x2="502.2" y2="640.15">
		<stop  offset="0.343" style="stop-color:#000C55"/>
		<stop  offset="0.509" style="stop-color:#004794"/>
		<stop  offset="0.5909" style="stop-color:#006094"/>
		<stop  offset="0.6614" style="stop-color:#0044AA"/>
		<stop  offset="0.7143" style="stop-color:#3F51FF"/>
		<stop  offset="0.7955" style="stop-color:#0060D4"/>
		<stop  offset="1" style="stop-color:#000000"/>
	</linearGradient>
	
		<path id="Path_4" style="opacity:0.8;fill:url(#Path_4_00000043430628155758786830000009947516802845051040_);stroke:#000000;stroke-width:33;stroke-miterlimit:10;enable-background:new    ;" d="
		M502.2,699l-0.1,102c0,0-150.8-97.5-173-119.9C280.3,631.8,280.3,581,280.3,581l0.1-101.7c0,0,7.9,57.6,44.6,94.7
		c2.5,2.5,28.3,22.4,31,24.3C386.8,619.9,502.2,699,502.2,699z"/>
	<path id="Path_5" class="st0" d="M446,367.7L372.7,316l-91.6,62.5l-0.3,102L446,367.7z"/>
	
		<linearGradient id="Path_6_00000046312927836717566890000007081014138350669967_" gradientUnits="userSpaceOnUse" x1="280.8" y1="540.45" x2="502.3" y2="540.45">
		<stop  offset="0.343" style="stop-color:#000C55"/>
		<stop  offset="0.509" style="stop-color:#004794"/>
		<stop  offset="0.5909" style="stop-color:#006094"/>
		<stop  offset="0.6614" style="stop-color:#0044AA"/>
		<stop  offset="0.7143" style="stop-color:#3F51FF"/>
		<stop  offset="0.7955" style="stop-color:#0060D4"/>
		<stop  offset="1" style="stop-color:#000000"/>
	</linearGradient>
	
		<path id="Path_6" style="opacity:0.8;fill:url(#Path_6_00000046312927836717566890000007081014138350669967_);stroke:#000000;stroke-width:33;stroke-miterlimit:10;enable-background:new    ;" d="
		M280.8,480.7l0.3-102c0,0,150.6,98.7,172.7,121.3c48.6,49.7,48.5,100.5,48.5,100.5L502,702.2c0,0-7.8-57.7-44.3-95.1
		c-2.5-2.5-28.3-22.6-30.9-24.5C396,560.8,280.8,480.7,280.8,480.7z"/>
	
		<linearGradient id="Path_7_00000048491704260137104900000008548576659429191089_" gradientUnits="userSpaceOnUse" x1="281.6" y1="358.75" x2="503.1" y2="358.75">
		<stop  offset="0.343" style="stop-color:#000C55"/>
		<stop  offset="0.509" style="stop-color:#004794"/>
		<stop  offset="0.5909" style="stop-color:#006094"/>
		<stop  offset="0.6614" style="stop-color:#0044AA"/>
		<stop  offset="0.7143" style="stop-color:#3F51FF"/>
		<stop  offset="0.7955" style="stop-color:#0060D4"/>
		<stop  offset="1" style="stop-color:#000000"/>
	</linearGradient>
	
		<path id="Path_7" style="opacity:0.8;fill:url(#Path_7_00000048491704260137104900000008548576659429191089_);stroke:#000000;stroke-width:33;stroke-miterlimit:10;enable-background:new    ;" d="
		M281.6,299l0.3-102c0,0,150.6,98.7,172.7,121.3c48.6,49.7,48.5,100.5,48.5,100.5l-0.3,101.7c0,0-7.8-57.7-44.3-95.1
		c-2.5-2.5-28.3-22.6-30.9-24.5C396.8,379,281.6,299,281.6,299z"/>
	
		<linearGradient id="Path_14_00000062170712615569137440000004392263919447078074_" gradientUnits="userSpaceOnUse" x1="280" y1="821.9" x2="501.8" y2="821.9">
		<stop  offset="0.343" style="stop-color:#000C55"/>
		<stop  offset="0.509" style="stop-color:#004794"/>
		<stop  offset="0.5909" style="stop-color:#006094"/>
		<stop  offset="0.6614" style="stop-color:#0044AA"/>
		<stop  offset="0.7143" style="stop-color:#3F51FF"/>
		<stop  offset="0.7955" style="stop-color:#0060D4"/>
		<stop  offset="1" style="stop-color:#000000"/>
	</linearGradient>
	
		<path id="Path_14" style="opacity:0.8;fill:url(#Path_14_00000062170712615569137440000004392263919447078074_);stroke:#000000;stroke-width:33;stroke-miterlimit:10;enable-background:new    ;" d="
		M501.8,880.8l-0.1,102c0,0-150.8-97.5-173-119.9C280,813.6,280,762.7,280,762.7l0.1-101.7c0,0,7.9,57.6,44.6,94.7
		c2.5,2.5,28.3,22.4,31,24.3C386.5,801.7,501.8,880.8,501.8,880.8z"/>
	<path id="Path_3_1_" class="st5" d="M639,835.1l73.4,51.1l91.5-63.3l0.1-102L639,835.1z"/>
	
		<linearGradient id="Path_4_00000112617568658730666910000015064973143877252538_" gradientUnits="userSpaceOnUse" x1="582.1" y1="661.95" x2="803.9" y2="661.95">
		<stop  offset="0.343" style="stop-color:#000C55"/>
		<stop  offset="0.509" style="stop-color:#004794"/>
		<stop  offset="0.5909" style="stop-color:#006094"/>
		<stop  offset="0.6614" style="stop-color:#0044AA"/>
		<stop  offset="0.7143" style="stop-color:#3F51FF"/>
		<stop  offset="0.7955" style="stop-color:#0060D4"/>
		<stop  offset="1" style="stop-color:#000000"/>
	</linearGradient>
	
		<path id="Path_4_1_" style="opacity:0.1;fill:url(#Path_4_00000112617568658730666910000015064973143877252538_);stroke:#000000;stroke-width:33;stroke-miterlimit:10;enable-background:new    ;" d="
		M803.9,720.8l-0.1,102c0,0-150.8-97.5-173-119.9c-48.8-49.3-48.7-100.1-48.7-100.1l0.1-101.7c0,0,7.9,57.6,44.6,94.7
		c2.5,2.5,28.3,22.4,31,24.3C688.6,641.6,803.9,720.8,803.9,720.8z"/>
	<path id="Path_5_1_" class="st5" d="M747.8,389.5l-73.3-51.7l-91.6,62.5l-0.3,102L747.8,389.5z"/>
	
		<linearGradient id="Path_6_00000158747651207977675990000014069525158857850756_" gradientUnits="userSpaceOnUse" x1="582.6" y1="562.25" x2="804.1" y2="562.25">
		<stop  offset="0.343" style="stop-color:#000C55"/>
		<stop  offset="0.509" style="stop-color:#004794"/>
		<stop  offset="0.5909" style="stop-color:#006094"/>
		<stop  offset="0.6614" style="stop-color:#0044AA"/>
		<stop  offset="0.7143" style="stop-color:#3F51FF"/>
		<stop  offset="0.7955" style="stop-color:#0060D4"/>
		<stop  offset="1" style="stop-color:#000000"/>
	</linearGradient>
	
		<path id="Path_6_1_" style="opacity:0.1;fill:url(#Path_6_00000158747651207977675990000014069525158857850756_);stroke:#000000;stroke-width:33;stroke-miterlimit:10;enable-background:new    ;" d="
		M582.6,502.5l0.3-102c0,0,150.6,98.7,172.7,121.3c48.6,49.7,48.5,100.5,48.5,100.5L803.8,724c0,0-7.8-57.7-44.3-95.1
		c-2.5-2.5-28.3-22.6-30.9-24.5C697.8,582.5,582.6,502.5,582.6,502.5z"/>
	
		<linearGradient id="Path_7_00000048474730151301823270000008747842020631383231_" gradientUnits="userSpaceOnUse" x1="583.4" y1="380.45" x2="804.9" y2="380.45">
		<stop  offset="0.343" style="stop-color:#000C55"/>
		<stop  offset="0.509" style="stop-color:#004794"/>
		<stop  offset="0.5909" style="stop-color:#006094"/>
		<stop  offset="0.6614" style="stop-color:#0044AA"/>
		<stop  offset="0.7143" style="stop-color:#3F51FF"/>
		<stop  offset="0.7955" style="stop-color:#0060D4"/>
		<stop  offset="1" style="stop-color:#000000"/>
	</linearGradient>
	
		<path id="Path_7_1_" style="opacity:0.8;fill:url(#Path_7_00000048474730151301823270000008747842020631383231_);stroke:#000000;stroke-width:33;stroke-miterlimit:10;enable-background:new    ;" d="
		M583.4,320.7l0.3-102c0,0,150.6,98.7,172.7,121.3c48.6,49.7,48.5,100.5,48.5,100.5l-0.3,101.7c0,0-7.8-57.7-44.3-95.1
		c-2.5-2.5-28.3-22.6-30.9-24.5C698.5,400.8,583.4,320.7,583.4,320.7z"/>
	
		<linearGradient id="Path_14_00000083805025049974508010000004837447273897488795_" gradientUnits="userSpaceOnUse" x1="581.8" y1="843.75" x2="803.6" y2="843.75">
		<stop  offset="0.343" style="stop-color:#000C55"/>
		<stop  offset="0.509" style="stop-color:#004794"/>
		<stop  offset="0.5909" style="stop-color:#006094"/>
		<stop  offset="0.6614" style="stop-color:#0044AA"/>
		<stop  offset="0.7143" style="stop-color:#3F51FF"/>
		<stop  offset="0.7955" style="stop-color:#0060D4"/>
		<stop  offset="1" style="stop-color:#000000"/>
	</linearGradient>
	
		<path id="Path_14_1_" style="opacity:0.8;fill:url(#Path_14_00000083805025049974508010000004837447273897488795_);stroke:#000000;stroke-width:33;stroke-miterlimit:10;enable-background:new    ;" d="
		M803.6,902.6l-0.1,102c0,0-150.8-97.5-173-119.9c-48.8-49.3-48.7-100.1-48.7-100.1l0.1-101.7c0,0,7.9,57.6,44.6,94.7
		c2.5,2.5,28.3,22.4,31,24.3C688.2,823.4,803.6,902.6,803.6,902.6z"/>
	<path id="Path_3_2_" class="st5" d="M961.9,835.1l73.4,51.1l91.5-63.3l0.1-102L961.9,835.1z"/>
	
		<linearGradient id="Path_4_00000084515888398487952230000004037878389204349338_" gradientUnits="userSpaceOnUse" x1="905" y1="661.9" x2="1126.8" y2="661.9">
		<stop  offset="0.343" style="stop-color:#000C55"/>
		<stop  offset="0.509" style="stop-color:#004794"/>
		<stop  offset="0.5909" style="stop-color:#006094"/>
		<stop  offset="0.6614" style="stop-color:#0044AA"/>
		<stop  offset="0.7143" style="stop-color:#3F51FF"/>
		<stop  offset="0.7955" style="stop-color:#0060D4"/>
		<stop  offset="1" style="stop-color:#000000"/>
	</linearGradient>
	
		<path id="Path_4_2_" style="opacity:0.1;fill:url(#Path_4_00000084515888398487952230000004037878389204349338_);stroke:#000000;stroke-width:33;stroke-miterlimit:10;enable-background:new    ;" d="
		M1126.8,720.8l-0.1,102c0,0-150.8-97.5-173-119.9C904.9,653.5,905,602.7,905,602.7V501c0,0,7.9,57.6,44.6,94.7
		c2.5,2.5,28.3,22.4,31,24.3C1011.4,641.6,1126.8,720.8,1126.8,720.8z"/>
	<path id="Path_5_2_" class="st5" d="M1070.6,389.5l-73.3-51.7l-91.6,62.5l-0.3,102L1070.6,389.5z"/>
	
		<linearGradient id="Path_6_00000054969330595891765790000014104863444655762100_" gradientUnits="userSpaceOnUse" x1="905.4" y1="562.25" x2="1126.9" y2="562.25">
		<stop  offset="0.343" style="stop-color:#000C55"/>
		<stop  offset="0.509" style="stop-color:#004794"/>
		<stop  offset="0.5909" style="stop-color:#006094"/>
		<stop  offset="0.6614" style="stop-color:#0044AA"/>
		<stop  offset="0.7143" style="stop-color:#3F51FF"/>
		<stop  offset="0.7955" style="stop-color:#0060D4"/>
		<stop  offset="1" style="stop-color:#000000"/>
	</linearGradient>
	
		<path id="Path_6_2_" style="opacity:0.1;fill:url(#Path_6_00000054969330595891765790000014104863444655762100_);stroke:#000000;stroke-width:33;stroke-miterlimit:10;enable-background:new    ;" d="
		M905.4,502.5l0.3-102c0,0,150.6,98.7,172.7,121.3c48.6,49.7,48.5,100.5,48.5,100.5l-0.3,101.7c0,0-7.8-57.7-44.3-95.1
		c-2.5-2.5-28.3-22.6-30.9-24.5C1020.6,582.5,905.4,502.5,905.4,502.5z"/>
	
		<linearGradient id="Path_7_00000078035865154343319520000002240866607416771751_" gradientUnits="userSpaceOnUse" x1="906.2" y1="380.45" x2="1127.7" y2="380.45">
		<stop  offset="0.343" style="stop-color:#000C55"/>
		<stop  offset="0.509" style="stop-color:#004794"/>
		<stop  offset="0.5909" style="stop-color:#006094"/>
		<stop  offset="0.6614" style="stop-color:#0044AA"/>
		<stop  offset="0.7143" style="stop-color:#3F51FF"/>
		<stop  offset="0.7955" style="stop-color:#0060D4"/>
		<stop  offset="1" style="stop-color:#000000"/>
	</linearGradient>
	
		<path id="Path_7_2_" style="opacity:0.8;fill:url(#Path_7_00000078035865154343319520000002240866607416771751_);stroke:#000000;stroke-width:33;stroke-miterlimit:10;enable-background:new    ;" d="
		M906.2,320.7l0.3-102c0,0,150.6,98.7,172.7,121.3c48.6,49.7,48.5,100.5,48.5,100.5l-0.3,101.7c0,0-7.8-57.7-44.3-95.1
		c-2.5-2.5-28.3-22.6-30.9-24.5C1021.4,400.8,906.2,320.7,906.2,320.7z"/>
	<path id="Path_14_2_" class="st13" d="M1126.5,902.6l-0.1,102c0,0-150.8-97.5-173-119.9c-48.8-49.3-48.7-100.1-48.7-100.1
		l0.1-101.7c0,0,7.9,57.6,44.6,94.7c2.5,2.5,28.3,22.4,31,24.3C1011.1,823.4,1126.5,902.6,1126.5,902.6z"/>
	<path id="Path_3_3_" class="st5" d="M1283.2,835.5l73.4,51.1l91.5-63.3l0.1-102L1283.2,835.5z"/>
	
		<linearGradient id="Path_4_00000086677440041495742240000001546997368351693739_" gradientUnits="userSpaceOnUse" x1="1226.3" y1="662.35" x2="1448.1" y2="662.35">
		<stop  offset="0.343" style="stop-color:#000C55"/>
		<stop  offset="0.509" style="stop-color:#004794"/>
		<stop  offset="0.5909" style="stop-color:#006094"/>
		<stop  offset="0.6614" style="stop-color:#0044AA"/>
		<stop  offset="0.7143" style="stop-color:#3F51FF"/>
		<stop  offset="0.7955" style="stop-color:#0060D4"/>
		<stop  offset="1" style="stop-color:#000000"/>
	</linearGradient>
	
		<path id="Path_4_3_" style="opacity:0.1;fill:url(#Path_4_00000086677440041495742240000001546997368351693739_);stroke:#000000;stroke-width:33;stroke-miterlimit:10;enable-background:new    ;" d="
		M1448.1,721.2l-0.1,102c0,0-150.8-97.5-173-119.9c-48.8-49.3-48.7-100.1-48.7-100.1l0.1-101.7c0,0,7.9,57.6,44.6,94.7
		c2.5,2.5,28.3,22.4,31,24.3C1332.7,642,1448.1,721.2,1448.1,721.2z"/>
	<path id="Path_5_3_" class="st5" d="M1391.9,389.8l-73.3-51.7l-91.6,62.5l-0.3,102L1391.9,389.8z"/>
	
		<linearGradient id="Path_6_00000118363461012756028110000008239506938504795053_" gradientUnits="userSpaceOnUse" x1="1226.7" y1="562.65" x2="1448.2" y2="562.65">
		<stop  offset="0.343" style="stop-color:#000C55"/>
		<stop  offset="0.509" style="stop-color:#004794"/>
		<stop  offset="0.5909" style="stop-color:#006094"/>
		<stop  offset="0.6614" style="stop-color:#0044AA"/>
		<stop  offset="0.7143" style="stop-color:#3F51FF"/>
		<stop  offset="0.7955" style="stop-color:#0060D4"/>
		<stop  offset="1" style="stop-color:#000000"/>
	</linearGradient>
	
		<path id="Path_6_3_" style="opacity:0.1;fill:url(#Path_6_00000118363461012756028110000008239506938504795053_);stroke:#000000;stroke-width:33;stroke-miterlimit:10;enable-background:new    ;" d="
		M1226.7,502.9l0.3-102c0,0,150.6,98.7,172.7,121.3c48.6,49.7,48.5,100.5,48.5,100.5l-0.3,101.7c0,0-7.8-57.7-44.3-95.1
		c-2.5-2.5-28.3-22.6-30.9-24.5C1341.9,582.9,1226.7,502.9,1226.7,502.9z"/>
	
		<linearGradient id="Path_7_00000085213211883101654360000010626512190166545046_" gradientUnits="userSpaceOnUse" x1="1227.5" y1="380.85" x2="1449" y2="380.85">
		<stop  offset="0.343" style="stop-color:#000C55"/>
		<stop  offset="0.509" style="stop-color:#004794"/>
		<stop  offset="0.5909" style="stop-color:#006094"/>
		<stop  offset="0.6614" style="stop-color:#0044AA"/>
		<stop  offset="0.7143" style="stop-color:#3F51FF"/>
		<stop  offset="0.7955" style="stop-color:#0060D4"/>
		<stop  offset="1" style="stop-color:#000000"/>
	</linearGradient>
	
		<path id="Path_7_3_" style="opacity:0.8;fill:url(#Path_7_00000085213211883101654360000010626512190166545046_);stroke:#000000;stroke-width:33;stroke-miterlimit:10;enable-background:new    ;" d="
		M1227.5,321.1l0.3-102c0,0,150.6,98.7,172.7,121.3c48.6,49.7,48.5,100.5,48.5,100.5l-0.3,101.7c0,0-7.8-57.7-44.3-95.1
		c-2.5-2.5-28.3-22.6-30.9-24.5C1342.7,401.2,1227.5,321.1,1227.5,321.1z"/>
	
		<linearGradient id="Path_14_00000111910390161717651060000006930144658187557555_" gradientUnits="userSpaceOnUse" x1="1225.9" y1="844.05" x2="1447.7" y2="844.05">
		<stop  offset="0.343" style="stop-color:#000C55"/>
		<stop  offset="0.509" style="stop-color:#004794"/>
		<stop  offset="0.5909" style="stop-color:#006094"/>
		<stop  offset="0.6614" style="stop-color:#0044AA"/>
		<stop  offset="0.7143" style="stop-color:#3F51FF"/>
		<stop  offset="0.7955" style="stop-color:#0060D4"/>
		<stop  offset="1" style="stop-color:#000000"/>
	</linearGradient>
	
		<path id="Path_14_3_" style="opacity:0.8;fill:url(#Path_14_00000111910390161717651060000006930144658187557555_);stroke:#000000;stroke-width:33;stroke-miterlimit:10;enable-background:new    ;" d="
		M1447.7,902.9l-0.1,102c0,0-150.8-97.5-173-119.9c-48.8-49.3-48.7-100.1-48.7-100.1l0.1-101.7c0,0,7.9,57.6,44.6,94.7
		c2.5,2.5,28.3,22.4,31,24.3C1332.4,823.8,1447.7,902.9,1447.7,902.9z"/>
	<path id="Path_3_4_" class="st0" d="M1586,835.5l73.4,51.1l91.5-63.3l0.1-102L1586,835.5z"/>
	
		<linearGradient id="Path_4_00000051343688556359961370000012288498554081887628_" gradientUnits="userSpaceOnUse" x1="1529.2001" y1="662.35" x2="1751" y2="662.35">
		<stop  offset="0.343" style="stop-color:#000C55"/>
		<stop  offset="0.509" style="stop-color:#004794"/>
		<stop  offset="0.5909" style="stop-color:#006094"/>
		<stop  offset="0.6614" style="stop-color:#0044AA"/>
		<stop  offset="0.7143" style="stop-color:#3F51FF"/>
		<stop  offset="0.7955" style="stop-color:#0060D4"/>
		<stop  offset="1" style="stop-color:#000000"/>
	</linearGradient>
	
		<path id="Path_4_4_" style="opacity:0.8;fill:url(#Path_4_00000051343688556359961370000012288498554081887628_);stroke:#000000;stroke-width:33;stroke-miterlimit:10;enable-background:new    ;" d="
		M1751,721.2l-0.1,102c0,0-150.8-97.5-173-119.9c-48.8-49.3-48.7-100.1-48.7-100.1l0.1-101.7c0,0,7.9,57.6,44.6,94.7
		c2.5,2.5,28.3,22.4,31,24.3C1635.6,642,1751,721.2,1751,721.2z"/>
	<path id="Path_5_4_" class="st0" d="M1694.8,389.8l-73.3-51.7l-91.6,62.5l-0.3,102L1694.8,389.8z"/>
	
		<linearGradient id="Path_6_00000096754395051256734930000009443599126100982170_" gradientUnits="userSpaceOnUse" x1="1529.6" y1="562.65" x2="1751.1" y2="562.65">
		<stop  offset="0.343" style="stop-color:#000C55"/>
		<stop  offset="0.509" style="stop-color:#004794"/>
		<stop  offset="0.5909" style="stop-color:#006094"/>
		<stop  offset="0.6614" style="stop-color:#0044AA"/>
		<stop  offset="0.7143" style="stop-color:#3F51FF"/>
		<stop  offset="0.7955" style="stop-color:#0060D4"/>
		<stop  offset="1" style="stop-color:#000000"/>
	</linearGradient>
	
		<path id="Path_6_4_" style="opacity:0.8;fill:url(#Path_6_00000096754395051256734930000009443599126100982170_);stroke:#000000;stroke-width:33;stroke-miterlimit:10;enable-background:new    ;" d="
		M1529.6,502.9l0.3-102c0,0,150.6,98.7,172.7,121.3c48.6,49.7,48.5,100.5,48.5,100.5l-0.3,101.7c0,0-7.8-57.7-44.3-95.1
		c-2.5-2.5-28.3-22.6-30.9-24.5C1644.8,582.9,1529.6,502.9,1529.6,502.9z"/>
	
		<linearGradient id="Path_7_00000142854349656893927120000004701777242956434092_" gradientUnits="userSpaceOnUse" x1="1530.4" y1="380.85" x2="1751.9" y2="380.85">
		<stop  offset="0.343" style="stop-color:#000C55"/>
		<stop  offset="0.509" style="stop-color:#004794"/>
		<stop  offset="0.5909" style="stop-color:#006094"/>
		<stop  offset="0.6614" style="stop-color:#0044AA"/>
		<stop  offset="0.7143" style="stop-color:#3F51FF"/>
		<stop  offset="0.7955" style="stop-color:#0060D4"/>
		<stop  offset="1" style="stop-color:#000000"/>
	</linearGradient>
	
		<path id="Path_7_4_" style="opacity:0.8;fill:url(#Path_7_00000142854349656893927120000004701777242956434092_);stroke:#000000;stroke-width:33;stroke-miterlimit:10;enable-background:new    ;" d="
		M1530.4,321.1l0.3-102c0,0,150.6,98.7,172.7,121.3c48.6,49.7,48.5,100.5,48.5,100.5l-0.3,101.7c0,0-7.8-57.7-44.3-95.1
		c-2.5-2.5-28.3-22.6-30.9-24.5C1645.6,401.2,1530.4,321.1,1530.4,321.1z"/>
	
		<linearGradient id="Path_14_00000075843428735816359500000009977759043511497886_" gradientUnits="userSpaceOnUse" x1="1528.8" y1="844.05" x2="1750.6" y2="844.05">
		<stop  offset="0.343" style="stop-color:#000C55"/>
		<stop  offset="0.509" style="stop-color:#004794"/>
		<stop  offset="0.5909" style="stop-color:#006094"/>
		<stop  offset="0.6614" style="stop-color:#0044AA"/>
		<stop  offset="0.7143" style="stop-color:#3F51FF"/>
		<stop  offset="0.7955" style="stop-color:#0060D4"/>
		<stop  offset="1" style="stop-color:#000000"/>
	</linearGradient>
	
		<path id="Path_14_4_" style="opacity:0.8;fill:url(#Path_14_00000075843428735816359500000009977759043511497886_);stroke:#000000;stroke-width:33;stroke-miterlimit:10;enable-background:new    ;" d="
		M1750.6,902.9l-0.1,102c0,0-150.8-97.5-173-119.9c-48.8-49.3-48.7-100.1-48.7-100.1l0.1-101.7c0,0,7.9,57.6,44.6,94.7
		c2.5,2.5,28.3,22.4,31,24.3C1635.3,823.8,1750.6,902.9,1750.6,902.9z"/>
	<text transform="matrix(1 0 0 1 646.0694 608.2626)" class="st22 st23 st24">Hello My Name Is Kate,</text>
	<text transform="matrix(1 0 0 1 608.5694 682.1195)" class="st22 st25 st26">UX Designer</text>
	<text transform="matrix(1 0 0 1 877.5694 682.4056)" class="st22 st23 st26">,  Questioner and Thinker</text>
</g>
</svg>
