<?xml version="1.0" encoding="utf-8"?>
<!-- Generator: Adobe Illustrator 26.2.1, SVG Export Plug-In . SVG Version: 6.00 Build 0)  -->
<svg version="1.1" id="Layer_1" xmlns="http://www.w3.org/2000/svg" xmlns:xlink="http://www.w3.org/1999/xlink" x="0px" y="0px"
	 viewBox="0 0 2000 1080" style="enable-background:new 0 0 2000 1080;" xml:space="preserve">
<style type="text/css">
	.st0{opacity:0.63;stroke:#000000;stroke-width:33;stroke-miterlimit:10;enable-background:new    ;}
	
		.st1{opacity:0.8;fill:url(#Path_4_00000132066322188179481260000017190393362743861143_);stroke:#000000;stroke-width:33;stroke-miterlimit:10;enable-background:new    ;}
	
		.st2{opacity:0.8;fill:url(#Path_6_00000097483540275860746870000001052528182634004146_);stroke:#000000;stroke-width:33;stroke-miterlimit:10;enable-background:new    ;}
	
		.st3{opacity:0.8;fill:url(#Path_7_00000029014576195939624180000004161409429284772795_);stroke:#000000;stroke-width:33;stroke-miterlimit:10;enable-background:new    ;}
	
		.st4{opacity:0.8;fill:url(#Path_14_00000077323751653910212270000006858767737708424583_);stroke:#000000;stroke-width:33;stroke-miterlimit:10;enable-background:new    ;}
	.st5{opacity:0.5;stroke:#000000;stroke-width:33;stroke-miterlimit:10;enable-background:new    ;}
	
		.st6{opacity:0.1;fill:url(#Path_4_00000182517693804740078720000010690099889317889965_);stroke:#000000;stroke-width:33;stroke-miterlimit:10;enable-background:new    ;}
	
		.st7{opacity:0.1;fill:url(#Path_6_00000047742696918126019240000008620142737616855984_);stroke:#000000;stroke-width:33;stroke-miterlimit:10;enable-background:new    ;}
	
		.st8{opacity:0.8;fill:url(#Path_7_00000093887144385175434510000004569017946188737964_);stroke:#000000;stroke-width:33;stroke-miterlimit:10;enable-background:new    ;}
	
		.st9{opacity:0.8;fill:url(#Path_14_00000054245451785106092640000008918547216042958004_);stroke:#000000;stroke-width:33;stroke-miterlimit:10;enable-background:new    ;}
	
		.st10{opacity:0.1;fill:url(#Path_4_00000058587978773015883670000009335319896295518136_);stroke:#000000;stroke-width:33;stroke-miterlimit:10;enable-background:new    ;}
	
		.st11{opacity:0.1;fill:url(#Path_6_00000131326486569946266800000008914725702743216264_);stroke:#000000;stroke-width:33;stroke-miterlimit:10;enable-background:new    ;}
	
		.st12{opacity:0.8;fill:url(#Path_7_00000053525324496474407200000017312601247534601387_);stroke:#000000;stroke-width:33;stroke-miterlimit:10;enable-background:new    ;}
	.st13{opacity:0.8;fill:#006094;stroke:#000000;stroke-width:33;stroke-miterlimit:10;enable-background:new    ;}
	
		.st14{opacity:0.1;fill:url(#Path_4_00000165943404439767988120000001328242484374664624_);stroke:#000000;stroke-width:33;stroke-miterlimit:10;enable-background:new    ;}
	
		.st15{opacity:0.1;fill:url(#Path_6_00000075849513460703683900000011208404235819625372_);stroke:#000000;stroke-width:33;stroke-miterlimit:10;enable-background:new    ;}
	
		.st16{opacity:0.8;fill:url(#Path_7_00000031889236561842166520000000969598005323220375_);stroke:#000000;stroke-width:33;stroke-miterlimit:10;enable-background:new    ;}
	
		.st17{opacity:0.8;fill:url(#Path_14_00000028307770935831046410000001377002086361929101_);stroke:#000000;stroke-width:33;stroke-miterlimit:10;enable-background:new    ;}
	
		.st18{opacity:0.8;fill:url(#Path_4_00000000903621817912945420000009809563465996138686_);stroke:#000000;stroke-width:33;stroke-miterlimit:10;enable-background:new    ;}
	
		.st19{opacity:0.8;fill:url(#Path_6_00000035530081795190220810000015420179093916944312_);stroke:#000000;stroke-width:33;stroke-miterlimit:10;enable-background:new    ;}
	
		.st20{opacity:0.8;fill:url(#Path_7_00000018196762602502977020000003550536212348243622_);stroke:#000000;stroke-width:33;stroke-miterlimit:10;enable-background:new    ;}
	
		.st21{opacity:0.8;fill:url(#Path_14_00000145774301802491514870000009407546237904650880_);stroke:#000000;stroke-width:33;stroke-miterlimit:10;enable-background:new    ;}
	.st22{fill:#FFFFFF;}
	.st23{font-family:'SofiaPro-SemiBold';}
	.st24{font-size:68px;}
	.st25{font-family:'SofiaPro-Bold';}
	.st26{font-size:47px;}
</style>
<path id="Path_2" d="M1874.5,1080.4h-1721V0.4h1721"/>
<path id="Path_3" class="st0" d="M337.2,813.4l73.4,51.1l91.5-63.3l0.1-102L337.2,813.4z"/>
<linearGradient id="Path_4_00000056401407889099048890000005663161815861385654_" gradientUnits="userSpaceOnUse" x1="280.3" y1="439.85" x2="502.2" y2="439.85" gradientTransform="matrix(1 0 0 -1 0 1080)">
	<stop  offset="0.343" style="stop-color:#000C55"/>
	<stop  offset="0.509" style="stop-color:#004794"/>
	<stop  offset="0.5909" style="stop-color:#006094"/>
	<stop  offset="0.6614" style="stop-color:#0044AA"/>
	<stop  offset="0.7143" style="stop-color:#3F51FF"/>
	<stop  offset="0.7955" style="stop-color:#0060D4"/>
	<stop  offset="1" style="stop-color:#000000"/>
</linearGradient>
<path id="Path_4" style="opacity:0.8;fill:url(#Path_4_00000056401407889099048890000005663161815861385654_);stroke:#000000;stroke-width:33;stroke-miterlimit:10;enable-background:new    ;" d="
	M502.2,699l-0.1,102c0,0-150.8-97.5-173-119.9C280.3,631.8,280.3,581,280.3,581l0.1-101.7c0,0,7.9,57.6,44.6,94.7
	c2.5,2.5,28.3,22.4,31,24.3C386.8,619.9,502.2,699,502.2,699z"/>
<path id="Path_5" class="st0" d="M446,367.7L372.7,316l-91.6,62.5l-0.3,102L446,367.7z"/>
<linearGradient id="Path_6_00000013897129397555773240000000961811935542299834_" gradientUnits="userSpaceOnUse" x1="280.8" y1="539.55" x2="502.3" y2="539.55" gradientTransform="matrix(1 0 0 -1 0 1080)">
	<stop  offset="0.343" style="stop-color:#000C55"/>
	<stop  offset="0.509" style="stop-color:#004794"/>
	<stop  offset="0.5909" style="stop-color:#006094"/>
	<stop  offset="0.6614" style="stop-color:#0044AA"/>
	<stop  offset="0.7143" style="stop-color:#3F51FF"/>
	<stop  offset="0.7955" style="stop-color:#0060D4"/>
	<stop  offset="1" style="stop-color:#000000"/>
</linearGradient>
<path id="Path_6" style="opacity:0.8;fill:url(#Path_6_00000013897129397555773240000000961811935542299834_);stroke:#000000;stroke-width:33;stroke-miterlimit:10;enable-background:new    ;" d="
	M280.8,480.7l0.3-102c0,0,150.6,98.7,172.7,121.3c48.6,49.7,48.5,100.5,48.5,100.5L502,702.2c0,0-7.8-57.7-44.3-95.1
	c-2.5-2.5-28.3-22.6-30.9-24.5C396,560.8,280.8,480.7,280.8,480.7z"/>
<linearGradient id="Path_7_00000023278067521178841530000007117119272606187693_" gradientUnits="userSpaceOnUse" x1="281.6" y1="721.25" x2="503.1" y2="721.25" gradientTransform="matrix(1 0 0 -1 0 1080)">
	<stop  offset="0.343" style="stop-color:#000C55"/>
	<stop  offset="0.509" style="stop-color:#004794"/>
	<stop  offset="0.5909" style="stop-color:#006094"/>
	<stop  offset="0.6614" style="stop-color:#0044AA"/>
	<stop  offset="0.7143" style="stop-color:#3F51FF"/>
	<stop  offset="0.7955" style="stop-color:#0060D4"/>
	<stop  offset="1" style="stop-color:#000000"/>
</linearGradient>
<path id="Path_7" style="opacity:0.8;fill:url(#Path_7_00000023278067521178841530000007117119272606187693_);stroke:#000000;stroke-width:33;stroke-miterlimit:10;enable-background:new    ;" d="
	M281.6,299l0.3-102c0,0,150.6,98.7,172.7,121.3c48.6,49.7,48.5,100.5,48.5,100.5l-0.3,101.7c0,0-7.8-57.7-44.3-95.1
	c-2.5-2.5-28.3-22.6-30.9-24.5C396.8,379,281.6,299,281.6,299z"/>
<linearGradient id="Path_14_00000079473328712835711180000008432364015426777527_" gradientUnits="userSpaceOnUse" x1="280" y1="258.1" x2="501.8" y2="258.1" gradientTransform="matrix(1 0 0 -1 0 1080)">
	<stop  offset="0.343" style="stop-color:#000C55"/>
	<stop  offset="0.509" style="stop-color:#004794"/>
	<stop  offset="0.5909" style="stop-color:#006094"/>
	<stop  offset="0.6614" style="stop-color:#0044AA"/>
	<stop  offset="0.7143" style="stop-color:#3F51FF"/>
	<stop  offset="0.7955" style="stop-color:#0060D4"/>
	<stop  offset="1" style="stop-color:#000000"/>
</linearGradient>
<path id="Path_14" style="opacity:0.8;fill:url(#Path_14_00000079473328712835711180000008432364015426777527_);stroke:#000000;stroke-width:33;stroke-miterlimit:10;enable-background:new    ;" d="
	M501.8,880.8l-0.1,102c0,0-150.8-97.5-173-119.9C280,813.6,280,762.7,280,762.7l0.1-101.7c0,0,7.9,57.6,44.6,94.7
	c2.5,2.5,28.3,22.4,31,24.3C386.5,801.7,501.8,880.8,501.8,880.8z"/>
<path id="Path_3_1_" class="st5" d="M639,835.1l73.4,51.1l91.5-63.3l0.1-102L639,835.1z"/>
<linearGradient id="Path_4_00000026122565005103106260000011946404446069179831_" gradientUnits="userSpaceOnUse" x1="582.1" y1="418.05" x2="803.9" y2="418.05" gradientTransform="matrix(1 0 0 -1 0 1080)">
	<stop  offset="0.343" style="stop-color:#000C55"/>
	<stop  offset="0.509" style="stop-color:#004794"/>
	<stop  offset="0.5909" style="stop-color:#006094"/>
	<stop  offset="0.6614" style="stop-color:#0044AA"/>
	<stop  offset="0.7143" style="stop-color:#3F51FF"/>
	<stop  offset="0.7955" style="stop-color:#0060D4"/>
	<stop  offset="1" style="stop-color:#000000"/>
</linearGradient>
<path id="Path_4_1_" style="opacity:0.1;fill:url(#Path_4_00000026122565005103106260000011946404446069179831_);stroke:#000000;stroke-width:33;stroke-miterlimit:10;enable-background:new    ;" d="
	M803.9,720.8l-0.1,102c0,0-150.8-97.5-173-119.9c-48.8-49.3-48.7-100.1-48.7-100.1l0.1-101.7c0,0,7.9,57.6,44.6,94.7
	c2.5,2.5,28.3,22.4,31,24.3C688.6,641.6,803.9,720.8,803.9,720.8z"/>
<path id="Path_5_1_" class="st5" d="M747.8,389.5l-73.3-51.7l-91.6,62.5l-0.3,102L747.8,389.5z"/>
<linearGradient id="Path_6_00000144335193269606149340000013336171344713733822_" gradientUnits="userSpaceOnUse" x1="582.6" y1="517.75" x2="804.1" y2="517.75" gradientTransform="matrix(1 0 0 -1 0 1080)">
	<stop  offset="0.343" style="stop-color:#000C55"/>
	<stop  offset="0.509" style="stop-color:#004794"/>
	<stop  offset="0.5909" style="stop-color:#006094"/>
	<stop  offset="0.6614" style="stop-color:#0044AA"/>
	<stop  offset="0.7143" style="stop-color:#3F51FF"/>
	<stop  offset="0.7955" style="stop-color:#0060D4"/>
	<stop  offset="1" style="stop-color:#000000"/>
</linearGradient>
<path id="Path_6_1_" style="opacity:0.1;fill:url(#Path_6_00000144335193269606149340000013336171344713733822_);stroke:#000000;stroke-width:33;stroke-miterlimit:10;enable-background:new    ;" d="
	M582.6,502.5l0.3-102c0,0,150.6,98.7,172.7,121.3c48.6,49.7,48.5,100.5,48.5,100.5L803.8,724c0,0-7.8-57.7-44.3-95.1
	c-2.5-2.5-28.3-22.6-30.9-24.5C697.8,582.5,582.6,502.5,582.6,502.5z"/>
<linearGradient id="Path_7_00000137824986013060165290000005143593533663947920_" gradientUnits="userSpaceOnUse" x1="583.4" y1="699.55" x2="804.9" y2="699.55" gradientTransform="matrix(1 0 0 -1 0 1080)">
	<stop  offset="0.343" style="stop-color:#000C55"/>
	<stop  offset="0.509" style="stop-color:#004794"/>
	<stop  offset="0.5909" style="stop-color:#006094"/>
	<stop  offset="0.6614" style="stop-color:#0044AA"/>
	<stop  offset="0.7143" style="stop-color:#3F51FF"/>
	<stop  offset="0.7955" style="stop-color:#0060D4"/>
	<stop  offset="1" style="stop-color:#000000"/>
</linearGradient>
<path id="Path_7_1_" style="opacity:0.8;fill:url(#Path_7_00000137824986013060165290000005143593533663947920_);stroke:#000000;stroke-width:33;stroke-miterlimit:10;enable-background:new    ;" d="
	M583.4,320.7l0.3-102c0,0,150.6,98.7,172.7,121.3c48.6,49.7,48.5,100.5,48.5,100.5l-0.3,101.7c0,0-7.8-57.7-44.3-95.1
	c-2.5-2.5-28.3-22.6-30.9-24.5C698.5,400.8,583.4,320.7,583.4,320.7z"/>
<linearGradient id="Path_14_00000021084096972358079260000004178302808666476721_" gradientUnits="userSpaceOnUse" x1="581.8" y1="236.25" x2="803.6" y2="236.25" gradientTransform="matrix(1 0 0 -1 0 1080)">
	<stop  offset="0.343" style="stop-color:#000C55"/>
	<stop  offset="0.509" style="stop-color:#004794"/>
	<stop  offset="0.5909" style="stop-color:#006094"/>
	<stop  offset="0.6614" style="stop-color:#0044AA"/>
	<stop  offset="0.7143" style="stop-color:#3F51FF"/>
	<stop  offset="0.7955" style="stop-color:#0060D4"/>
	<stop  offset="1" style="stop-color:#000000"/>
</linearGradient>
<path id="Path_14_1_" style="opacity:0.8;fill:url(#Path_14_00000021084096972358079260000004178302808666476721_);stroke:#000000;stroke-width:33;stroke-miterlimit:10;enable-background:new    ;" d="
	M803.6,902.6l-0.1,102c0,0-150.8-97.5-173-119.9c-48.8-49.3-48.7-100.1-48.7-100.1l0.1-101.7c0,0,7.9,57.6,44.6,94.7
	c2.5,2.5,28.3,22.4,31,24.3C688.2,823.4,803.6,902.6,803.6,902.6z"/>
<path id="Path_3_2_" class="st5" d="M961.9,835.1l73.4,51.1l91.5-63.3l0.1-102L961.9,835.1z"/>
<linearGradient id="Path_4_00000153673857859180706950000003426642334124546190_" gradientUnits="userSpaceOnUse" x1="905" y1="418.1" x2="1126.8" y2="418.1" gradientTransform="matrix(1 0 0 -1 0 1080)">
	<stop  offset="0.343" style="stop-color:#000C55"/>
	<stop  offset="0.509" style="stop-color:#004794"/>
	<stop  offset="0.5909" style="stop-color:#006094"/>
	<stop  offset="0.6614" style="stop-color:#0044AA"/>
	<stop  offset="0.7143" style="stop-color:#3F51FF"/>
	<stop  offset="0.7955" style="stop-color:#0060D4"/>
	<stop  offset="1" style="stop-color:#000000"/>
</linearGradient>
<path id="Path_4_2_" style="opacity:0.1;fill:url(#Path_4_00000153673857859180706950000003426642334124546190_);stroke:#000000;stroke-width:33;stroke-miterlimit:10;enable-background:new    ;" d="
	M1126.8,720.8l-0.1,102c0,0-150.8-97.5-173-119.9C904.9,653.5,905,602.7,905,602.7V501c0,0,7.9,57.6,44.6,94.7
	c2.5,2.5,28.3,22.4,31,24.3C1011.4,641.6,1126.8,720.8,1126.8,720.8z"/>
<path id="Path_5_2_" class="st5" d="M1070.6,389.5l-73.3-51.7l-91.6,62.5l-0.3,102L1070.6,389.5z"/>
<linearGradient id="Path_6_00000013907415790398863840000012802085255740645305_" gradientUnits="userSpaceOnUse" x1="905.4" y1="517.75" x2="1126.9" y2="517.75" gradientTransform="matrix(1 0 0 -1 0 1080)">
	<stop  offset="0.343" style="stop-color:#000C55"/>
	<stop  offset="0.509" style="stop-color:#004794"/>
	<stop  offset="0.5909" style="stop-color:#006094"/>
	<stop  offset="0.6614" style="stop-color:#0044AA"/>
	<stop  offset="0.7143" style="stop-color:#3F51FF"/>
	<stop  offset="0.7955" style="stop-color:#0060D4"/>
	<stop  offset="1" style="stop-color:#000000"/>
</linearGradient>
<path id="Path_6_2_" style="opacity:0.1;fill:url(#Path_6_00000013907415790398863840000012802085255740645305_);stroke:#000000;stroke-width:33;stroke-miterlimit:10;enable-background:new    ;" d="
	M905.4,502.5l0.3-102c0,0,150.6,98.7,172.7,121.3c48.6,49.7,48.5,100.5,48.5,100.5l-0.3,101.7c0,0-7.8-57.7-44.3-95.1
	c-2.5-2.5-28.3-22.6-30.9-24.5C1020.6,582.5,905.4,502.5,905.4,502.5z"/>
<linearGradient id="Path_7_00000106854651476080511750000003230227855358299785_" gradientUnits="userSpaceOnUse" x1="906.2" y1="699.55" x2="1127.7" y2="699.55" gradientTransform="matrix(1 0 0 -1 0 1080)">
	<stop  offset="0.343" style="stop-color:#000C55"/>
	<stop  offset="0.509" style="stop-color:#004794"/>
	<stop  offset="0.5909" style="stop-color:#006094"/>
	<stop  offset="0.6614" style="stop-color:#0044AA"/>
	<stop  offset="0.7143" style="stop-color:#3F51FF"/>
	<stop  offset="0.7955" style="stop-color:#0060D4"/>
	<stop  offset="1" style="stop-color:#000000"/>
</linearGradient>
<path id="Path_7_2_" style="opacity:0.8;fill:url(#Path_7_00000106854651476080511750000003230227855358299785_);stroke:#000000;stroke-width:33;stroke-miterlimit:10;enable-background:new    ;" d="
	M906.2,320.7l0.3-102c0,0,150.6,98.7,172.7,121.3c48.6,49.7,48.5,100.5,48.5,100.5l-0.3,101.7c0,0-7.8-57.7-44.3-95.1
	c-2.5-2.5-28.3-22.6-30.9-24.5C1021.4,400.8,906.2,320.7,906.2,320.7z"/>
<path id="Path_14_2_" class="st13" d="M1126.5,902.6l-0.1,102c0,0-150.8-97.5-173-119.9c-48.8-49.3-48.7-100.1-48.7-100.1l0.1-101.7
	c0,0,7.9,57.6,44.6,94.7c2.5,2.5,28.3,22.4,31,24.3C1011.1,823.4,1126.5,902.6,1126.5,902.6z"/>
<path id="Path_3_3_" class="st5" d="M1283.2,835.5l73.4,51.1l91.5-63.3l0.1-102L1283.2,835.5z"/>
<linearGradient id="Path_4_00000024720695779455797160000009404864048535231132_" gradientUnits="userSpaceOnUse" x1="1226.3" y1="417.65" x2="1448.1" y2="417.65" gradientTransform="matrix(1 0 0 -1 0 1080)">
	<stop  offset="0.343" style="stop-color:#000C55"/>
	<stop  offset="0.509" style="stop-color:#004794"/>
	<stop  offset="0.5909" style="stop-color:#006094"/>
	<stop  offset="0.6614" style="stop-color:#0044AA"/>
	<stop  offset="0.7143" style="stop-color:#3F51FF"/>
	<stop  offset="0.7955" style="stop-color:#0060D4"/>
	<stop  offset="1" style="stop-color:#000000"/>
</linearGradient>
<path id="Path_4_3_" style="opacity:0.1;fill:url(#Path_4_00000024720695779455797160000009404864048535231132_);stroke:#000000;stroke-width:33;stroke-miterlimit:10;enable-background:new    ;" d="
	M1448.1,721.2l-0.1,102c0,0-150.8-97.5-173-119.9c-48.8-49.3-48.7-100.1-48.7-100.1l0.1-101.7c0,0,7.9,57.6,44.6,94.7
	c2.5,2.5,28.3,22.4,31,24.3C1332.7,642,1448.1,721.2,1448.1,721.2z"/>
<path id="Path_5_3_" class="st5" d="M1391.9,389.8l-73.3-51.7l-91.6,62.5l-0.3,102L1391.9,389.8z"/>
<linearGradient id="Path_6_00000178927084665203088930000000824717276798120596_" gradientUnits="userSpaceOnUse" x1="1226.7" y1="517.35" x2="1448.2" y2="517.35" gradientTransform="matrix(1 0 0 -1 0 1080)">
	<stop  offset="0.343" style="stop-color:#000C55"/>
	<stop  offset="0.509" style="stop-color:#004794"/>
	<stop  offset="0.5909" style="stop-color:#006094"/>
	<stop  offset="0.6614" style="stop-color:#0044AA"/>
	<stop  offset="0.7143" style="stop-color:#3F51FF"/>
	<stop  offset="0.7955" style="stop-color:#0060D4"/>
	<stop  offset="1" style="stop-color:#000000"/>
</linearGradient>
<path id="Path_6_3_" style="opacity:0.1;fill:url(#Path_6_00000178927084665203088930000000824717276798120596_);stroke:#000000;stroke-width:33;stroke-miterlimit:10;enable-background:new    ;" d="
	M1226.7,502.9l0.3-102c0,0,150.6,98.7,172.7,121.3c48.6,49.7,48.5,100.5,48.5,100.5l-0.3,101.7c0,0-7.8-57.7-44.3-95.1
	c-2.5-2.5-28.3-22.6-30.9-24.5C1341.9,582.9,1226.7,502.9,1226.7,502.9z"/>
<linearGradient id="Path_7_00000074436118805886638730000006850406203438396818_" gradientUnits="userSpaceOnUse" x1="1227.5" y1="699.15" x2="1449" y2="699.15" gradientTransform="matrix(1 0 0 -1 0 1080)">
	<stop  offset="0.343" style="stop-color:#000C55"/>
	<stop  offset="0.509" style="stop-color:#004794"/>
	<stop  offset="0.5909" style="stop-color:#006094"/>
	<stop  offset="0.6614" style="stop-color:#0044AA"/>
	<stop  offset="0.7143" style="stop-color:#3F51FF"/>
	<stop  offset="0.7955" style="stop-color:#0060D4"/>
	<stop  offset="1" style="stop-color:#000000"/>
</linearGradient>
<path id="Path_7_3_" style="opacity:0.8;fill:url(#Path_7_00000074436118805886638730000006850406203438396818_);stroke:#000000;stroke-width:33;stroke-miterlimit:10;enable-background:new    ;" d="
	M1227.5,321.1l0.3-102c0,0,150.6,98.7,172.7,121.3c48.6,49.7,48.5,100.5,48.5,100.5l-0.3,101.7c0,0-7.8-57.7-44.3-95.1
	c-2.5-2.5-28.3-22.6-30.9-24.5C1342.7,401.2,1227.5,321.1,1227.5,321.1z"/>
<linearGradient id="Path_14_00000053531623381777394950000017000346048536154256_" gradientUnits="userSpaceOnUse" x1="1225.9" y1="235.95" x2="1447.7" y2="235.95" gradientTransform="matrix(1 0 0 -1 0 1080)">
	<stop  offset="0.343" style="stop-color:#000C55"/>
	<stop  offset="0.509" style="stop-color:#004794"/>
	<stop  offset="0.5909" style="stop-color:#006094"/>
	<stop  offset="0.6614" style="stop-color:#0044AA"/>
	<stop  offset="0.7143" style="stop-color:#3F51FF"/>
	<stop  offset="0.7955" style="stop-color:#0060D4"/>
	<stop  offset="1" style="stop-color:#000000"/>
</linearGradient>
<path id="Path_14_3_" style="opacity:0.8;fill:url(#Path_14_00000053531623381777394950000017000346048536154256_);stroke:#000000;stroke-width:33;stroke-miterlimit:10;enable-background:new    ;" d="
	M1447.7,902.9l-0.1,102c0,0-150.8-97.5-173-119.9c-48.8-49.3-48.7-100.1-48.7-100.1l0.1-101.7c0,0,7.9,57.6,44.6,94.7
	c2.5,2.5,28.3,22.4,31,24.3C1332.4,823.8,1447.7,902.9,1447.7,902.9z"/>
<path id="Path_3_4_" class="st0" d="M1586,835.5l73.4,51.1l91.5-63.3l0.1-102L1586,835.5z"/>
<linearGradient id="Path_4_00000173870437019152290600000005802233271570040458_" gradientUnits="userSpaceOnUse" x1="1529.2001" y1="417.65" x2="1751" y2="417.65" gradientTransform="matrix(1 0 0 -1 0 1080)">
	<stop  offset="0.343" style="stop-color:#000C55"/>
	<stop  offset="0.509" style="stop-color:#004794"/>
	<stop  offset="0.5909" style="stop-color:#006094"/>
	<stop  offset="0.6614" style="stop-color:#0044AA"/>
	<stop  offset="0.7143" style="stop-color:#3F51FF"/>
	<stop  offset="0.7955" style="stop-color:#0060D4"/>
	<stop  offset="1" style="stop-color:#000000"/>
</linearGradient>
<path id="Path_4_4_" style="opacity:0.8;fill:url(#Path_4_00000173870437019152290600000005802233271570040458_);stroke:#000000;stroke-width:33;stroke-miterlimit:10;enable-background:new    ;" d="
	M1751,721.2l-0.1,102c0,0-150.8-97.5-173-119.9c-48.8-49.3-48.7-100.1-48.7-100.1l0.1-101.7c0,0,7.9,57.6,44.6,94.7
	c2.5,2.5,28.3,22.4,31,24.3C1635.6,642,1751,721.2,1751,721.2z"/>
<path id="Path_5_4_" class="st0" d="M1694.8,389.8l-73.3-51.7l-91.6,62.5l-0.3,102L1694.8,389.8z"/>
<linearGradient id="Path_6_00000058565931313691325960000015859561926490920600_" gradientUnits="userSpaceOnUse" x1="1529.6" y1="517.35" x2="1751.1" y2="517.35" gradientTransform="matrix(1 0 0 -1 0 1080)">
	<stop  offset="0.343" style="stop-color:#000C55"/>
	<stop  offset="0.509" style="stop-color:#004794"/>
	<stop  offset="0.5909" style="stop-color:#006094"/>
	<stop  offset="0.6614" style="stop-color:#0044AA"/>
	<stop  offset="0.7143" style="stop-color:#3F51FF"/>
	<stop  offset="0.7955" style="stop-color:#0060D4"/>
	<stop  offset="1" style="stop-color:#000000"/>
</linearGradient>
<path id="Path_6_4_" style="opacity:0.8;fill:url(#Path_6_00000058565931313691325960000015859561926490920600_);stroke:#000000;stroke-width:33;stroke-miterlimit:10;enable-background:new    ;" d="
	M1529.6,502.9l0.3-102c0,0,150.6,98.7,172.7,121.3c48.6,49.7,48.5,100.5,48.5,100.5l-0.3,101.7c0,0-7.8-57.7-44.3-95.1
	c-2.5-2.5-28.3-22.6-30.9-24.5C1644.8,582.9,1529.6,502.9,1529.6,502.9z"/>
<linearGradient id="Path_7_00000136407509626797646740000004319902542028032927_" gradientUnits="userSpaceOnUse" x1="1530.4" y1="699.15" x2="1751.9" y2="699.15" gradientTransform="matrix(1 0 0 -1 0 1080)">
	<stop  offset="0.343" style="stop-color:#000C55"/>
	<stop  offset="0.509" style="stop-color:#004794"/>
	<stop  offset="0.5909" style="stop-color:#006094"/>
	<stop  offset="0.6614" style="stop-color:#0044AA"/>
	<stop  offset="0.7143" style="stop-color:#3F51FF"/>
	<stop  offset="0.7955" style="stop-color:#0060D4"/>
	<stop  offset="1" style="stop-color:#000000"/>
</linearGradient>
<path id="Path_7_4_" style="opacity:0.8;fill:url(#Path_7_00000136407509626797646740000004319902542028032927_);stroke:#000000;stroke-width:33;stroke-miterlimit:10;enable-background:new    ;" d="
	M1530.4,321.1l0.3-102c0,0,150.6,98.7,172.7,121.3c48.6,49.7,48.5,100.5,48.5,100.5l-0.3,101.7c0,0-7.8-57.7-44.3-95.1
	c-2.5-2.5-28.3-22.6-30.9-24.5C1645.6,401.2,1530.4,321.1,1530.4,321.1z"/>
<linearGradient id="Path_14_00000121998134975747374580000008791537839759389866_" gradientUnits="userSpaceOnUse" x1="1528.8" y1="235.95" x2="1750.6" y2="235.95" gradientTransform="matrix(1 0 0 -1 0 1080)">
	<stop  offset="0.343" style="stop-color:#000C55"/>
	<stop  offset="0.509" style="stop-color:#004794"/>
	<stop  offset="0.5909" style="stop-color:#006094"/>
	<stop  offset="0.6614" style="stop-color:#0044AA"/>
	<stop  offset="0.7143" style="stop-color:#3F51FF"/>
	<stop  offset="0.7955" style="stop-color:#0060D4"/>
	<stop  offset="1" style="stop-color:#000000"/>
</linearGradient>
<path id="Path_14_4_" style="opacity:0.8;fill:url(#Path_14_00000121998134975747374580000008791537839759389866_);stroke:#000000;stroke-width:33;stroke-miterlimit:10;enable-background:new    ;" d="
	M1750.6,902.9l-0.1,102c0,0-150.8-97.5-173-119.9c-48.8-49.3-48.7-100.1-48.7-100.1l0.1-101.7c0,0,7.9,57.6,44.6,94.7
	c2.5,2.5,28.3,22.4,31,24.3C1635.3,823.8,1750.6,902.9,1750.6,902.9z"/>
<text transform="matrix(1 0 0 1 646.0694 595.2626)" class="st22 st23 st24">Hello My Name Is Kate,</text>
<text transform="matrix(1 0 0 1 608.5694 666.2626)" class="st22 st25 st26">UX Designer</text>
<text transform="matrix(1 0 0 1 877.5694 666.2626)" class="st22 st23 st26">,  Questioner and Thinker</text>
</svg>
