<?xml version="1.0" encoding="utf-8"?>
<!-- Generator: Adobe Illustrator 26.2.1, SVG Export Plug-In . SVG Version: 6.00 Build 0)  -->
<svg version="1.1" id="Layer_1" xmlns="http://www.w3.org/2000/svg" xmlns:xlink="http://www.w3.org/1999/xlink" x="0px" y="0px"
	 viewBox="0 0 2000 1080" style="enable-background:new 0 0 2000 1080;" xml:space="preserve">
<style type="text/css">
	.st0{opacity:0.63;stroke:#000000;stroke-width:33;stroke-miterlimit:10;enable-background:new    ;}
	
		.st1{opacity:0.8;fill:url(#Path_4_00000152942278413326223750000004132012571139854265_);stroke:#000000;stroke-width:33;stroke-miterlimit:10;enable-background:new    ;}
	
		.st2{opacity:0.8;fill:url(#Path_6_00000065793502792640248080000004359083377632241280_);stroke:#000000;stroke-width:33;stroke-miterlimit:10;enable-background:new    ;}
	
		.st3{opacity:0.8;fill:url(#Path_7_00000103952367161607693490000001906300753621287552_);stroke:#000000;stroke-width:33;stroke-miterlimit:10;enable-background:new    ;}
	
		.st4{opacity:0.8;fill:url(#Path_14_00000067937812501765645470000009340254147562094222_);stroke:#000000;stroke-width:33;stroke-miterlimit:10;enable-background:new    ;}
	.st5{opacity:0.5;stroke:#000000;stroke-width:33;stroke-miterlimit:10;enable-background:new    ;}
	
		.st6{opacity:0.1;fill:url(#Path_4_00000076572949145409873110000002863082537517663880_);stroke:#000000;stroke-width:33;stroke-miterlimit:10;enable-background:new    ;}
	
		.st7{opacity:0.1;fill:url(#Path_6_00000044872076317983535690000001288136169599933860_);stroke:#000000;stroke-width:33;stroke-miterlimit:10;enable-background:new    ;}
	
		.st8{opacity:0.8;fill:url(#Path_7_00000044151947555846898670000014582943753905095826_);stroke:#000000;stroke-width:33;stroke-miterlimit:10;enable-background:new    ;}
	
		.st9{opacity:0.8;fill:url(#Path_14_00000125590088643789421270000011954831386256814482_);stroke:#000000;stroke-width:33;stroke-miterlimit:10;enable-background:new    ;}
	
		.st10{opacity:0.1;fill:url(#Path_4_00000017501172168769639380000005055744293037577635_);stroke:#000000;stroke-width:33;stroke-miterlimit:10;enable-background:new    ;}
	
		.st11{opacity:0.1;fill:url(#Path_6_00000035514892559887961450000015820103334864980412_);stroke:#000000;stroke-width:33;stroke-miterlimit:10;enable-background:new    ;}
	
		.st12{opacity:0.8;fill:url(#Path_7_00000036938145774862401600000014954063211243654058_);stroke:#000000;stroke-width:33;stroke-miterlimit:10;enable-background:new    ;}
	
		.st13{opacity:0.8;fill:url(#Path_14_00000181775942212509318160000004137171417916683187_);stroke:#000000;stroke-width:33;stroke-miterlimit:10;enable-background:new    ;}
	
		.st14{opacity:0.1;fill:url(#Path_4_00000013881540956925119350000011387823181336222345_);stroke:#000000;stroke-width:33;stroke-miterlimit:10;enable-background:new    ;}
	
		.st15{opacity:0.1;fill:url(#Path_6_00000131341214533127753400000013750850825908406669_);stroke:#000000;stroke-width:33;stroke-miterlimit:10;enable-background:new    ;}
	
		.st16{opacity:0.8;fill:url(#Path_7_00000091000207572761306270000006714754049324344743_);stroke:#000000;stroke-width:33;stroke-miterlimit:10;enable-background:new    ;}
	
		.st17{opacity:0.8;fill:url(#Path_14_00000168822604504204829020000008119925489546016934_);stroke:#000000;stroke-width:33;stroke-miterlimit:10;enable-background:new    ;}
	
		.st18{opacity:0.8;fill:url(#Path_4_00000101820110119044229960000007497992383040725646_);stroke:#000000;stroke-width:33;stroke-miterlimit:10;enable-background:new    ;}
	
		.st19{opacity:0.8;fill:url(#Path_6_00000000211858829195131690000006383731461769310898_);stroke:#000000;stroke-width:33;stroke-miterlimit:10;enable-background:new    ;}
	
		.st20{opacity:0.8;fill:url(#Path_7_00000078741236388415061060000013386448195830068153_);stroke:#000000;stroke-width:33;stroke-miterlimit:10;enable-background:new    ;}
	
		.st21{opacity:0.8;fill:url(#Path_14_00000109013623848388527790000011812343509510056604_);stroke:#000000;stroke-width:33;stroke-miterlimit:10;enable-background:new    ;}
	.st22{fill:#FFFFFF;}
	.st23{font-family:'SofiaPro-SemiBold';}
	.st24{font-size:64px;}
	.st25{font-size:46px;}
</style>
<path id="Path_2" d="M1864,1080.4H143V0.4h1721"/>
<path id="Path_3" class="st0" d="M337.2,813.4l73.4,51.1l91.5-63.3l0.1-102L337.2,813.4z"/>
<linearGradient id="Path_4_00000086681917813926658890000014716172148620076175_" gradientUnits="userSpaceOnUse" x1="280.3" y1="640.15" x2="502.2" y2="640.15">
	<stop  offset="0.343" style="stop-color:#000C55"/>
	<stop  offset="0.509" style="stop-color:#004794"/>
	<stop  offset="0.5909" style="stop-color:#006094"/>
	<stop  offset="0.6614" style="stop-color:#0044AA"/>
	<stop  offset="0.7143" style="stop-color:#3F51FF"/>
	<stop  offset="0.7955" style="stop-color:#0060D4"/>
	<stop  offset="1" style="stop-color:#000000"/>
</linearGradient>
<path id="Path_4" style="opacity:0.8;fill:url(#Path_4_00000086681917813926658890000014716172148620076175_);stroke:#000000;stroke-width:33;stroke-miterlimit:10;enable-background:new    ;" d="
	M502.2,699l-0.1,102c0,0-150.8-97.5-173-119.9C280.3,631.8,280.3,581,280.3,581l0.1-101.7c0,0,7.9,57.6,44.6,94.7
	c2.5,2.5,28.3,22.4,31,24.3C386.8,619.9,502.2,699,502.2,699z"/>
<path id="Path_5" class="st0" d="M446,367.7L372.7,316l-91.6,62.5l-0.3,102L446,367.7z"/>
<linearGradient id="Path_6_00000088100545266210584850000007850973856636067739_" gradientUnits="userSpaceOnUse" x1="280.8" y1="540.45" x2="502.3" y2="540.45">
	<stop  offset="0.343" style="stop-color:#000C55"/>
	<stop  offset="0.509" style="stop-color:#004794"/>
	<stop  offset="0.5909" style="stop-color:#006094"/>
	<stop  offset="0.6614" style="stop-color:#0044AA"/>
	<stop  offset="0.7143" style="stop-color:#3F51FF"/>
	<stop  offset="0.7955" style="stop-color:#0060D4"/>
	<stop  offset="1" style="stop-color:#000000"/>
</linearGradient>
<path id="Path_6" style="opacity:0.8;fill:url(#Path_6_00000088100545266210584850000007850973856636067739_);stroke:#000000;stroke-width:33;stroke-miterlimit:10;enable-background:new    ;" d="
	M280.8,480.7l0.3-102c0,0,150.6,98.7,172.7,121.3c48.6,49.7,48.5,100.5,48.5,100.5L502,702.2c0,0-7.8-57.7-44.3-95.1
	c-2.5-2.5-28.3-22.6-30.9-24.5C396,560.8,280.8,480.7,280.8,480.7z"/>
<linearGradient id="Path_7_00000021821523250573703040000002422331639181738372_" gradientUnits="userSpaceOnUse" x1="281.6" y1="358.75" x2="503.1" y2="358.75">
	<stop  offset="0.343" style="stop-color:#000C55"/>
	<stop  offset="0.509" style="stop-color:#004794"/>
	<stop  offset="0.5909" style="stop-color:#006094"/>
	<stop  offset="0.6614" style="stop-color:#0044AA"/>
	<stop  offset="0.7143" style="stop-color:#3F51FF"/>
	<stop  offset="0.7955" style="stop-color:#0060D4"/>
	<stop  offset="1" style="stop-color:#000000"/>
</linearGradient>
<path id="Path_7" style="opacity:0.8;fill:url(#Path_7_00000021821523250573703040000002422331639181738372_);stroke:#000000;stroke-width:33;stroke-miterlimit:10;enable-background:new    ;" d="
	M281.6,299l0.3-102c0,0,150.6,98.7,172.7,121.3c48.6,49.7,48.5,100.5,48.5,100.5l-0.3,101.7c0,0-7.8-57.7-44.3-95.1
	c-2.5-2.5-28.3-22.6-30.9-24.5C396.8,379,281.6,299,281.6,299z"/>
<linearGradient id="Path_14_00000123442976633024829550000000184194617502540460_" gradientUnits="userSpaceOnUse" x1="280" y1="821.9" x2="501.8" y2="821.9">
	<stop  offset="0.343" style="stop-color:#000C55"/>
	<stop  offset="0.509" style="stop-color:#004794"/>
	<stop  offset="0.5909" style="stop-color:#006094"/>
	<stop  offset="0.6614" style="stop-color:#0044AA"/>
	<stop  offset="0.7143" style="stop-color:#3F51FF"/>
	<stop  offset="0.7955" style="stop-color:#0060D4"/>
	<stop  offset="1" style="stop-color:#000000"/>
</linearGradient>
<path id="Path_14" style="opacity:0.8;fill:url(#Path_14_00000123442976633024829550000000184194617502540460_);stroke:#000000;stroke-width:33;stroke-miterlimit:10;enable-background:new    ;" d="
	M501.8,880.8l-0.1,102c0,0-150.8-97.5-173-119.9C280,813.6,280,762.7,280,762.7l0.1-101.7c0,0,7.9,57.6,44.6,94.7
	c2.5,2.5,28.3,22.4,31,24.3C386.5,801.7,501.8,880.8,501.8,880.8z"/>
<path id="Path_3_1_" class="st5" d="M639,835.1l73.4,51.1l91.5-63.3l0.1-102L639,835.1z"/>
<linearGradient id="Path_4_00000176028411318533016290000001474894636195272615_" gradientUnits="userSpaceOnUse" x1="582.1" y1="661.95" x2="803.9" y2="661.95">
	<stop  offset="0.343" style="stop-color:#000C55"/>
	<stop  offset="0.509" style="stop-color:#004794"/>
	<stop  offset="0.5909" style="stop-color:#006094"/>
	<stop  offset="0.6614" style="stop-color:#0044AA"/>
	<stop  offset="0.7143" style="stop-color:#3F51FF"/>
	<stop  offset="0.7955" style="stop-color:#0060D4"/>
	<stop  offset="1" style="stop-color:#000000"/>
</linearGradient>
<path id="Path_4_1_" style="opacity:0.1;fill:url(#Path_4_00000176028411318533016290000001474894636195272615_);stroke:#000000;stroke-width:33;stroke-miterlimit:10;enable-background:new    ;" d="
	M803.9,720.8l-0.1,102c0,0-150.8-97.5-173-119.9c-48.8-49.3-48.7-100.1-48.7-100.1l0.1-101.7c0,0,7.9,57.6,44.6,94.7
	c2.5,2.5,28.3,22.4,31,24.3C688.6,641.6,803.9,720.8,803.9,720.8z"/>
<path id="Path_5_1_" class="st5" d="M747.8,389.5l-73.3-51.7l-91.6,62.5l-0.3,102L747.8,389.5z"/>
<linearGradient id="Path_6_00000122721543701394662610000010432365222456328122_" gradientUnits="userSpaceOnUse" x1="582.6" y1="562.25" x2="804.1" y2="562.25">
	<stop  offset="0.343" style="stop-color:#000C55"/>
	<stop  offset="0.509" style="stop-color:#004794"/>
	<stop  offset="0.5909" style="stop-color:#006094"/>
	<stop  offset="0.6614" style="stop-color:#0044AA"/>
	<stop  offset="0.7143" style="stop-color:#3F51FF"/>
	<stop  offset="0.7955" style="stop-color:#0060D4"/>
	<stop  offset="1" style="stop-color:#000000"/>
</linearGradient>
<path id="Path_6_1_" style="opacity:0.1;fill:url(#Path_6_00000122721543701394662610000010432365222456328122_);stroke:#000000;stroke-width:33;stroke-miterlimit:10;enable-background:new    ;" d="
	M582.6,502.5l0.3-102c0,0,150.6,98.7,172.7,121.3c48.6,49.7,48.5,100.5,48.5,100.5L803.8,724c0,0-7.8-57.7-44.3-95.1
	c-2.5-2.5-28.3-22.6-30.9-24.5C697.8,582.5,582.6,502.5,582.6,502.5z"/>
<linearGradient id="Path_7_00000046310783979880011940000002388507855270082438_" gradientUnits="userSpaceOnUse" x1="583.4" y1="380.45" x2="804.9" y2="380.45">
	<stop  offset="0.343" style="stop-color:#000C55"/>
	<stop  offset="0.509" style="stop-color:#004794"/>
	<stop  offset="0.5909" style="stop-color:#006094"/>
	<stop  offset="0.6614" style="stop-color:#0044AA"/>
	<stop  offset="0.7143" style="stop-color:#3F51FF"/>
	<stop  offset="0.7955" style="stop-color:#0060D4"/>
	<stop  offset="1" style="stop-color:#000000"/>
</linearGradient>
<path id="Path_7_1_" style="opacity:0.8;fill:url(#Path_7_00000046310783979880011940000002388507855270082438_);stroke:#000000;stroke-width:33;stroke-miterlimit:10;enable-background:new    ;" d="
	M583.4,320.7l0.3-102c0,0,150.6,98.7,172.7,121.3c48.6,49.7,48.5,100.5,48.5,100.5l-0.3,101.7c0,0-7.8-57.7-44.3-95.1
	c-2.5-2.5-28.3-22.6-30.9-24.5C698.5,400.8,583.4,320.7,583.4,320.7z"/>
<linearGradient id="Path_14_00000067949695994637455170000011567478172427763898_" gradientUnits="userSpaceOnUse" x1="581.8" y1="843.75" x2="803.6" y2="843.75">
	<stop  offset="0.343" style="stop-color:#000C55"/>
	<stop  offset="0.509" style="stop-color:#004794"/>
	<stop  offset="0.5909" style="stop-color:#006094"/>
	<stop  offset="0.6614" style="stop-color:#0044AA"/>
	<stop  offset="0.7143" style="stop-color:#3F51FF"/>
	<stop  offset="0.7955" style="stop-color:#0060D4"/>
	<stop  offset="1" style="stop-color:#000000"/>
</linearGradient>
<path id="Path_14_1_" style="opacity:0.8;fill:url(#Path_14_00000067949695994637455170000011567478172427763898_);stroke:#000000;stroke-width:33;stroke-miterlimit:10;enable-background:new    ;" d="
	M803.6,902.6l-0.1,102c0,0-150.8-97.5-173-119.9c-48.8-49.3-48.7-100.1-48.7-100.1l0.1-101.7c0,0,7.9,57.6,44.6,94.7
	c2.5,2.5,28.3,22.4,31,24.3C688.2,823.4,803.6,902.6,803.6,902.6z"/>
<path id="Path_3_2_" class="st5" d="M961.9,835.1l73.4,51.1l91.5-63.3l0.1-102L961.9,835.1z"/>
<linearGradient id="Path_4_00000114075490228492905300000006271999365000437648_" gradientUnits="userSpaceOnUse" x1="905" y1="661.9" x2="1126.8" y2="661.9">
	<stop  offset="0.343" style="stop-color:#000C55"/>
	<stop  offset="0.509" style="stop-color:#004794"/>
	<stop  offset="0.5909" style="stop-color:#006094"/>
	<stop  offset="0.6614" style="stop-color:#0044AA"/>
	<stop  offset="0.7143" style="stop-color:#3F51FF"/>
	<stop  offset="0.7955" style="stop-color:#0060D4"/>
	<stop  offset="1" style="stop-color:#000000"/>
</linearGradient>
<path id="Path_4_2_" style="opacity:0.1;fill:url(#Path_4_00000114075490228492905300000006271999365000437648_);stroke:#000000;stroke-width:33;stroke-miterlimit:10;enable-background:new    ;" d="
	M1126.8,720.8l-0.1,102c0,0-150.8-97.5-173-119.9C904.9,653.5,905,602.7,905,602.7V501c0,0,7.9,57.6,44.6,94.7
	c2.5,2.5,28.3,22.4,31,24.3C1011.4,641.6,1126.8,720.8,1126.8,720.8z"/>
<path id="Path_5_2_" class="st5" d="M1070.6,389.5l-73.3-51.7l-91.6,62.5l-0.3,102L1070.6,389.5z"/>
<linearGradient id="Path_6_00000016768309495232931830000002390930662956651686_" gradientUnits="userSpaceOnUse" x1="905.4" y1="562.25" x2="1126.9" y2="562.25">
	<stop  offset="0.343" style="stop-color:#000C55"/>
	<stop  offset="0.509" style="stop-color:#004794"/>
	<stop  offset="0.5909" style="stop-color:#006094"/>
	<stop  offset="0.6614" style="stop-color:#0044AA"/>
	<stop  offset="0.7143" style="stop-color:#3F51FF"/>
	<stop  offset="0.7955" style="stop-color:#0060D4"/>
	<stop  offset="1" style="stop-color:#000000"/>
</linearGradient>
<path id="Path_6_2_" style="opacity:0.1;fill:url(#Path_6_00000016768309495232931830000002390930662956651686_);stroke:#000000;stroke-width:33;stroke-miterlimit:10;enable-background:new    ;" d="
	M905.4,502.5l0.3-102c0,0,150.6,98.7,172.7,121.3c48.6,49.7,48.5,100.5,48.5,100.5l-0.3,101.7c0,0-7.8-57.7-44.3-95.1
	c-2.5-2.5-28.3-22.6-30.9-24.5C1020.6,582.5,905.4,502.5,905.4,502.5z"/>
<linearGradient id="Path_7_00000127012998721378085070000000132708955622202013_" gradientUnits="userSpaceOnUse" x1="906.2" y1="380.45" x2="1127.7" y2="380.45">
	<stop  offset="0.343" style="stop-color:#000C55"/>
	<stop  offset="0.509" style="stop-color:#004794"/>
	<stop  offset="0.5909" style="stop-color:#006094"/>
	<stop  offset="0.6614" style="stop-color:#0044AA"/>
	<stop  offset="0.7143" style="stop-color:#3F51FF"/>
	<stop  offset="0.7955" style="stop-color:#0060D4"/>
	<stop  offset="1" style="stop-color:#000000"/>
</linearGradient>
<path id="Path_7_2_" style="opacity:0.8;fill:url(#Path_7_00000127012998721378085070000000132708955622202013_);stroke:#000000;stroke-width:33;stroke-miterlimit:10;enable-background:new    ;" d="
	M906.2,320.7l0.3-102c0,0,150.6,98.7,172.7,121.3c48.6,49.7,48.5,100.5,48.5,100.5l-0.3,101.7c0,0-7.8-57.7-44.3-95.1
	c-2.5-2.5-28.3-22.6-30.9-24.5C1021.4,400.8,906.2,320.7,906.2,320.7z"/>
<linearGradient id="Path_14_00000052787291457533463680000009809933387976658325_" gradientUnits="userSpaceOnUse" x1="904.7" y1="843.75" x2="1126.5" y2="843.75">
	<stop  offset="0.343" style="stop-color:#000C55"/>
	<stop  offset="0.509" style="stop-color:#004794"/>
	<stop  offset="0.5909" style="stop-color:#006094"/>
	<stop  offset="0.6614" style="stop-color:#0044AA"/>
	<stop  offset="0.7143" style="stop-color:#3F51FF"/>
	<stop  offset="0.7955" style="stop-color:#0060D4"/>
	<stop  offset="1" style="stop-color:#000000"/>
</linearGradient>
<path id="Path_14_2_" style="opacity:0.8;fill:url(#Path_14_00000052787291457533463680000009809933387976658325_);stroke:#000000;stroke-width:33;stroke-miterlimit:10;enable-background:new    ;" d="
	M1126.5,902.6l-0.1,102c0,0-150.8-97.5-173-119.9c-48.8-49.3-48.7-100.1-48.7-100.1l0.1-101.7c0,0,7.9,57.6,44.6,94.7
	c2.5,2.5,28.3,22.4,31,24.3C1011.1,823.4,1126.5,902.6,1126.5,902.6z"/>
<path id="Path_3_3_" class="st5" d="M1283.2,835.5l73.4,51.1l91.5-63.3l0.1-102L1283.2,835.5z"/>
<linearGradient id="Path_4_00000178164481845112357990000018203233555762519720_" gradientUnits="userSpaceOnUse" x1="1226.3" y1="662.35" x2="1448.1" y2="662.35">
	<stop  offset="0.343" style="stop-color:#000C55"/>
	<stop  offset="0.509" style="stop-color:#004794"/>
	<stop  offset="0.5909" style="stop-color:#006094"/>
	<stop  offset="0.6614" style="stop-color:#0044AA"/>
	<stop  offset="0.7143" style="stop-color:#3F51FF"/>
	<stop  offset="0.7955" style="stop-color:#0060D4"/>
	<stop  offset="1" style="stop-color:#000000"/>
</linearGradient>
<path id="Path_4_3_" style="opacity:0.1;fill:url(#Path_4_00000178164481845112357990000018203233555762519720_);stroke:#000000;stroke-width:33;stroke-miterlimit:10;enable-background:new    ;" d="
	M1448.1,721.2l-0.1,102c0,0-150.8-97.5-173-119.9c-48.8-49.3-48.7-100.1-48.7-100.1l0.1-101.7c0,0,7.9,57.6,44.6,94.7
	c2.5,2.5,28.3,22.4,31,24.3C1332.7,642,1448.1,721.2,1448.1,721.2z"/>
<path id="Path_5_3_" class="st5" d="M1391.9,389.8l-73.3-51.7l-91.6,62.5l-0.3,102L1391.9,389.8z"/>
<linearGradient id="Path_6_00000006692964262704104000000002494811834546391687_" gradientUnits="userSpaceOnUse" x1="1226.7" y1="562.65" x2="1448.2" y2="562.65">
	<stop  offset="0.343" style="stop-color:#000C55"/>
	<stop  offset="0.509" style="stop-color:#004794"/>
	<stop  offset="0.5909" style="stop-color:#006094"/>
	<stop  offset="0.6614" style="stop-color:#0044AA"/>
	<stop  offset="0.7143" style="stop-color:#3F51FF"/>
	<stop  offset="0.7955" style="stop-color:#0060D4"/>
	<stop  offset="1" style="stop-color:#000000"/>
</linearGradient>
<path id="Path_6_3_" style="opacity:0.1;fill:url(#Path_6_00000006692964262704104000000002494811834546391687_);stroke:#000000;stroke-width:33;stroke-miterlimit:10;enable-background:new    ;" d="
	M1226.7,502.9l0.3-102c0,0,150.6,98.7,172.7,121.3c48.6,49.7,48.5,100.5,48.5,100.5l-0.3,101.7c0,0-7.8-57.7-44.3-95.1
	c-2.5-2.5-28.3-22.6-30.9-24.5C1341.9,582.9,1226.7,502.9,1226.7,502.9z"/>
<linearGradient id="Path_7_00000141433108501987586010000014323202503740120471_" gradientUnits="userSpaceOnUse" x1="1227.5" y1="380.85" x2="1449" y2="380.85">
	<stop  offset="0.343" style="stop-color:#000C55"/>
	<stop  offset="0.509" style="stop-color:#004794"/>
	<stop  offset="0.5909" style="stop-color:#006094"/>
	<stop  offset="0.6614" style="stop-color:#0044AA"/>
	<stop  offset="0.7143" style="stop-color:#3F51FF"/>
	<stop  offset="0.7955" style="stop-color:#0060D4"/>
	<stop  offset="1" style="stop-color:#000000"/>
</linearGradient>
<path id="Path_7_3_" style="opacity:0.8;fill:url(#Path_7_00000141433108501987586010000014323202503740120471_);stroke:#000000;stroke-width:33;stroke-miterlimit:10;enable-background:new    ;" d="
	M1227.5,321.1l0.3-102c0,0,150.6,98.7,172.7,121.3c48.6,49.7,48.5,100.5,48.5,100.5l-0.3,101.7c0,0-7.8-57.7-44.3-95.1
	c-2.5-2.5-28.3-22.6-30.9-24.5C1342.7,401.2,1227.5,321.1,1227.5,321.1z"/>
<linearGradient id="Path_14_00000051384658784730252430000007465993301550118075_" gradientUnits="userSpaceOnUse" x1="1225.9" y1="844.05" x2="1447.7" y2="844.05">
	<stop  offset="0.343" style="stop-color:#000C55"/>
	<stop  offset="0.509" style="stop-color:#004794"/>
	<stop  offset="0.5909" style="stop-color:#006094"/>
	<stop  offset="0.6614" style="stop-color:#0044AA"/>
	<stop  offset="0.7143" style="stop-color:#3F51FF"/>
	<stop  offset="0.7955" style="stop-color:#0060D4"/>
	<stop  offset="1" style="stop-color:#000000"/>
</linearGradient>
<path id="Path_14_3_" style="opacity:0.8;fill:url(#Path_14_00000051384658784730252430000007465993301550118075_);stroke:#000000;stroke-width:33;stroke-miterlimit:10;enable-background:new    ;" d="
	M1447.7,902.9l-0.1,102c0,0-150.8-97.5-173-119.9c-48.8-49.3-48.7-100.1-48.7-100.1l0.1-101.7c0,0,7.9,57.6,44.6,94.7
	c2.5,2.5,28.3,22.4,31,24.3C1332.4,823.8,1447.7,902.9,1447.7,902.9z"/>
<path id="Path_3_4_" class="st0" d="M1586,835.5l73.4,51.1l91.5-63.3l0.1-102L1586,835.5z"/>
<linearGradient id="Path_4_00000027602557604929739690000001102349241518807477_" gradientUnits="userSpaceOnUse" x1="1529.2001" y1="662.35" x2="1751" y2="662.35">
	<stop  offset="0.343" style="stop-color:#000C55"/>
	<stop  offset="0.509" style="stop-color:#004794"/>
	<stop  offset="0.5909" style="stop-color:#006094"/>
	<stop  offset="0.6614" style="stop-color:#0044AA"/>
	<stop  offset="0.7143" style="stop-color:#3F51FF"/>
	<stop  offset="0.7955" style="stop-color:#0060D4"/>
	<stop  offset="1" style="stop-color:#000000"/>
</linearGradient>
<path id="Path_4_4_" style="opacity:0.8;fill:url(#Path_4_00000027602557604929739690000001102349241518807477_);stroke:#000000;stroke-width:33;stroke-miterlimit:10;enable-background:new    ;" d="
	M1751,721.2l-0.1,102c0,0-150.8-97.5-173-119.9c-48.8-49.3-48.7-100.1-48.7-100.1l0.1-101.7c0,0,7.9,57.6,44.6,94.7
	c2.5,2.5,28.3,22.4,31,24.3C1635.6,642,1751,721.2,1751,721.2z"/>
<path id="Path_5_4_" class="st0" d="M1694.8,389.8l-73.3-51.7l-91.6,62.5l-0.3,102L1694.8,389.8z"/>
<linearGradient id="Path_6_00000140711762074445487460000001740259407108809605_" gradientUnits="userSpaceOnUse" x1="1529.6" y1="562.65" x2="1751.1" y2="562.65">
	<stop  offset="0.343" style="stop-color:#000C55"/>
	<stop  offset="0.509" style="stop-color:#004794"/>
	<stop  offset="0.5909" style="stop-color:#006094"/>
	<stop  offset="0.6614" style="stop-color:#0044AA"/>
	<stop  offset="0.7143" style="stop-color:#3F51FF"/>
	<stop  offset="0.7955" style="stop-color:#0060D4"/>
	<stop  offset="1" style="stop-color:#000000"/>
</linearGradient>
<path id="Path_6_4_" style="opacity:0.8;fill:url(#Path_6_00000140711762074445487460000001740259407108809605_);stroke:#000000;stroke-width:33;stroke-miterlimit:10;enable-background:new    ;" d="
	M1529.6,502.9l0.3-102c0,0,150.6,98.7,172.7,121.3c48.6,49.7,48.5,100.5,48.5,100.5l-0.3,101.7c0,0-7.8-57.7-44.3-95.1
	c-2.5-2.5-28.3-22.6-30.9-24.5C1644.8,582.9,1529.6,502.9,1529.6,502.9z"/>
<linearGradient id="Path_7_00000114761111983588938330000002767044255054443178_" gradientUnits="userSpaceOnUse" x1="1530.4" y1="380.85" x2="1751.9" y2="380.85">
	<stop  offset="0.343" style="stop-color:#000C55"/>
	<stop  offset="0.509" style="stop-color:#004794"/>
	<stop  offset="0.5909" style="stop-color:#006094"/>
	<stop  offset="0.6614" style="stop-color:#0044AA"/>
	<stop  offset="0.7143" style="stop-color:#3F51FF"/>
	<stop  offset="0.7955" style="stop-color:#0060D4"/>
	<stop  offset="1" style="stop-color:#000000"/>
</linearGradient>
<path id="Path_7_4_" style="opacity:0.8;fill:url(#Path_7_00000114761111983588938330000002767044255054443178_);stroke:#000000;stroke-width:33;stroke-miterlimit:10;enable-background:new    ;" d="
	M1530.4,321.1l0.3-102c0,0,150.6,98.7,172.7,121.3c48.6,49.7,48.5,100.5,48.5,100.5l-0.3,101.7c0,0-7.8-57.7-44.3-95.1
	c-2.5-2.5-28.3-22.6-30.9-24.5C1645.6,401.2,1530.4,321.1,1530.4,321.1z"/>
<linearGradient id="Path_14_00000145052757012362002700000002518329229508899220_" gradientUnits="userSpaceOnUse" x1="1528.8" y1="844.05" x2="1750.6" y2="844.05">
	<stop  offset="0.343" style="stop-color:#000C55"/>
	<stop  offset="0.509" style="stop-color:#004794"/>
	<stop  offset="0.5909" style="stop-color:#006094"/>
	<stop  offset="0.6614" style="stop-color:#0044AA"/>
	<stop  offset="0.7143" style="stop-color:#3F51FF"/>
	<stop  offset="0.7955" style="stop-color:#0060D4"/>
	<stop  offset="1" style="stop-color:#000000"/>
</linearGradient>
<path id="Path_14_4_" style="opacity:0.8;fill:url(#Path_14_00000145052757012362002700000002518329229508899220_);stroke:#000000;stroke-width:33;stroke-miterlimit:10;enable-background:new    ;" d="
	M1750.6,902.9l-0.1,102c0,0-150.8-97.5-173-119.9c-48.8-49.3-48.7-100.1-48.7-100.1l0.1-101.7c0,0,7.9,57.6,44.6,94.7
	c2.5,2.5,28.3,22.4,31,24.3C1635.3,823.8,1750.6,902.9,1750.6,902.9z"/>
<text transform="matrix(1 0 0 1 666.9493 595.2626)"><tspan x="0" y="0" class="st22 st23 st24">Hello my name is Kate,</tspan><tspan x="-39.1" y="71" class="st22 st23 st25">UX Designer,  Questioner &amp; Thinker</tspan></text>
</svg>
