<?xml version="1.0" encoding="UTF-8"?><svg id="a" xmlns="http://www.w3.org/2000/svg" xmlns:xlink="http://www.w3.org/1999/xlink" viewBox="0 0 1721 1080"><defs><style>.ba{letter-spacing:-.02em;}.bb{opacity:.5;}.bb,.bc,.bd,.be,.bf,.bg,.bh,.bi,.bj,.bk,.bl,.bm,.bn,.bo,.bp,.bq,.br,.bs,.bt,.bu,.bv,.bw{isolation:isolate;stroke:#000;stroke-miterlimit:10;stroke-width:33px;}.bx{letter-spacing:-.03em;}.bc{fill:url(#aa);}.bc,.bd,.be,.bf,.bg,.bh{opacity:.1;}.bd{fill:url(#ak);}.be{fill:url(#ah);}.bf{fill:url(#n);}.bg{fill:url(#q);}.bh{fill:url(#x);}.by{font-size:64px;}.c`{letter-spacing:0em;}.ca{letter-spacing:-.02em;}.bi{fill:url(#u);}.bi,.bj,.bk,.bl,.bm,.bn,.bp,.bq,.br,.bs,.bt,.bu,.bv,.bw{opacity:.8;}.bj{fill:url(#g);}.bk{fill:url(#i);}.bl{fill:url(#k);}.bm{fill:url(#s);}.bn{fill:url(#d);}.cb{letter-spacing:-.02em;}.cc{fill:#fff;font-family:SofiaPro-SemiBold, Sofia Pro;}.cd{letter-spacing:0em;}.ce{letter-spacing:-.06em;}.cf{letter-spacing:0em;}.bo{opacity:.63;}.cg{font-size:46px;}.ch{letter-spacing:0em;}.bp{fill:url(#ac);}.bq{fill:url(#ao);}.br{fill:url(#ae);}.bs{fill:url(#au);}.bt{fill:url(#ar);}.bu{fill:url(#am);}.bv{fill:url(#aw);}.bw{fill:url(#ay);}.ci{letter-spacing:0em;}</style><linearGradient id="d" x1="137.3" y1="639.75" x2="359.2" y2="639.75" gradientTransform="matrix(1, 0, 0, 1, 0, 0)" gradientUnits="userSpaceOnUse"><stop offset=".34" stop-color="#000c55"/><stop offset=".51" stop-color="#004794"/><stop offset=".59" stop-color="#006094"/><stop offset=".66" stop-color="#04a"/><stop offset=".71" stop-color="#3f51ff"/><stop offset=".8" stop-color="#0060d4"/><stop offset="1" stop-color="#000"/></linearGradient><linearGradient id="g" x1="137.8" y1="540.05" x2="359.3" y2="540.05" xlink:href="#d"/><linearGradient id="i" x1="138.6" y1="358.35" x2="360.1" y2="358.35" xlink:href="#d"/><linearGradient id="k" x1="137" y1="821.5" x2="358.8" y2="821.5" xlink:href="#d"/><linearGradient id="n" x1="439.1" y1="661.55" x2="660.9" y2="661.55" xlink:href="#d"/><linearGradient id="q" x1="439.6" y1="561.85" x2="661.1" y2="561.85" xlink:href="#d"/><linearGradient id="s" x1="440.4" y1="380.05" x2="661.9" y2="380.05" xlink:href="#d"/><linearGradient id="u" x1="438.8" y1="843.35" x2="660.6" y2="843.35" xlink:href="#d"/><linearGradient id="x" x1="762" y1="661.5" x2="983.8" y2="661.5" xlink:href="#d"/><linearGradient id="aa" x1="762.4" y1="561.85" x2="983.9" y2="561.85" xlink:href="#d"/><linearGradient id="ac" x1="763.2" y1="380.05" x2="984.7" y2="380.05" xlink:href="#d"/><linearGradient id="ae" x1="761.7" y1="843.35" x2="983.5" y2="843.35" xlink:href="#d"/><linearGradient id="ah" x1="1083.3" y1="661.95" x2="1305.1" y2="661.95" xlink:href="#d"/><linearGradient id="ak" x1="1083.7" y1="562.25" x2="1305.2" y2="562.25" xlink:href="#d"/><linearGradient id="am" x1="1084.5" y1="380.45" x2="1306" y2="380.45" xlink:href="#d"/><linearGradient id="ao" x1="1082.9" y1="843.65" x2="1304.7" y2="843.65" xlink:href="#d"/><linearGradient id="ar" x1="1386.2" y1="661.95" x2="1608" y2="661.95" xlink:href="#d"/><linearGradient id="au" x1="1386.6" y1="562.25" x2="1608.1" y2="562.25" xlink:href="#d"/><linearGradient id="aw" x1="1387.4" y1="380.45" x2="1608.9" y2="380.45" xlink:href="#d"/><linearGradient id="ay" x1="1385.8" y1="843.65" x2="1607.6" y2="843.65" xlink:href="#d"/></defs><path id="b" d="M1721,1080H0V0H1721"/><path id="c" d="M194.2,813l73.4,51.1,91.5-63.3,.1-102-165,114.2Z" isolation="isolate" opacity=".63" stroke="#000" stroke-miterlimit="10" stroke-width="33"/><path id="e" d="M359.2,698.6l-.1,102s-150.8-97.5-173-119.9c-48.8-49.3-48.8-100.1-48.8-100.1l.1-101.7s7.9,57.6,44.6,94.7c2.5,2.5,28.3,22.4,31,24.3,30.8,21.6,146.2,100.7,146.2,100.7Z" fill="#d" isolation="isolate" opacity=".8" stroke="#000" stroke-miterlimit="10" stroke-width="33"/><path id="f" d="M303,367.3l-73.3-51.7-91.6,62.5-.3,102,165.2-112.8Z" isolation="isolate" opacity=".63" stroke="#000" stroke-miterlimit="10" stroke-width="33"/><path id="h" d="M137.8,480.3l.3-102s150.6,98.7,172.7,121.3c48.6,49.7,48.5,100.5,48.5,100.5l-.3,101.7s-7.8-57.7-44.3-95.1c-2.5-2.5-28.3-22.6-30.9-24.5-30.8-21.8-146-101.9-146-101.9Z" fill="#g" isolation="isolate" opacity=".8" stroke="#000" stroke-miterlimit="10" stroke-width="33"/><path id="j" d="M138.6,298.6l.3-102s150.6,98.7,172.7,121.3c48.6,49.7,48.5,100.5,48.5,100.5l-.3,101.7s-7.8-57.7-44.3-95.1c-2.5-2.5-28.3-22.6-30.9-24.5-30.8-21.9-146-101.9-146-101.9Z" fill="#i" isolation="isolate" opacity=".8" stroke="#000" stroke-miterlimit="10" stroke-width="33"/><path id="l" d="M358.8,880.4l-.1,102s-150.8-97.5-173-119.9c-48.7-49.3-48.7-100.2-48.7-100.2l.1-101.7s7.9,57.6,44.6,94.7c2.5,2.5,28.3,22.4,31,24.3,30.8,21.7,146.1,100.8,146.1,100.8Z" fill="#k" isolation="isolate" opacity=".8" stroke="#000" stroke-miterlimit="10" stroke-width="33"/><path id="m" d="M496,834.7l73.4,51.1,91.5-63.3,.1-102-165,114.2Z" isolation="isolate" opacity=".5" stroke="#000" stroke-miterlimit="10" stroke-width="33"/><path id="o" d="M660.9,720.4l-.1,102s-150.8-97.5-173-119.9c-48.8-49.3-48.7-100.1-48.7-100.1l.1-101.7s7.9,57.6,44.6,94.7c2.5,2.5,28.3,22.4,31,24.3,30.8,21.5,146.1,100.7,146.1,100.7Z" fill="#n" isolation="isolate" opacity=".1" stroke="#000" stroke-miterlimit="10" stroke-width="33"/><path id="p" d="M604.8,389.1l-73.3-51.7-91.6,62.5-.3,102,165.2-112.8Z" isolation="isolate" opacity=".5" stroke="#000" stroke-miterlimit="10" stroke-width="33"/><path id="r" d="M439.6,502.1l.3-102s150.6,98.7,172.7,121.3c48.6,49.7,48.5,100.5,48.5,100.5l-.3,101.7s-7.8-57.7-44.3-95.1c-2.5-2.5-28.3-22.6-30.9-24.5-30.8-21.9-146-101.9-146-101.9Z" fill="#q" isolation="isolate" opacity=".1" stroke="#000" stroke-miterlimit="10" stroke-width="33"/><path id="t" d="M440.4,320.3l.3-102s150.6,98.7,172.7,121.3c48.6,49.7,48.5,100.5,48.5,100.5l-.3,101.7s-7.8-57.7-44.3-95.1c-2.5-2.5-28.3-22.6-30.9-24.5-30.9-21.8-146-101.9-146-101.9Z" fill="#s" isolation="isolate" opacity=".8" stroke="#000" stroke-miterlimit="10" stroke-width="33"/><path id="v" d="M660.6,902.2l-.1,102s-150.8-97.5-173-119.9c-48.8-49.3-48.7-100.1-48.7-100.1l.1-101.7s7.9,57.6,44.6,94.7c2.5,2.5,28.3,22.4,31,24.3,30.7,21.5,146.1,100.7,146.1,100.7Z" fill="#u" isolation="isolate" opacity=".8" stroke="#000" stroke-miterlimit="10" stroke-width="33"/><path id="w" d="M818.9,834.7l73.4,51.1,91.5-63.3,.1-102-165,114.2Z" isolation="isolate" opacity=".5" stroke="#000" stroke-miterlimit="10" stroke-width="33"/><path id="y" d="M983.8,720.4l-.1,102s-150.8-97.5-173-119.9c-48.8-49.4-48.7-100.2-48.7-100.2v-101.7s7.9,57.6,44.6,94.7c2.5,2.5,28.3,22.4,31,24.3,30.8,21.6,146.2,100.8,146.2,100.8Z" fill="#x" isolation="isolate" opacity=".1" stroke="#000" stroke-miterlimit="10" stroke-width="33"/><path id="a`" d="M927.6,389.1l-73.3-51.7-91.6,62.5-.3,102,165.2-112.8Z" isolation="isolate" opacity=".5" stroke="#000" stroke-miterlimit="10" stroke-width="33"/><path id="ab" d="M762.4,502.1l.3-102s150.6,98.7,172.7,121.3c48.6,49.7,48.5,100.5,48.5,100.5l-.3,101.7s-7.8-57.7-44.3-95.1c-2.5-2.5-28.3-22.6-30.9-24.5-30.8-21.9-146-101.9-146-101.9Z" fill="#aa" isolation="isolate" opacity=".1" stroke="#000" stroke-miterlimit="10" stroke-width="33"/><path id="ad" d="M763.2,320.3l.3-102s150.6,98.7,172.7,121.3c48.6,49.7,48.5,100.5,48.5,100.5l-.3,101.7s-7.8-57.7-44.3-95.1c-2.5-2.5-28.3-22.6-30.9-24.5-30.8-21.8-146-101.9-146-101.9Z" fill="#ac" isolation="isolate" opacity=".8" stroke="#000" stroke-miterlimit="10" stroke-width="33"/><path id="af" d="M983.5,902.2l-.1,102s-150.8-97.5-173-119.9c-48.8-49.3-48.7-100.1-48.7-100.1l.1-101.7s7.9,57.6,44.6,94.7c2.5,2.5,28.3,22.4,31,24.3,30.7,21.5,146.1,100.7,146.1,100.7Z" fill="#ae" isolation="isolate" opacity=".8" stroke="#000" stroke-miterlimit="10" stroke-width="33"/><path id="ag" d="M1140.2,835.1l73.4,51.1,91.5-63.3,.1-102-165,114.2Z" isolation="isolate" opacity=".5" stroke="#000" stroke-miterlimit="10" stroke-width="33"/><path id="ai" d="M1305.1,720.8l-.1,102s-150.8-97.5-173-119.9c-48.8-49.3-48.7-100.1-48.7-100.1l.1-101.7s7.9,57.6,44.6,94.7c2.5,2.5,28.3,22.4,31,24.3,30.7,21.5,146.1,100.7,146.1,100.7Z" fill="#ah" isolation="isolate" opacity=".1" stroke="#000" stroke-miterlimit="10" stroke-width="33"/><path id="aj" d="M1248.9,389.4l-73.3-51.7-91.6,62.5-.3,102,165.2-112.8Z" isolation="isolate" opacity=".5" stroke="#000" stroke-miterlimit="10" stroke-width="33"/><path id="al" d="M1083.7,502.5l.3-102s150.6,98.7,172.7,121.3c48.6,49.7,48.5,100.5,48.5,100.5l-.3,101.7s-7.8-57.7-44.3-95.1c-2.5-2.5-28.3-22.6-30.9-24.5-30.8-21.9-146-101.9-146-101.9Z" fill="#ak" isolation="isolate" opacity=".1" stroke="#000" stroke-miterlimit="10" stroke-width="33"/><path id="an" d="M1084.5,320.7l.3-102s150.6,98.7,172.7,121.3c48.6,49.7,48.5,100.5,48.5,100.5l-.3,101.7s-7.8-57.7-44.3-95.1c-2.5-2.5-28.3-22.6-30.9-24.5-30.8-21.8-146-101.9-146-101.9Z" fill="#am" isolation="isolate" opacity=".8" stroke="#000" stroke-miterlimit="10" stroke-width="33"/><path id="ap" d="M1304.7,902.5l-.1,102s-150.8-97.5-173-119.9c-48.8-49.3-48.7-100.1-48.7-100.1l.1-101.7s7.9,57.6,44.6,94.7c2.5,2.5,28.3,22.4,31,24.3,30.8,21.6,146.1,100.7,146.1,100.7Z" fill="#ao" isolation="isolate" opacity=".8" stroke="#000" stroke-miterlimit="10" stroke-width="33"/><path id="aq" d="M1443,835.1l73.4,51.1,91.5-63.3,.1-102-165,114.2Z" isolation="isolate" opacity=".63" stroke="#000" stroke-miterlimit="10" stroke-width="33"/><path id="as" d="M1608,720.8l-.1,102s-150.8-97.5-173-119.9c-48.8-49.3-48.7-100.1-48.7-100.1l.1-101.7s7.9,57.6,44.6,94.7c2.5,2.5,28.3,22.4,31,24.3,30.7,21.5,146.1,100.7,146.1,100.7Z" fill="#ar" isolation="isolate" opacity=".8" stroke="#000" stroke-miterlimit="10" stroke-width="33"/><path id="at" d="M1551.8,389.4l-73.3-51.7-91.6,62.5-.3,102,165.2-112.8Z" isolation="isolate" opacity=".63" stroke="#000" stroke-miterlimit="10" stroke-width="33"/><path id="av" d="M1386.6,502.5l.3-102s150.6,98.7,172.7,121.3c48.6,49.7,48.5,100.5,48.5,100.5l-.3,101.7s-7.8-57.7-44.3-95.1c-2.5-2.5-28.3-22.6-30.9-24.5-30.8-21.9-146-101.9-146-101.9Z" fill="#au" isolation="isolate" opacity=".8" stroke="#000" stroke-miterlimit="10" stroke-width="33"/><path id="ax" d="M1387.4,320.7l.3-102s150.6,98.7,172.7,121.3c48.6,49.7,48.5,100.5,48.5,100.5l-.3,101.7s-7.8-57.7-44.3-95.1c-2.5-2.5-28.3-22.6-30.9-24.5-30.8-21.8-146-101.9-146-101.9Z" fill="#aw" isolation="isolate" opacity=".8" stroke="#000" stroke-miterlimit="10" stroke-width="33"/><path id="b`" d="M1607.6,902.5l-.1,102s-150.8-97.5-173-119.9c-48.8-49.3-48.7-100.1-48.7-100.1l.1-101.7s7.9,57.6,44.6,94.7c2.5,2.5,28.3,22.4,31,24.3,30.8,21.6,146.1,100.7,146.1,100.7Z" fill="#ay" isolation="isolate" opacity=".8" stroke="#000" stroke-miterlimit="10" stroke-width="33"/><text transform="translate(526.09 594.86)" fill="#fff" font-family="SofiaPro-SemiBold, Sofia Pro"><tspan font-size="64"><tspan x="0" y="0" letter-spacing="0em">H</tspan><tspan x="44.42" y="0">ello </tspan><tspan x="165.18" y="0" letter-spacing="0em">m</tspan><tspan x="220.03" y="0" letter-spacing="-.02em">y</tspan><tspan x="251.13" y="0" xml:space="preserve"> name is </tspan><tspan x="510.65" y="0" letter-spacing="-.02em">K</tspan><tspan x="547.7" y="0">a</tspan><tspan x="587" y="0" letter-spacing="0em">t</tspan><tspan x="609.08" y="0">e,</tspan></tspan><tspan font-size="46"><tspan x="-38.1" y="71">UX </tspan><tspan x="34.21" y="71" letter-spacing="0em">D</tspan><tspan x="66.83" y="71" letter-spacing="0em">esigne</tspan><tspan x="204.69" y="71" letter-spacing="-.06em">r</tspan><tspan x="221.02" y="71" xml:space="preserve">,  Questione</tspan><tspan x="470.75" y="71" letter-spacing="-.02em">r</tspan><tspan x="488.59" y="71" xml:space="preserve"> &amp; Thin</tspan><tspan x="634.13" y="71" letter-spacing="-.03em">k</tspan><tspan x="656.63" y="71">e</tspan><tspan x="682.07" y="71" letter-spacing="-.02em">r</tspan></tspan></text></svg>