<?xml version="1.0" encoding="utf-8"?>
<!-- Generator: Adobe Illustrator 23.1.1, SVG Export Plug-In . SVG Version: 6.00 Build 0)  -->
<svg version="1.1" id="Layer_1" xmlns="http://www.w3.org/2000/svg" xmlns:xlink="http://www.w3.org/1999/xlink" x="0px" y="0px"
	 viewBox="0 0 2000 1080" style="enable-background:new 0 0 2000 1080;" xml:space="preserve">
<style type="text/css">
	.st0{opacity:0.63;stroke:#000000;stroke-width:33;stroke-miterlimit:10;enable-background:new    ;}
	.st1{opacity:0.8;fill:url(#Path_4_5_);stroke:#000000;stroke-width:33;stroke-miterlimit:10;enable-background:new    ;}
	.st2{opacity:0.8;fill:url(#Path_6_5_);stroke:#000000;stroke-width:33;stroke-miterlimit:10;enable-background:new    ;}
	.st3{opacity:0.8;fill:url(#Path_7_5_);stroke:#000000;stroke-width:33;stroke-miterlimit:10;enable-background:new    ;}
	.st4{opacity:0.8;fill:url(#Path_14_5_);stroke:#000000;stroke-width:33;stroke-miterlimit:10;enable-background:new    ;}
	.st5{opacity:0.5;stroke:#000000;stroke-width:33;stroke-miterlimit:10;enable-background:new    ;}
	.st6{opacity:0.1;fill:url(#Path_4_6_);stroke:#000000;stroke-width:33;stroke-miterlimit:10;enable-background:new    ;}
	.st7{opacity:0.1;fill:url(#Path_6_6_);stroke:#000000;stroke-width:33;stroke-miterlimit:10;enable-background:new    ;}
	.st8{opacity:0.8;fill:url(#Path_7_6_);stroke:#000000;stroke-width:33;stroke-miterlimit:10;enable-background:new    ;}
	.st9{opacity:0.8;fill:url(#Path_14_6_);stroke:#000000;stroke-width:33;stroke-miterlimit:10;enable-background:new    ;}
	.st10{opacity:0.1;fill:url(#Path_4_7_);stroke:#000000;stroke-width:33;stroke-miterlimit:10;enable-background:new    ;}
	.st11{opacity:0.1;fill:url(#Path_6_7_);stroke:#000000;stroke-width:33;stroke-miterlimit:10;enable-background:new    ;}
	.st12{opacity:0.8;fill:url(#Path_7_7_);stroke:#000000;stroke-width:33;stroke-miterlimit:10;enable-background:new    ;}
	.st13{opacity:0.8;fill:url(#Path_14_7_);stroke:#000000;stroke-width:33;stroke-miterlimit:10;enable-background:new    ;}
	.st14{opacity:0.1;fill:url(#Path_4_8_);stroke:#000000;stroke-width:33;stroke-miterlimit:10;enable-background:new    ;}
	.st15{opacity:0.1;fill:url(#Path_6_8_);stroke:#000000;stroke-width:33;stroke-miterlimit:10;enable-background:new    ;}
	.st16{opacity:0.8;fill:url(#Path_7_8_);stroke:#000000;stroke-width:33;stroke-miterlimit:10;enable-background:new    ;}
	.st17{opacity:0.8;fill:url(#Path_14_8_);stroke:#000000;stroke-width:33;stroke-miterlimit:10;enable-background:new    ;}
	.st18{opacity:0.8;fill:url(#Path_4_9_);stroke:#000000;stroke-width:33;stroke-miterlimit:10;enable-background:new    ;}
	.st19{opacity:0.8;fill:url(#Path_6_9_);stroke:#000000;stroke-width:33;stroke-miterlimit:10;enable-background:new    ;}
	.st20{opacity:0.8;fill:url(#Path_7_9_);stroke:#000000;stroke-width:33;stroke-miterlimit:10;enable-background:new    ;}
	.st21{opacity:0.8;fill:url(#Path_14_9_);stroke:#000000;stroke-width:33;stroke-miterlimit:10;enable-background:new    ;}
</style>
<path id="Path_2" d="M1864,1080.4H143V0.4h1721"/>
<path id="Path_3" class="st0" d="M337.2,813.4l73.4,51.1l91.5-63.3l0.1-102L337.2,813.4z"/>
<linearGradient id="Path_4_5_" gradientUnits="userSpaceOnUse" x1="115.038" y1="1175.4954" x2="115.9556" y2="1175.4954" gradientTransform="matrix(241.758 0 0 -350.631 -27531.0195 412805.2188)">
	<stop  offset="0" style="stop-color:#000000"/>
	<stop  offset="2.870701e-02" style="stop-color:#0D0402"/>
	<stop  offset="8.145083e-02" style="stop-color:#2E0E08"/>
	<stop  offset="0.1523" style="stop-color:#641E12"/>
	<stop  offset="0.2378" style="stop-color:#AF3520"/>
	<stop  offset="0.2568" style="stop-color:#C03A23"/>
	<stop  offset="0.3444" style="stop-color:#BC3922"/>
	<stop  offset="0.4354" style="stop-color:#AF3520"/>
	<stop  offset="0.5281" style="stop-color:#9B2F1C"/>
	<stop  offset="0.622" style="stop-color:#7D2617"/>
	<stop  offset="0.7167" style="stop-color:#581B10"/>
	<stop  offset="0.8108" style="stop-color:#2A0D08"/>
	<stop  offset="0.887" style="stop-color:#000000"/>
	<stop  offset="1" style="stop-color:#000000"/>
</linearGradient>
<path id="Path_4" class="st1" d="M502.2,699l-0.1,102c0,0-150.8-97.5-173-119.9C280.3,631.8,280.3,581,280.3,581l0.1-101.7
	c0,0,7.9,57.6,44.6,94.7c2.5,2.5,28.3,22.4,31,24.3C386.8,619.9,502.2,699,502.2,699z"/>
<path id="Path_5" class="st0" d="M446,367.7L372.7,316l-91.6,62.5l-0.3,102L446,367.7z"/>
<linearGradient id="Path_6_5_" gradientUnits="userSpaceOnUse" x1="115.0225" y1="1175.4646" x2="115.9446" y2="1175.4646" gradientTransform="matrix(241.45 0 0 -352.558 -27494.4629 414959.9375)">
	<stop  offset="0" style="stop-color:#000000"/>
	<stop  offset="0.107" style="stop-color:#140603"/>
	<stop  offset="0.326" style="stop-color:#48150D"/>
	<stop  offset="0.636" style="stop-color:#9B2E1C"/>
	<stop  offset="0.9636" style="stop-color:#000000"/>
</linearGradient>
<path id="Path_6" class="st2" d="M280.8,480.7l0.3-102c0,0,150.6,98.7,172.7,121.3c48.6,49.7,48.5,100.5,48.5,100.5l-0.3,101.7
	c0,0-7.8-57.7-44.3-95.1c-2.5-2.5-28.3-22.6-30.9-24.5C396,560.8,280.8,480.7,280.8,480.7z"/>
<linearGradient id="Path_7_5_" gradientUnits="userSpaceOnUse" x1="115.035" y1="1175.4182" x2="115.9526" y2="1175.4182" gradientTransform="matrix(241.45 0 0 -352.56 -27493.6191 414764.1875)">
	<stop  offset="0.343" style="stop-color:#3F130B"/>
	<stop  offset="0.509" style="stop-color:#752315"/>
	<stop  offset="0.5909" style="stop-color:#962D1B"/>
	<stop  offset="0.662" style="stop-color:#9F301D"/>
	<stop  offset="0.7143" style="stop-color:#BD3923"/>
	<stop  offset="1" style="stop-color:#000000"/>
</linearGradient>
<path id="Path_7" class="st3" d="M281.6,299l0.3-102c0,0,150.6,98.7,172.7,121.3c48.6,49.7,48.5,100.5,48.5,100.5l-0.3,101.7
	c0,0-7.8-57.7-44.3-95.1c-2.5-2.5-28.3-22.6-30.9-24.5C396.8,379,281.6,299,281.6,299z"/>
<linearGradient id="Path_14_5_" gradientUnits="userSpaceOnUse" x1="115.0381" y1="1175.542" x2="115.9557" y2="1175.542" gradientTransform="matrix(241.758 0 0 -350.632 -27531.3867 413004.5625)">
	<stop  offset="0" style="stop-color:#000000"/>
	<stop  offset="0.206" style="stop-color:#912B1B"/>
	<stop  offset="0.454" style="stop-color:#43140C"/>
	<stop  offset="0.631" style="stop-color:#120503"/>
	<stop  offset="0.719" style="stop-color:#000000"/>
</linearGradient>
<path id="Path_14" class="st4" d="M501.8,880.8l-0.1,102c0,0-150.8-97.5-173-119.9C280,813.6,280,762.7,280,762.7l0.1-101.7
	c0,0,7.9,57.6,44.6,94.7c2.5,2.5,28.3,22.4,31,24.3C386.5,801.7,501.8,880.8,501.8,880.8z"/>
<path id="Path_3_1_" class="st5" d="M639,835.1l73.4,51.1l91.5-63.3l0.1-102L639,835.1z"/>
<linearGradient id="Path_4_6_" gradientUnits="userSpaceOnUse" x1="116.2863" y1="1175.4335" x2="117.2038" y2="1175.4335" gradientTransform="matrix(241.758 0 0 -350.631 -27531.0195 412805.2188)">
	<stop  offset="0" style="stop-color:#000000"/>
	<stop  offset="2.870701e-02" style="stop-color:#0D0402"/>
	<stop  offset="8.145083e-02" style="stop-color:#2E0E08"/>
	<stop  offset="0.1523" style="stop-color:#641E12"/>
	<stop  offset="0.2378" style="stop-color:#AF3520"/>
	<stop  offset="0.2568" style="stop-color:#C03A23"/>
	<stop  offset="0.3444" style="stop-color:#BC3922"/>
	<stop  offset="0.4354" style="stop-color:#AF3520"/>
	<stop  offset="0.5281" style="stop-color:#9B2F1C"/>
	<stop  offset="0.622" style="stop-color:#7D2617"/>
	<stop  offset="0.7167" style="stop-color:#581B10"/>
	<stop  offset="0.8108" style="stop-color:#2A0D08"/>
	<stop  offset="0.887" style="stop-color:#000000"/>
	<stop  offset="1" style="stop-color:#000000"/>
</linearGradient>
<path id="Path_4_1_" class="st6" d="M803.9,720.8l-0.1,102c0,0-150.8-97.5-173-119.9c-48.8-49.3-48.7-100.1-48.7-100.1l0.1-101.7
	c0,0,7.9,57.6,44.6,94.7c2.5,2.5,28.3,22.4,31,24.3C688.6,641.6,803.9,720.8,803.9,720.8z"/>
<path id="Path_5_1_" class="st5" d="M747.8,389.5l-73.3-51.7l-91.6,62.5l-0.3,102L747.8,389.5z"/>
<linearGradient id="Path_6_6_" gradientUnits="userSpaceOnUse" x1="116.2723" y1="1175.403" x2="117.1945" y2="1175.403" gradientTransform="matrix(241.45 0 0 -352.558 -27494.4629 414959.9375)">
	<stop  offset="0" style="stop-color:#000000"/>
	<stop  offset="0.107" style="stop-color:#140603"/>
	<stop  offset="0.326" style="stop-color:#48150D"/>
	<stop  offset="0.636" style="stop-color:#9B2E1C"/>
	<stop  offset="0.9636" style="stop-color:#000000"/>
</linearGradient>
<path id="Path_6_1_" class="st7" d="M582.6,502.5l0.3-102c0,0,150.6,98.7,172.7,121.3c48.6,49.7,48.5,100.5,48.5,100.5L803.8,724
	c0,0-7.8-57.7-44.3-95.1c-2.5-2.5-28.3-22.6-30.9-24.5C697.8,582.5,582.6,502.5,582.6,502.5z"/>
<linearGradient id="Path_7_6_" gradientUnits="userSpaceOnUse" x1="116.2849" y1="1175.3566" x2="117.2025" y2="1175.3566" gradientTransform="matrix(241.45 0 0 -352.56 -27493.6191 414764.1875)">
	<stop  offset="0.174" style="stop-color:#000000"/>
	<stop  offset="0.343" style="stop-color:#3F130B"/>
	<stop  offset="0.509" style="stop-color:#752315"/>
	<stop  offset="0.5909" style="stop-color:#962D1B"/>
	<stop  offset="0.662" style="stop-color:#9F301D"/>
	<stop  offset="0.7143" style="stop-color:#BD3923"/>
	<stop  offset="1" style="stop-color:#000000"/>
</linearGradient>
<path id="Path_7_1_" class="st8" d="M583.4,320.7l0.3-102c0,0,150.6,98.7,172.7,121.3c48.6,49.7,48.5,100.5,48.5,100.5l-0.3,101.7
	c0,0-7.8-57.7-44.3-95.1c-2.5-2.5-28.3-22.6-30.9-24.5C698.5,400.8,583.4,320.7,583.4,320.7z"/>
<linearGradient id="Path_14_6_" gradientUnits="userSpaceOnUse" x1="116.2864" y1="1175.48" x2="117.2039" y2="1175.48" gradientTransform="matrix(241.758 0 0 -350.632 -27531.3867 413004.5625)">
	<stop  offset="0" style="stop-color:#000000"/>
	<stop  offset="0.206" style="stop-color:#912B1B"/>
	<stop  offset="0.454" style="stop-color:#43140C"/>
	<stop  offset="0.631" style="stop-color:#120503"/>
	<stop  offset="0.719" style="stop-color:#000000"/>
</linearGradient>
<path id="Path_14_1_" class="st9" d="M803.6,902.6l-0.1,102c0,0-150.8-97.5-173-119.9c-48.8-49.3-48.7-100.1-48.7-100.1l0.1-101.7
	c0,0,7.9,57.6,44.6,94.7c2.5,2.5,28.3,22.4,31,24.3C688.2,823.4,803.6,902.6,803.6,902.6z"/>
<path id="Path_3_2_" class="st5" d="M961.9,835.1l73.4,51.1l91.5-63.3l0.1-102L961.9,835.1z"/>
<linearGradient id="Path_4_7_" gradientUnits="userSpaceOnUse" x1="117.6217" y1="1175.4335" x2="118.5393" y2="1175.4335" gradientTransform="matrix(241.758 0 0 -350.631 -27531.0195 412805.2188)">
	<stop  offset="0" style="stop-color:#000000"/>
	<stop  offset="2.870701e-02" style="stop-color:#0D0402"/>
	<stop  offset="8.145083e-02" style="stop-color:#2E0E08"/>
	<stop  offset="0.1523" style="stop-color:#641E12"/>
	<stop  offset="0.2378" style="stop-color:#AF3520"/>
	<stop  offset="0.2568" style="stop-color:#C03A23"/>
	<stop  offset="0.3444" style="stop-color:#BC3922"/>
	<stop  offset="0.4354" style="stop-color:#AF3520"/>
	<stop  offset="0.5281" style="stop-color:#9B2F1C"/>
	<stop  offset="0.622" style="stop-color:#7D2617"/>
	<stop  offset="0.7167" style="stop-color:#581B10"/>
	<stop  offset="0.8108" style="stop-color:#2A0D08"/>
	<stop  offset="0.887" style="stop-color:#000000"/>
	<stop  offset="1" style="stop-color:#000000"/>
</linearGradient>
<path id="Path_4_2_" class="st10" d="M1126.8,720.8l-0.1,102c0,0-150.8-97.5-173-119.9C904.9,653.5,905,602.7,905,602.7L905,501
	c0,0,7.9,57.6,44.6,94.7c2.5,2.5,28.3,22.4,31,24.3C1011.4,641.6,1126.8,720.8,1126.8,720.8z"/>
<path id="Path_5_2_" class="st5" d="M1070.6,389.5l-73.3-51.7l-91.6,62.5l-0.3,102L1070.6,389.5z"/>
<linearGradient id="Path_6_7_" gradientUnits="userSpaceOnUse" x1="117.6095" y1="1175.403" x2="118.5316" y2="1175.403" gradientTransform="matrix(241.45 0 0 -352.558 -27494.4629 414959.9375)">
	<stop  offset="0" style="stop-color:#000000"/>
	<stop  offset="0.107" style="stop-color:#140603"/>
	<stop  offset="0.326" style="stop-color:#48150D"/>
	<stop  offset="0.636" style="stop-color:#9B2E1C"/>
	<stop  offset="0.9636" style="stop-color:#000000"/>
</linearGradient>
<path id="Path_6_2_" class="st11" d="M905.4,502.5l0.3-102c0,0,150.6,98.7,172.7,121.3c48.6,49.7,48.5,100.5,48.5,100.5l-0.3,101.7
	c0,0-7.8-57.7-44.3-95.1c-2.5-2.5-28.3-22.6-30.9-24.5C1020.6,582.5,905.4,502.5,905.4,502.5z"/>
<linearGradient id="Path_7_7_" gradientUnits="userSpaceOnUse" x1="117.622" y1="1175.3566" x2="118.5396" y2="1175.3566" gradientTransform="matrix(241.45 0 0 -352.56 -27493.6191 414764.1875)">
	<stop  offset="9.942989e-02" style="stop-color:#000000"/>
	<stop  offset="0.2218" style="stop-color:#3F130B"/>
	<stop  offset="0.2673" style="stop-color:#621D11"/>
	<stop  offset="0.3135" style="stop-color:#7E2617"/>
	<stop  offset="0.3539" style="stop-color:#902B1A"/>
	<stop  offset="0.3836" style="stop-color:#962D1B"/>
	<stop  offset="0.4089" style="stop-color:#9F301D"/>
	<stop  offset="0.494" style="stop-color:#BD3923"/>
	<stop  offset="1" style="stop-color:#000000"/>
</linearGradient>
<path id="Path_7_2_" class="st12" d="M906.2,320.7l0.3-102c0,0,150.6,98.7,172.7,121.3c48.6,49.7,48.5,100.5,48.5,100.5l-0.3,101.7
	c0,0-7.8-57.7-44.3-95.1c-2.5-2.5-28.3-22.6-30.9-24.5C1021.4,400.8,906.2,320.7,906.2,320.7z"/>
<linearGradient id="Path_14_7_" gradientUnits="userSpaceOnUse" x1="117.6218" y1="1175.48" x2="118.5394" y2="1175.48" gradientTransform="matrix(241.758 0 0 -350.632 -27531.3867 413004.5625)">
	<stop  offset="0" style="stop-color:#000000"/>
	<stop  offset="0.206" style="stop-color:#912B1B"/>
	<stop  offset="0.454" style="stop-color:#43140C"/>
	<stop  offset="0.631" style="stop-color:#120503"/>
	<stop  offset="0.719" style="stop-color:#000000"/>
</linearGradient>
<path id="Path_14_2_" class="st13" d="M1126.5,902.6l-0.1,102c0,0-150.8-97.5-173-119.9c-48.8-49.3-48.7-100.1-48.7-100.1l0.1-101.7
	c0,0,7.9,57.6,44.6,94.7c2.5,2.5,28.3,22.4,31,24.3C1011.1,823.4,1126.5,902.6,1126.5,902.6z"/>
<path id="Path_3_3_" class="st5" d="M1283.2,835.5l73.4,51.1l91.5-63.3l0.1-102L1283.2,835.5z"/>
<linearGradient id="Path_4_8_" gradientUnits="userSpaceOnUse" x1="118.9506" y1="1175.4323" x2="119.8682" y2="1175.4323" gradientTransform="matrix(241.758 0 0 -350.631 -27531.0195 412805.2188)">
	<stop  offset="0" style="stop-color:#000000"/>
	<stop  offset="2.870701e-02" style="stop-color:#0D0402"/>
	<stop  offset="8.145083e-02" style="stop-color:#2E0E08"/>
	<stop  offset="0.1523" style="stop-color:#641E12"/>
	<stop  offset="0.2378" style="stop-color:#AF3520"/>
	<stop  offset="0.2568" style="stop-color:#C03A23"/>
	<stop  offset="0.3444" style="stop-color:#BC3922"/>
	<stop  offset="0.4354" style="stop-color:#AF3520"/>
	<stop  offset="0.5281" style="stop-color:#9B2F1C"/>
	<stop  offset="0.622" style="stop-color:#7D2617"/>
	<stop  offset="0.7167" style="stop-color:#581B10"/>
	<stop  offset="0.8108" style="stop-color:#2A0D08"/>
	<stop  offset="0.887" style="stop-color:#000000"/>
	<stop  offset="1" style="stop-color:#000000"/>
</linearGradient>
<path id="Path_4_3_" class="st14" d="M1448.1,721.2l-0.1,102c0,0-150.8-97.5-173-119.9c-48.8-49.3-48.7-100.1-48.7-100.1l0.1-101.7
	c0,0,7.9,57.6,44.6,94.7c2.5,2.5,28.3,22.4,31,24.3C1332.7,642,1448.1,721.2,1448.1,721.2z"/>
<path id="Path_5_3_" class="st5" d="M1391.9,389.8l-73.3-51.7l-91.6,62.5l-0.3,102L1391.9,389.8z"/>
<linearGradient id="Path_6_8_" gradientUnits="userSpaceOnUse" x1="118.9401" y1="1175.4019" x2="119.8622" y2="1175.4019" gradientTransform="matrix(241.45 0 0 -352.558 -27494.4629 414959.9375)">
	<stop  offset="0" style="stop-color:#000000"/>
	<stop  offset="0.107" style="stop-color:#140603"/>
	<stop  offset="0.326" style="stop-color:#48150D"/>
	<stop  offset="0.636" style="stop-color:#9B2E1C"/>
	<stop  offset="0.9636" style="stop-color:#000000"/>
</linearGradient>
<path id="Path_6_3_" class="st15" d="M1226.7,502.9l0.3-102c0,0,150.6,98.7,172.7,121.3c48.6,49.7,48.5,100.5,48.5,100.5l-0.3,101.7
	c0,0-7.8-57.7-44.3-95.1c-2.5-2.5-28.3-22.6-30.9-24.5C1341.9,582.9,1226.7,502.9,1226.7,502.9z"/>
<linearGradient id="Path_7_8_" gradientUnits="userSpaceOnUse" x1="118.9527" y1="1175.3555" x2="119.8702" y2="1175.3555" gradientTransform="matrix(241.45 0 0 -352.56 -27493.6191 414764.1875)">
	<stop  offset="0.174" style="stop-color:#000000"/>
	<stop  offset="0.343" style="stop-color:#3F130B"/>
	<stop  offset="0.509" style="stop-color:#752315"/>
	<stop  offset="0.5909" style="stop-color:#962D1B"/>
	<stop  offset="0.662" style="stop-color:#9F301D"/>
	<stop  offset="0.7143" style="stop-color:#BD3923"/>
	<stop  offset="1" style="stop-color:#000000"/>
</linearGradient>
<path id="Path_7_3_" class="st16" d="M1227.5,321.1l0.3-102c0,0,150.6,98.7,172.7,121.3c48.6,49.7,48.5,100.5,48.5,100.5l-0.3,101.7
	c0,0-7.8-57.7-44.3-95.1c-2.5-2.5-28.3-22.6-30.9-24.5C1342.7,401.2,1227.5,321.1,1227.5,321.1z"/>
<linearGradient id="Path_14_8_" gradientUnits="userSpaceOnUse" x1="118.9508" y1="1175.4789" x2="119.8683" y2="1175.4789" gradientTransform="matrix(241.758 0 0 -350.632 -27531.3867 413004.5625)">
	<stop  offset="0" style="stop-color:#000000"/>
	<stop  offset="0.206" style="stop-color:#912B1B"/>
	<stop  offset="0.454" style="stop-color:#43140C"/>
	<stop  offset="0.631" style="stop-color:#120503"/>
	<stop  offset="0.719" style="stop-color:#000000"/>
</linearGradient>
<path id="Path_14_3_" class="st17" d="M1447.7,902.9l-0.1,102c0,0-150.8-97.5-173-119.9c-48.8-49.3-48.7-100.1-48.7-100.1l0.1-101.7
	c0,0,7.9,57.6,44.6,94.7c2.5,2.5,28.3,22.4,31,24.3C1332.4,823.8,1447.7,902.9,1447.7,902.9z"/>
<path id="Path_3_4_" class="st0" d="M1586,835.5l73.4,51.1l91.5-63.3l0.1-102L1586,835.5z"/>
<linearGradient id="Path_4_9_" gradientUnits="userSpaceOnUse" x1="120.2035" y1="1175.4323" x2="121.121" y2="1175.4323" gradientTransform="matrix(241.758 0 0 -350.631 -27531.0195 412805.2188)">
	<stop  offset="0" style="stop-color:#000000"/>
	<stop  offset="2.870701e-02" style="stop-color:#0D0402"/>
	<stop  offset="8.145083e-02" style="stop-color:#2E0E08"/>
	<stop  offset="0.1523" style="stop-color:#641E12"/>
	<stop  offset="0.2378" style="stop-color:#AF3520"/>
	<stop  offset="0.2568" style="stop-color:#C03A23"/>
	<stop  offset="0.3444" style="stop-color:#BC3922"/>
	<stop  offset="0.4354" style="stop-color:#AF3520"/>
	<stop  offset="0.5281" style="stop-color:#9B2F1C"/>
	<stop  offset="0.622" style="stop-color:#7D2617"/>
	<stop  offset="0.7167" style="stop-color:#581B10"/>
	<stop  offset="0.8108" style="stop-color:#2A0D08"/>
	<stop  offset="0.887" style="stop-color:#000000"/>
	<stop  offset="1" style="stop-color:#000000"/>
</linearGradient>
<path id="Path_4_4_" class="st18" d="M1751,721.2l-0.1,102c0,0-150.8-97.5-173-119.9c-48.8-49.3-48.7-100.1-48.7-100.1l0.1-101.7
	c0,0,7.9,57.6,44.6,94.7c2.5,2.5,28.3,22.4,31,24.3C1635.6,642,1751,721.2,1751,721.2z"/>
<path id="Path_5_4_" class="st0" d="M1694.8,389.8l-73.3-51.7l-91.6,62.5l-0.3,102L1694.8,389.8z"/>
<linearGradient id="Path_6_9_" gradientUnits="userSpaceOnUse" x1="120.1946" y1="1175.4019" x2="121.1167" y2="1175.4019" gradientTransform="matrix(241.45 0 0 -352.558 -27494.4629 414959.9375)">
	<stop  offset="0" style="stop-color:#000000"/>
	<stop  offset="0.107" style="stop-color:#140603"/>
	<stop  offset="0.326" style="stop-color:#48150D"/>
	<stop  offset="0.636" style="stop-color:#9B2E1C"/>
	<stop  offset="0.9636" style="stop-color:#000000"/>
</linearGradient>
<path id="Path_6_4_" class="st19" d="M1529.6,502.9l0.3-102c0,0,150.6,98.7,172.7,121.3c48.6,49.7,48.5,100.5,48.5,100.5l-0.3,101.7
	c0,0-7.8-57.7-44.3-95.1c-2.5-2.5-28.3-22.6-30.9-24.5C1644.8,582.9,1529.6,502.9,1529.6,502.9z"/>
<linearGradient id="Path_7_9_" gradientUnits="userSpaceOnUse" x1="120.2071" y1="1175.3555" x2="121.1247" y2="1175.3555" gradientTransform="matrix(241.45 0 0 -352.56 -27493.6191 414764.1875)">
	<stop  offset="0.174" style="stop-color:#000000"/>
	<stop  offset="0.343" style="stop-color:#3F130B"/>
	<stop  offset="0.509" style="stop-color:#752315"/>
	<stop  offset="0.5909" style="stop-color:#962D1B"/>
	<stop  offset="0.662" style="stop-color:#9F301D"/>
	<stop  offset="0.7143" style="stop-color:#BD3923"/>
	<stop  offset="1" style="stop-color:#000000"/>
</linearGradient>
<path id="Path_7_4_" class="st20" d="M1530.4,321.1l0.3-102c0,0,150.6,98.7,172.7,121.3c48.6,49.7,48.5,100.5,48.5,100.5l-0.3,101.7
	c0,0-7.8-57.7-44.3-95.1c-2.5-2.5-28.3-22.6-30.9-24.5C1645.6,401.2,1530.4,321.1,1530.4,321.1z"/>
<linearGradient id="Path_14_9_" gradientUnits="userSpaceOnUse" x1="120.2036" y1="1175.4789" x2="121.1212" y2="1175.4789" gradientTransform="matrix(241.758 0 0 -350.632 -27531.3867 413004.5625)">
	<stop  offset="0" style="stop-color:#000000"/>
	<stop  offset="0.206" style="stop-color:#912B1B"/>
	<stop  offset="0.454" style="stop-color:#43140C"/>
</linearGradient>
<path id="Path_14_4_" class="st21" d="M1750.6,902.9l-0.1,102c0,0-150.8-97.5-173-119.9c-48.8-49.3-48.7-100.1-48.7-100.1l0.1-101.7
	c0,0,7.9,57.6,44.6,94.7c2.5,2.5,28.3,22.4,31,24.3C1635.3,823.8,1750.6,902.9,1750.6,902.9z"/>
</svg>
