<svg id="Layer_1" data-name="Layer 1" xmlns="http://www.w3.org/2000/svg" xmlns:xlink="http://www.w3.org/1999/xlink" viewBox="0 0 1920 1080"><defs><style>.cls-1{font-size:41px;fill:#fff;font-family:AvenirNextCondensed-Bold, Avenir Next Condensed;font-weight:700;}.cls-2{font-size:12px;}.cls-15,.cls-2{font-family:MyriadPro-Regular, Myriad Pro;}.cls-3{letter-spacing:-0.01em;}.cls-4{letter-spacing:-0.01em;}.cls-11,.cls-19,.cls-21,.cls-25,.cls-5,.cls-7,.cls-9{opacity:0.08;}.cls-6{fill:url(#linear-gradient);}.cls-7{fill:url(#linear-gradient-2);}.cls-10,.cls-12,.cls-13,.cls-18,.cls-22,.cls-23,.cls-26,.cls-27,.cls-28,.cls-29,.cls-8{opacity:0.43;}.cls-8{fill:url(#linear-gradient-3);}.cls-9{fill:url(#linear-gradient-4);}.cls-10{fill:url(#linear-gradient-5);}.cls-11{fill:url(#linear-gradient-6);}.cls-12{fill:url(#linear-gradient-7);}.cls-13{fill:url(#linear-gradient-8);}.cls-14{opacity:0.74;fill:url(#linear-gradient-9);}.cls-15{font-size:60px;}.cls-16{letter-spacing:-0.01em;}.cls-17{fill:url(#linear-gradient-10);}.cls-18{fill:url(#linear-gradient-11);}.cls-19{fill:url(#linear-gradient-12);}.cls-20{opacity:0.16;fill:url(#linear-gradient-13);}.cls-21{fill:url(#linear-gradient-14);}.cls-22{fill:url(#linear-gradient-15);}.cls-23{fill:url(#linear-gradient-16);}.cls-24{fill:url(#linear-gradient-17);}.cls-25{fill:url(#linear-gradient-18);}.cls-26{fill:url(#linear-gradient-19);}.cls-27{fill:url(#linear-gradient-20);}.cls-28{fill:url(#linear-gradient-21);}.cls-29{fill:url(#linear-gradient-22);}.cls-30{opacity:0.2;fill:url(#linear-gradient-23);}</style><linearGradient id="linear-gradient" x1="19.73" y1="613.86" x2="324.36" y2="613.86" gradientTransform="translate(-16.31 -0.56) rotate(0.31)" gradientUnits="userSpaceOnUse"><stop offset="0" stop-color="#d84128"/><stop offset="0.21" stop-color="#912c1b"/><stop offset="0.46" stop-color="#44140d"/><stop offset="0.63" stop-color="#130603"/><stop offset="0.72"/></linearGradient><linearGradient id="linear-gradient-2" x1="1.87" y1="284.41" x2="227.12" y2="284.41" gradientUnits="userSpaceOnUse"><stop offset="0" stop-color="#fff"/><stop offset="0.06" stop-color="#cacaca"/><stop offset="0.13" stop-color="#9b9b9b"/><stop offset="0.2" stop-color="#717171"/><stop offset="0.28" stop-color="#4e4e4e"/><stop offset="0.35" stop-color="#323232"/><stop offset="0.44" stop-color="#1c1c1c"/><stop offset="0.53" stop-color="#0c0c0c"/><stop offset="0.63" stop-color="#030303"/><stop offset="0.78"/></linearGradient><linearGradient id="linear-gradient-3" x1="1.87" y1="478.41" x2="303.95" y2="478.41" gradientUnits="userSpaceOnUse"><stop offset="0"/><stop offset="0.11" stop-color="#140604"/><stop offset="0.33" stop-color="#48160d"/><stop offset="0.63" stop-color="#9b2f1d"/><stop offset="0.85" stop-color="#d84128"/></linearGradient><linearGradient id="linear-gradient-4" x1="421.78" y1="620.29" x2="726.41" y2="620.29" gradientTransform="translate(-16.31 -0.56) rotate(0.31)" gradientUnits="userSpaceOnUse"><stop offset="0" stop-color="#fff"/><stop offset="0.01" stop-color="#f6f6f6"/><stop offset="0.04" stop-color="#c8c8c8"/><stop offset="0.09" stop-color="#9d9d9d"/><stop offset="0.13" stop-color="#777"/><stop offset="0.18" stop-color="#575757"/><stop offset="0.24" stop-color="#3b3b3b"/><stop offset="0.3" stop-color="#252525"/><stop offset="0.37" stop-color="#141414"/><stop offset="0.47" stop-color="#090909"/><stop offset="0.59" stop-color="#020202"/><stop offset="0.94"/></linearGradient><linearGradient id="linear-gradient-5" x1="338.36" y1="870.66" x2="640.82" y2="870.66" gradientTransform="matrix(1, 0, 0, 1, 0, 0)" xlink:href="#linear-gradient"/><linearGradient id="linear-gradient-6" x1="403.88" y1="292.99" x2="629.13" y2="292.99" xlink:href="#linear-gradient-2"/><linearGradient id="linear-gradient-7" x1="422.02" y1="484.49" x2="725.63" y2="484.49" gradientTransform="translate(-16.31 -0.56) rotate(0.31)" xlink:href="#linear-gradient-3"/><linearGradient id="linear-gradient-8" x1="404.93" y1="239.13" x2="707.01" y2="239.13" gradientUnits="userSpaceOnUse"><stop offset="0.17"/><stop offset="0.35" stop-color="#40130c"/><stop offset="0.51" stop-color="#762416"/><stop offset="0.66" stop-color="#a1301e"/><stop offset="0.8" stop-color="#bf3923"/><stop offset="0.92" stop-color="#d13f27"/><stop offset="1" stop-color="#d84128"/></linearGradient><linearGradient id="linear-gradient-9" x1="0.76" y1="862.08" x2="303.23" y2="862.08" gradientTransform="matrix(1, 0, 0, 1, 0, 0)" xlink:href="#linear-gradient"/><linearGradient id="linear-gradient-10" x1="853.16" y1="307.48" x2="1128.37" y2="196.65" gradientUnits="userSpaceOnUse"><stop offset="0" stop-color="#d84128"/><stop offset="0.01" stop-color="#d13f27"/><stop offset="0.1" stop-color="#9a2e1d"/><stop offset="0.19" stop-color="#6b2014"/><stop offset="0.29" stop-color="#44150d"/><stop offset="0.38" stop-color="#270c07"/><stop offset="0.46" stop-color="#110503"/><stop offset="0.55" stop-color="#040101"/><stop offset="0.63"/></linearGradient><linearGradient id="linear-gradient-11" x1="847.77" y1="478.41" x2="1149.85" y2="478.41" gradientTransform="matrix(1, 0, 0, 1, 0, 0)" xlink:href="#linear-gradient"/><linearGradient id="linear-gradient-12" x1="1249.13" y1="622.79" x2="1551.6" y2="622.79" gradientTransform="matrix(1, 0, 0, 1, 0, 0)" xlink:href="#linear-gradient-4"/><linearGradient id="linear-gradient-13" x1="1248.67" y1="870.66" x2="1551.13" y2="870.66" gradientTransform="matrix(1, 0, 0, 1, 0, 0)" xlink:href="#linear-gradient"/><linearGradient id="linear-gradient-14" x1="1249.78" y1="292.99" x2="1475.03" y2="292.99" xlink:href="#linear-gradient-2"/><linearGradient id="linear-gradient-15" x1="1267.91" y1="479.97" x2="1571.51" y2="479.97" gradientTransform="translate(-16.31 -0.56) rotate(0.31)" xlink:href="#linear-gradient-3"/><linearGradient id="linear-gradient-16" x1="740.65" y1="862.08" x2="1043.11" y2="862.08" gradientTransform="matrix(1, 0, 0, 1, 0, 0)" xlink:href="#linear-gradient"/><linearGradient id="linear-gradient-17" x1="1635.73" y1="611.22" x2="1940.37" y2="611.22" gradientTransform="translate(-16.31 -0.56) rotate(0.31)" xlink:href="#linear-gradient-8"/><linearGradient id="linear-gradient-18" x1="1617.87" y1="290.41" x2="1843.12" y2="290.41" xlink:href="#linear-gradient-2"/><linearGradient id="linear-gradient-19" x1="1635.98" y1="475.42" x2="1939.58" y2="475.42" gradientTransform="translate(-16.31 -0.56) rotate(0.31)" gradientUnits="userSpaceOnUse"><stop offset="0.44"/><stop offset="0.55" stop-color="#40130c"/><stop offset="0.67" stop-color="#762416"/><stop offset="0.77" stop-color="#a1301e"/><stop offset="0.86" stop-color="#bf3923"/><stop offset="0.94" stop-color="#d13f27"/><stop offset="1" stop-color="#d84128"/></linearGradient><linearGradient id="linear-gradient-20" x1="1618.92" y1="236.54" x2="1921" y2="236.54" xlink:href="#linear-gradient-8"/><linearGradient id="linear-gradient-21" x1="1616.76" y1="868.08" x2="2015.28" y2="868.08" gradientTransform="matrix(1, 0, 0, 1, 0, 0)" xlink:href="#linear-gradient"/><linearGradient id="linear-gradient-22" x1="1250.83" y1="239.13" x2="1552.91" y2="239.13" xlink:href="#linear-gradient-8"/><linearGradient id="linear-gradient-23" x1="842.17" y1="230.54" x2="1144.25" y2="230.54" xlink:href="#linear-gradient-8"/></defs><title>b1</title><rect width="1920" height="1080"/><text/><text class="cls-1" transform="translate(580 722.34) scale(0.96 1)"> <tspan x="0" y="49.2"> </tspan></text><text class="cls-1" transform="translate(754 675.74) scale(1.13 1)"> <tspan x="0" y="49.2"> </tspan></text><text class="cls-2" transform="translate(795.56 795.02)"><tspan class="cls-3">L</tspan><tspan x="5.5" y="0">o</tspan><tspan class="cls-4" x="12.08" y="0">r</tspan><tspan x="15.89" y="0">em ipsum</tspan></text><polygon class="cls-5" points="78.81 850.43 178.9 920.15 303.61 833.87 303.69 694.85 78.81 850.43"/><path class="cls-6" d="M303.69,694.53l-.08,139S98,700.65,67.67,670C1.18,602.86,1.23,533.53,1.23,533.53l.08-138.66S12.14,473.4,62.07,524c3.37,3.42,38.63,30.56,42.23,33.08C146.39,586.61,303.69,694.53,303.69,694.53Z"/><polygon class="cls-7" points="227.12 242.78 127.2 172.26 2.29 257.55 1.87 396.56 227.12 242.78"/><path class="cls-8" d="M1.87,396.88l.42-139S207.62,392.41,237.83,423.25c66.33,67.71,66.12,137,66.12,137L303.54,699s-10.64-78.61-60.45-129.62c-3.37-3.45-38.56-30.87-42.15-33.42C158.92,506.06,1.87,396.88,1.87,396.88Z"/><polygon class="cls-5" points="480.82 859.01 580.9 928.73 705.61 842.45 705.7 703.43 480.82 859.01"/><path class="cls-9" d="M705.7,703.11l-.09,139S500,709.23,469.68,678.63c-66.49-67.19-66.45-136.52-66.45-136.52l.09-138.66S414.15,482,464.08,532.59c3.37,3.42,38.63,30.56,42.23,33.08C548.4,595.19,705.7,703.11,705.7,703.11Z"/><path class="cls-10" d="M705.24,951l-.09,139S499.5,957.1,469.22,926.5C402.73,859.31,402.77,790,402.77,790l.08-138.66s10.83,78.53,60.77,129.14c3.37,3.42,38.62,30.56,42.22,33.08C547.93,843.06,705.24,951,705.24,951Z"/><polygon class="cls-11" points="629.13 251.36 529.21 180.84 404.3 266.13 403.88 405.14 629.13 251.36"/><path class="cls-12" d="M403.88,405.46l.42-139S609.63,401,639.84,431.83C706.17,499.55,706,568.88,706,568.88l-.41,138.65s-10.65-78.61-60.46-129.62c-3.36-3.44-38.55-30.87-42.15-33.42C560.93,514.64,403.88,405.46,403.88,405.46Z"/><path class="cls-13" d="M404.93,157.6l.42-139S610.68,153.13,640.89,184C707.22,251.68,707,321,707,321l-.41,138.66S696,381.06,646.15,330.05c-3.37-3.45-38.56-30.87-42.15-33.42C562,266.78,404.93,157.6,404.93,157.6Z"/><path class="cls-14" d="M303.23,942.4l-.09,139S97.49,948.52,67.21,917.91C.72,850.73.76,781.4.76,781.4L.85,642.74s10.83,78.53,60.76,129.14c3.37,3.41,38.63,30.56,42.23,33.08C145.93,834.48,303.23,942.4,303.23,942.4Z"/><polygon class="cls-5" points="924.71 850.43 1024.79 920.15 1149.5 833.87 1149.59 694.85 924.71 850.43"/><text class="cls-15" transform="translate(857.05 581.47)"><tspan class="cls-3">L</tspan><tspan x="27.48" y="0">o</tspan><tspan class="cls-16" x="41.43" y="72">r</tspan><tspan x="60.45" y="72">em </tspan><tspan x="130.32" y="144">ipsu</tspan><tspan x="237.26" y="216">m </tspan></text><polygon class="cls-17" points="1073.02 242.78 973.1 172.26 848.19 257.55 847.77 396.56 1073.02 242.78"/><path class="cls-18" d="M847.77,396.88l.42-139s205.33,134.55,235.54,165.39c66.33,67.71,66.12,137,66.12,137L1149.44,699s-10.65-78.61-60.46-129.62c-3.36-3.45-38.55-30.87-42.14-33.42C1004.82,506.06,847.77,396.88,847.77,396.88Z"/><polygon class="cls-5" points="1326.71 859.01 1426.8 928.73 1551.51 842.45 1551.6 703.43 1326.71 859.01"/><path class="cls-19" d="M1551.6,703.11l-.09,139s-205.65-132.9-235.93-163.5c-66.49-67.19-66.45-136.52-66.45-136.52l.09-138.66S1260.05,482,1310,532.59c3.37,3.42,38.62,30.56,42.22,33.08C1394.29,595.19,1551.6,703.11,1551.6,703.11Z"/><path class="cls-20" d="M1551.13,951l-.08,139S1345.4,957.1,1315.11,926.5C1248.62,859.31,1248.67,790,1248.67,790l.08-138.66s10.83,78.53,60.76,129.14c3.38,3.42,38.63,30.56,42.23,33.08C1393.83,843.06,1551.13,951,1551.13,951Z"/><polygon class="cls-21" points="1475.03 251.36 1375.11 180.84 1250.19 266.13 1249.78 405.14 1475.03 251.36"/><path class="cls-22" d="M1249.78,405.46l.41-139S1455.52,401,1485.74,431.83c66.33,67.72,66.12,137.05,66.12,137.05l-.42,138.65S1540.8,628.92,1491,577.91c-3.36-3.44-38.55-30.87-42.15-33.42C1406.82,514.64,1249.78,405.46,1249.78,405.46Z"/><path class="cls-23" d="M1149.13,942.4l-.09,139S943.39,948.52,913.11,917.91c-66.49-67.18-66.45-136.51-66.45-136.51l.08-138.66s10.84,78.53,60.77,129.14c3.37,3.41,38.62,30.56,42.22,33.08C991.82,834.48,1149.13,942.4,1149.13,942.4Z"/><polygon class="cls-5" points="1694.8 856.43 1794.89 926.15 1919.6 839.87 1919.68 700.85 1694.8 856.43"/><path class="cls-24" d="M1919.69,700.53l-.09,139S1714,706.65,1683.67,676c-66.49-67.18-66.45-136.51-66.45-136.51l.08-138.66s10.83,78.53,60.77,129.14c3.37,3.42,38.62,30.56,42.22,33.08C1762.38,592.61,1919.69,700.53,1919.69,700.53Z"/><polygon class="cls-25" points="1843.12 248.78 1743.2 178.26 1618.28 263.55 1617.87 402.56 1843.12 248.78"/><path class="cls-26" d="M1617.87,402.88l.41-139s205.33,134.55,235.55,165.39c66.33,67.71,66.12,137,66.12,137L1919.53,705s-10.64-78.61-60.45-129.62c-3.37-3.45-38.55-30.87-42.15-33.42C1774.91,512.06,1617.87,402.88,1617.87,402.88Z"/><path class="cls-27" d="M1618.92,155l.41-139s205.34,134.54,235.55,165.39c66.33,67.71,66.12,137,66.12,137l-.41,138.66s-10.65-78.61-60.46-129.62c-3.36-3.45-38.55-30.87-42.15-33.42C1776,264.19,1618.92,155,1618.92,155Z"/><path class="cls-28" d="M1919.22,948.4l-.08,139s-205.65-132.9-235.94-163.51c-66.49-67.18-66.44-136.51-66.44-136.51l.08-138.66s10.83,78.53,60.76,129.14c3.38,3.41,38.63,30.56,42.23,33.08C1761.92,840.48,1919.22,948.4,1919.22,948.4Z"/><path class="cls-29" d="M1250.83,157.6l.42-139S1456.58,153.13,1486.79,184c66.33,67.71,66.12,137,66.12,137l-.41,138.66s-10.65-78.61-60.46-129.62c-3.36-3.45-38.55-30.87-42.15-33.42C1407.88,266.78,1250.83,157.6,1250.83,157.6Z"/><path class="cls-30" d="M848.82,149l.42-139s205.33,134.54,235.54,165.39c66.33,67.71,66.12,137,66.12,137l-.41,138.66s-10.64-78.61-60.45-129.62c-3.37-3.45-38.56-30.87-42.15-33.42C1005.87,258.19,848.82,149,848.82,149Z"/></svg>