<svg id="Layer_1" data-name="Layer 1" xmlns="http://www.w3.org/2000/svg" xmlns:xlink="http://www.w3.org/1999/xlink" viewBox="0 0 1920 1080"><defs><style>.cls-1,.cls-10,.cls-11,.cls-12,.cls-15,.cls-17,.cls-19,.cls-2,.cls-20,.cls-21,.cls-22,.cls-23,.cls-24,.cls-27,.cls-28,.cls-29,.cls-3,.cls-30,.cls-31,.cls-32,.cls-33,.cls-34,.cls-36,.cls-37,.cls-38,.cls-39,.cls-4,.cls-40,.cls-41,.cls-43,.cls-44,.cls-46,.cls-47,.cls-48,.cls-5,.cls-50,.cls-51,.cls-52,.cls-54,.cls-55,.cls-56,.cls-57,.cls-58,.cls-59,.cls-60,.cls-62,.cls-63,.cls-64,.cls-65,.cls-66,.cls-67,.cls-69,.cls-70,.cls-72,.cls-73,.cls-74,.cls-75,.cls-76,.cls-77,.cls-78,.cls-79,.cls-8,.cls-81,.cls-82,.cls-83,.cls-84,.cls-85,.cls-86,.cls-89,.cls-9,.cls-90,.cls-91,.cls-93{opacity:0.43;}.cls-1{fill:url(#linear-gradient);}.cls-2{fill:url(#linear-gradient-2);}.cls-3{fill:url(#linear-gradient-3);}.cls-4{fill:url(#linear-gradient-4);}.cls-5{fill:url(#linear-gradient-5);}.cls-6{fill:url(#linear-gradient-6);}.cls-7{fill:url(#linear-gradient-7);}.cls-8{fill:url(#linear-gradient-8);}.cls-9{fill:url(#linear-gradient-9);}.cls-10{fill:url(#linear-gradient-10);}.cls-11{fill:url(#linear-gradient-11);}.cls-12{fill:url(#linear-gradient-12);}.cls-13{fill:url(#linear-gradient-13);}.cls-14{fill:url(#linear-gradient-14);}.cls-15{fill:url(#linear-gradient-15);}.cls-16{opacity:0.05;fill:url(#linear-gradient-16);}.cls-17{fill:url(#linear-gradient-17);}.cls-18{fill:url(#linear-gradient-18);}.cls-19{fill:url(#linear-gradient-19);}.cls-20{fill:url(#linear-gradient-20);}.cls-21{fill:url(#linear-gradient-21);}.cls-22{fill:url(#linear-gradient-22);}.cls-23{fill:url(#linear-gradient-23);}.cls-24{fill:url(#linear-gradient-24);}.cls-25{fill:url(#linear-gradient-25);}.cls-26{fill:url(#linear-gradient-26);}.cls-27{fill:url(#linear-gradient-27);}.cls-29{fill:url(#linear-gradient-28);}.cls-30{fill:url(#linear-gradient-29);}.cls-31{fill:url(#linear-gradient-30);}.cls-32{fill:url(#linear-gradient-31);}.cls-33{fill:url(#linear-gradient-32);}.cls-34{fill:url(#linear-gradient-33);}.cls-35{fill:url(#linear-gradient-34);}.cls-36{fill:url(#linear-gradient-35);}.cls-37{fill:url(#linear-gradient-36);}.cls-38{fill:url(#linear-gradient-37);}.cls-39{fill:url(#linear-gradient-38);}.cls-40{fill:url(#linear-gradient-39);}.cls-41{fill:url(#linear-gradient-40);}.cls-42{fill:url(#linear-gradient-41);}.cls-43{fill:url(#linear-gradient-42);}.cls-44{fill:url(#linear-gradient-43);}.cls-45{fill:url(#linear-gradient-44);}.cls-46{fill:url(#linear-gradient-45);}.cls-47{fill:url(#linear-gradient-46);}.cls-48{fill:url(#linear-gradient-47);}.cls-49{fill:url(#linear-gradient-48);}.cls-50{fill:url(#linear-gradient-49);}.cls-51{fill:url(#linear-gradient-50);}.cls-52{fill:url(#linear-gradient-51);}.cls-53{fill:url(#linear-gradient-52);}.cls-54{fill:url(#linear-gradient-53);}.cls-55{fill:url(#linear-gradient-54);}.cls-56{fill:url(#linear-gradient-55);}.cls-57{fill:url(#linear-gradient-56);}.cls-58{fill:url(#linear-gradient-57);}.cls-59{fill:url(#linear-gradient-58);}.cls-60{fill:url(#linear-gradient-59);}.cls-61{fill:url(#linear-gradient-60);}.cls-62{fill:url(#linear-gradient-61);}.cls-63{fill:url(#linear-gradient-62);}.cls-64{fill:url(#linear-gradient-63);}.cls-65{fill:url(#linear-gradient-64);}.cls-66{fill:url(#linear-gradient-65);}.cls-67{fill:url(#linear-gradient-66);}.cls-68{fill:url(#linear-gradient-67);}.cls-69{fill:url(#linear-gradient-68);}.cls-70{fill:url(#linear-gradient-69);}.cls-71{fill:url(#linear-gradient-70);}.cls-72{fill:url(#linear-gradient-71);}.cls-73{fill:url(#linear-gradient-72);}.cls-74{fill:url(#linear-gradient-73);}.cls-75{fill:url(#linear-gradient-74);}.cls-76{fill:url(#linear-gradient-75);}.cls-77{fill:url(#linear-gradient-76);}.cls-78{fill:url(#linear-gradient-77);}.cls-79{fill:url(#linear-gradient-78);}.cls-80{fill:url(#linear-gradient-79);}.cls-81{fill:url(#linear-gradient-80);}.cls-82{fill:url(#linear-gradient-81);}.cls-83{fill:url(#linear-gradient-82);}.cls-84{fill:url(#linear-gradient-83);}.cls-85{fill:url(#linear-gradient-84);}.cls-86{fill:url(#linear-gradient-85);}.cls-87{fill:url(#linear-gradient-86);}.cls-88{fill:url(#linear-gradient-87);}.cls-89{fill:url(#linear-gradient-88);}.cls-90{fill:url(#linear-gradient-89);}.cls-91{fill:url(#linear-gradient-90);}.cls-92{fill:url(#linear-gradient-91);}.cls-93{fill:url(#linear-gradient-92);}</style><linearGradient id="linear-gradient" x1="67.28" y1="234.07" x2="261.94" y2="234.07" gradientUnits="userSpaceOnUse"><stop offset="0" stop-color="#d84128"/><stop offset="0.21" stop-color="#912c1b"/><stop offset="0.46" stop-color="#44140d"/><stop offset="0.63" stop-color="#130603"/><stop offset="0.72"/></linearGradient><linearGradient id="linear-gradient-2" x1="-0.51" y1="138.28" x2="261.55" y2="138.28" gradientUnits="userSpaceOnUse"><stop offset="0.44"/><stop offset="0.55" stop-color="#40130c"/><stop offset="0.67" stop-color="#762416"/><stop offset="0.77" stop-color="#a1301e"/><stop offset="0.86" stop-color="#bf3923"/><stop offset="0.94" stop-color="#d13f27"/><stop offset="1" stop-color="#d84128"/></linearGradient><linearGradient id="linear-gradient-3" x1="97.98" y1="412.47" x2="360.92" y2="412.47" xlink:href="#linear-gradient"/><linearGradient id="linear-gradient-4" x1="98.2" y1="484.81" x2="361.14" y2="484.81" xlink:href="#linear-gradient"/><linearGradient id="linear-gradient-5" x1="105.42" y1="316.46" x2="300.13" y2="316.46" xlink:href="#linear-gradient"/><linearGradient id="linear-gradient-6" x1="98.47" y1="372.83" x2="360.53" y2="372.83" xlink:href="#linear-gradient"/><linearGradient id="linear-gradient-7" x1="98.76" y1="300.49" x2="360.82" y2="300.49" xlink:href="#linear-gradient"/><linearGradient id="linear-gradient-8" x1="98.63" y1="739.8" x2="293.3" y2="739.8" xlink:href="#linear-gradient"/><linearGradient id="linear-gradient-9" x1="4520.63" y1="683.64" x2="4783.57" y2="683.64" gradientTransform="matrix(-1, 0, 0, 1, 4882.2, 0)" gradientUnits="userSpaceOnUse"><stop offset="0"/><stop offset="0.39" stop-color="#020100"/><stop offset="0.52" stop-color="#090302"/><stop offset="0.62" stop-color="#140604"/><stop offset="0.7" stop-color="#250b07"/><stop offset="0.77" stop-color="#3b120b"/><stop offset="0.83" stop-color="#571a10"/><stop offset="0.89" stop-color="#772416"/><stop offset="0.94" stop-color="#9d2f1d"/><stop offset="0.98" stop-color="#c63c25"/><stop offset="1" stop-color="#d84128"/></linearGradient><linearGradient id="linear-gradient-10" x1="98.41" y1="755.99" x2="361.35" y2="755.99" xlink:href="#linear-gradient"/><linearGradient id="linear-gradient-11" x1="166.37" y1="587.64" x2="361.08" y2="587.64" xlink:href="#linear-gradient"/><linearGradient id="linear-gradient-12" x1="4514.45" y1="644.01" x2="4776.51" y2="644.01" xlink:href="#linear-gradient-9"/><linearGradient id="linear-gradient-13" x1="98.74" y1="571.66" x2="360.8" y2="571.66" xlink:href="#linear-gradient"/><linearGradient id="linear-gradient-14" x1="-0.57" y1="1046.94" x2="194.09" y2="1046.94" xlink:href="#linear-gradient"/><linearGradient id="linear-gradient-15" x1="-0.57" y1="990.54" x2="262.37" y2="990.54" xlink:href="#linear-gradient"/><linearGradient id="linear-gradient-16" x1="67.39" y1="822.19" x2="262.1" y2="822.19" xlink:href="#linear-gradient"/><linearGradient id="linear-gradient-17" x1="0.04" y1="878.56" x2="262.1" y2="878.56" xlink:href="#linear-gradient"/><linearGradient id="linear-gradient-18" x1="-0.24" y1="806.21" x2="261.82" y2="806.21" xlink:href="#linear-gradient"/><linearGradient id="linear-gradient-19" x1="-1" y1="177.92" x2="261.94" y2="177.92" xlink:href="#linear-gradient"/><linearGradient id="linear-gradient-20" x1="469.28" y1="233.07" x2="663.94" y2="233.07" xlink:href="#linear-gradient"/><linearGradient id="linear-gradient-21" x1="401.49" y1="137.28" x2="663.55" y2="137.28" xlink:href="#linear-gradient-2"/><linearGradient id="linear-gradient-22" x1="528.89" y1="-154.65" x2="536.18" y2="253.96" xlink:href="#linear-gradient-2"/><linearGradient id="linear-gradient-23" x1="568.26" y1="467.62" x2="762.92" y2="467.62" xlink:href="#linear-gradient"/><linearGradient id="linear-gradient-24" x1="499.98" y1="411.47" x2="762.92" y2="411.47" xlink:href="#linear-gradient"/><linearGradient id="linear-gradient-25" x1="500.2" y1="483.81" x2="763.14" y2="483.81" xlink:href="#linear-gradient"/><linearGradient id="linear-gradient-26" x1="500.47" y1="371.83" x2="762.53" y2="371.83" xlink:href="#linear-gradient"/><linearGradient id="linear-gradient-27" x1="500.76" y1="299.49" x2="762.82" y2="299.49" xlink:href="#linear-gradient"/><linearGradient id="linear-gradient-28" x1="500.63" y1="682.64" x2="763.57" y2="682.64" xlink:href="#linear-gradient"/><linearGradient id="linear-gradient-29" x1="500.41" y1="754.99" x2="763.35" y2="754.99" xlink:href="#linear-gradient"/><linearGradient id="linear-gradient-30" x1="501.02" y1="643.01" x2="763.08" y2="643.01" xlink:href="#linear-gradient"/><linearGradient id="linear-gradient-31" x1="500.74" y1="570.66" x2="762.8" y2="570.66" xlink:href="#linear-gradient"/><linearGradient id="linear-gradient-32" x1="469.39" y1="821.19" x2="664.1" y2="821.19" xlink:href="#linear-gradient"/><linearGradient id="linear-gradient-33" x1="4312.69" y1="877.56" x2="4574.75" y2="877.56" gradientTransform="matrix(-1, 0, 0, 1, 4882.2, 0)" gradientUnits="userSpaceOnUse"><stop offset="0.17"/><stop offset="0.35" stop-color="#40130c"/><stop offset="0.51" stop-color="#762416"/><stop offset="0.66" stop-color="#a1301e"/><stop offset="0.8" stop-color="#bf3923"/><stop offset="0.92" stop-color="#d13f27"/><stop offset="1" stop-color="#d84128"/></linearGradient><linearGradient id="linear-gradient-34" x1="401.76" y1="805.21" x2="663.82" y2="805.21" xlink:href="#linear-gradient"/><linearGradient id="linear-gradient-35" x1="401" y1="176.92" x2="663.94" y2="176.92" xlink:href="#linear-gradient"/><linearGradient id="linear-gradient-36" x1="847.28" y1="233.07" x2="1041.94" y2="233.07" xlink:href="#linear-gradient"/><linearGradient id="linear-gradient-37" x1="779.49" y1="137.28" x2="1041.55" y2="137.28" xlink:href="#linear-gradient"/><linearGradient id="linear-gradient-38" x1="877.98" y1="411.47" x2="1140.92" y2="411.47" xlink:href="#linear-gradient"/><linearGradient id="linear-gradient-39" x1="878.2" y1="483.81" x2="1141.14" y2="483.81" xlink:href="#linear-gradient"/><linearGradient id="linear-gradient-40" x1="878.47" y1="315.46" x2="1073.18" y2="315.46" xlink:href="#linear-gradient"/><linearGradient id="linear-gradient-41" x1="878.47" y1="371.83" x2="1140.53" y2="371.83" xlink:href="#linear-gradient"/><linearGradient id="linear-gradient-42" x1="878.76" y1="299.49" x2="1140.82" y2="299.49" xlink:href="#linear-gradient"/><linearGradient id="linear-gradient-43" x1="878.63" y1="738.8" x2="1073.3" y2="738.8" xlink:href="#linear-gradient"/><linearGradient id="linear-gradient-44" x1="865.42" y1="682.64" x2="1128.36" y2="682.64" gradientUnits="userSpaceOnUse"><stop offset="0" stop-color="#d84128"/><stop offset="0.02" stop-color="#cd3e26"/><stop offset="0.14" stop-color="#902b1b"/><stop offset="0.26" stop-color="#5c1c11"/><stop offset="0.36" stop-color="#34100a"/><stop offset="0.46" stop-color="#180704"/><stop offset="0.55" stop-color="#060201"/><stop offset="0.61"/></linearGradient><linearGradient id="linear-gradient-45" x1="878.41" y1="754.99" x2="1141.35" y2="754.99" xlink:href="#linear-gradient"/><linearGradient id="linear-gradient-46" x1="946.37" y1="586.64" x2="1141.08" y2="586.64" xlink:href="#linear-gradient"/><linearGradient id="linear-gradient-47" x1="879.02" y1="643.01" x2="1141.08" y2="643.01" xlink:href="#linear-gradient"/><linearGradient id="linear-gradient-48" x1="878.74" y1="570.66" x2="1140.8" y2="570.66" xlink:href="#linear-gradient"/><linearGradient id="linear-gradient-49" x1="779.65" y1="917.19" x2="1042.59" y2="917.19" gradientUnits="userSpaceOnUse"><stop offset="0.09"/><stop offset="0.18" stop-color="#0c0402"/><stop offset="0.34" stop-color="#2b0d08"/><stop offset="0.56" stop-color="#5d1c11"/><stop offset="0.81" stop-color="#a2311e"/><stop offset="1" stop-color="#d84128"/></linearGradient><linearGradient id="linear-gradient-50" x1="847.39" y1="821.19" x2="1042.1" y2="821.19" xlink:href="#linear-gradient"/><linearGradient id="linear-gradient-51" x1="3929.19" y1="877.56" x2="4191.25" y2="877.56" gradientTransform="matrix(-1, 0, 0, 1, 4882.2, 0)" gradientUnits="userSpaceOnUse"><stop offset="0"/><stop offset="0.11" stop-color="#140604"/><stop offset="0.33" stop-color="#48160d"/><stop offset="0.63" stop-color="#9b2f1d"/><stop offset="0.85" stop-color="#d84128"/></linearGradient><linearGradient id="linear-gradient-52" x1="779.76" y1="805.21" x2="1041.82" y2="805.21" xlink:href="#linear-gradient"/><linearGradient id="linear-gradient-53" x1="779" y1="176.92" x2="1041.94" y2="176.92" xlink:href="#linear-gradient"/><linearGradient id="linear-gradient-54" x1="1236.28" y1="234.07" x2="1430.94" y2="234.07" xlink:href="#linear-gradient"/><linearGradient id="linear-gradient-55" x1="1168.49" y1="81.91" x2="1363.2" y2="81.91" xlink:href="#linear-gradient"/><linearGradient id="linear-gradient-56" x1="1168.49" y1="138.28" x2="1430.55" y2="138.28" xlink:href="#linear-gradient"/><linearGradient id="linear-gradient-57" x1="1266.98" y1="412.47" x2="1529.92" y2="412.47" xlink:href="#linear-gradient"/><linearGradient id="linear-gradient-58" x1="1267.2" y1="484.81" x2="1530.14" y2="484.81" xlink:href="#linear-gradient"/><linearGradient id="linear-gradient-59" x1="1267.47" y1="316.46" x2="1462.18" y2="316.46" xlink:href="#linear-gradient"/><linearGradient id="linear-gradient-60" x1="1267.47" y1="372.83" x2="1529.53" y2="372.83" xlink:href="#linear-gradient"/><linearGradient id="linear-gradient-61" x1="1267.76" y1="300.49" x2="1529.82" y2="300.49" xlink:href="#linear-gradient"/><linearGradient id="linear-gradient-62" x1="1267.63" y1="739.8" x2="1462.3" y2="739.8" xlink:href="#linear-gradient"/><linearGradient id="linear-gradient-63" x1="3390.52" y1="683.64" x2="3664.87" y2="683.64" xlink:href="#linear-gradient-9"/><linearGradient id="linear-gradient-64" x1="1267.41" y1="755.99" x2="1530.35" y2="755.99" xlink:href="#linear-gradient"/><linearGradient id="linear-gradient-65" x1="1335.37" y1="587.64" x2="1530.08" y2="587.64" xlink:href="#linear-gradient"/><linearGradient id="linear-gradient-66" x1="1268.02" y1="644.01" x2="1530.08" y2="644.01" xlink:href="#linear-gradient"/><linearGradient id="linear-gradient-67" x1="1267.74" y1="571.66" x2="1529.8" y2="571.66" xlink:href="#linear-gradient"/><linearGradient id="linear-gradient-68" x1="1236.39" y1="822.19" x2="1431.1" y2="822.19" xlink:href="#linear-gradient"/><linearGradient id="linear-gradient-69" x1="3531.8" y1="878.56" x2="3793.86" y2="878.56" xlink:href="#linear-gradient-51"/><linearGradient id="linear-gradient-70" x1="1168.76" y1="806.21" x2="1430.82" y2="806.21" xlink:href="#linear-gradient"/><linearGradient id="linear-gradient-71" x1="1168" y1="177.92" x2="1430.94" y2="177.92" xlink:href="#linear-gradient"/><linearGradient id="linear-gradient-72" x1="1628.28" y1="233.07" x2="1822.94" y2="233.07" xlink:href="#linear-gradient"/><linearGradient id="linear-gradient-73" x1="1560.49" y1="80.91" x2="1755.2" y2="80.91" xlink:href="#linear-gradient"/><linearGradient id="linear-gradient-74" x1="1560.49" y1="137.28" x2="1822.55" y2="137.28" xlink:href="#linear-gradient"/><linearGradient id="linear-gradient-75" x1="1560.78" y1="64.94" x2="1822.84" y2="64.94" xlink:href="#linear-gradient-2"/><linearGradient id="linear-gradient-76" x1="1658.98" y1="411.47" x2="1921.92" y2="411.47" xlink:href="#linear-gradient"/><linearGradient id="linear-gradient-77" x1="1659.2" y1="483.81" x2="1922.14" y2="483.81" xlink:href="#linear-gradient"/><linearGradient id="linear-gradient-78" x1="1659.47" y1="315.46" x2="1854.18" y2="315.46" xlink:href="#linear-gradient"/><linearGradient id="linear-gradient-79" x1="1659.47" y1="371.83" x2="1921.53" y2="371.83" xlink:href="#linear-gradient"/><linearGradient id="linear-gradient-80" x1="1659.76" y1="299.49" x2="1921.82" y2="299.49" xlink:href="#linear-gradient"/><linearGradient id="linear-gradient-81" x1="1659.63" y1="738.8" x2="1854.3" y2="738.8" xlink:href="#linear-gradient"/><linearGradient id="linear-gradient-82" x1="1659.63" y1="682.64" x2="1922.57" y2="682.64" xlink:href="#linear-gradient"/><linearGradient id="linear-gradient-83" x1="1659.41" y1="754.99" x2="1922.35" y2="754.99" xlink:href="#linear-gradient"/><linearGradient id="linear-gradient-84" x1="1727.37" y1="586.64" x2="1922.08" y2="586.64" xlink:href="#linear-gradient"/><linearGradient id="linear-gradient-85" x1="1660.02" y1="643.01" x2="1922.08" y2="643.01" xlink:href="#linear-gradient"/><linearGradient id="linear-gradient-86" x1="1659.74" y1="570.66" x2="1921.8" y2="570.66" xlink:href="#linear-gradient"/><linearGradient id="linear-gradient-87" x1="1560.43" y1="1045.94" x2="1755.09" y2="1045.94" xlink:href="#linear-gradient"/><linearGradient id="linear-gradient-88" x1="1560.43" y1="989.54" x2="1823.37" y2="989.54" xlink:href="#linear-gradient"/><linearGradient id="linear-gradient-89" x1="1628.39" y1="821.19" x2="1823.1" y2="821.19" xlink:href="#linear-gradient"/><linearGradient id="linear-gradient-90" x1="1561.04" y1="877.56" x2="1823.1" y2="877.56" gradientUnits="userSpaceOnUse"><stop offset="0.23" stop-color="#d84128"/><stop offset="0.41" stop-color="#912c1b"/><stop offset="0.61" stop-color="#44140d"/><stop offset="0.75" stop-color="#130603"/><stop offset="0.83"/></linearGradient><linearGradient id="linear-gradient-91" x1="1560.76" y1="805.21" x2="1822.82" y2="805.21" xlink:href="#linear-gradient"/><linearGradient id="linear-gradient-92" x1="1560" y1="176.92" x2="1822.94" y2="176.92" xlink:href="#linear-gradient"/></defs><title>b2</title><rect width="1920" height="1080"/><polygon class="cls-1" points="67.28 247.07 154.14 267.13 261.94 241.59 261.66 201.02 67.28 247.07"/><path d="M261.89,273.27l.27,40.57s-178.45-38.2-204.76-47C-.36,247.38-.5,227.14-.5,227.14l-.28-40.46s9.58,22.88,53,37.51c2.93,1,33.53,8.81,36.66,9.54C125.37,242.22,261.89,273.27,261.89,273.27Z"/><polygon points="194.2 69.3 107.48 49 -0.5 74.25 -0.51 114.82 194.2 69.3"/><path class="cls-2" d="M-.51,114.92V74.34S177.69,113,203.93,121.94c57.63,19.57,57.62,39.81,57.62,39.81v40.47s-9.42-22.92-52.69-37.66c-2.92-1-33.47-8.9-36.59-9.64C135.79,146.33-.51,114.92-.51,114.92Z"/><path d="M-.22,42.57V2S178,40.68,204.22,49.6c57.62,19.57,57.62,39.8,57.62,39.8v40.47S252.41,107,209.14,92.22c-2.92-1-33.47-8.9-36.59-9.64C136.08,74-.22,42.57-.22,42.57Z"/><polygon points="166.26 481.62 253.12 501.68 360.92 476.14 360.64 435.57 166.26 481.62"/><path class="cls-3" d="M360.64,435.48l.28,40.57S182.46,437.85,156.15,429c-57.76-19.41-57.89-39.65-57.89-39.65L98,348.88s9.58,22.89,53,37.52c2.93,1,33.54,8.81,36.66,9.53C224.12,404.43,360.64,435.48,360.64,435.48Z"/><path class="cls-4" d="M360.87,507.82l.27,40.57s-178.45-38.2-204.76-47c-57.76-19.42-57.9-39.66-57.9-39.66l-.28-40.46s9.58,22.88,53,37.51c2.93,1,33.53,8.81,36.66,9.54C224.35,476.77,360.87,507.82,360.87,507.82Z"/><polygon class="cls-5" points="293.18 303.85 206.46 283.55 98.48 308.8 98.47 349.38 293.18 303.85"/><path class="cls-6" d="M98.47,349.47V308.89s178.19,38.68,204.43,47.6c57.63,19.57,57.62,39.81,57.62,39.81v40.47s-9.42-22.92-52.69-37.66c-2.92-1-33.47-8.9-36.59-9.64C234.77,380.88,98.47,349.47,98.47,349.47Z"/><path class="cls-7" d="M98.76,277.12V236.55S277,275.23,303.2,284.15c57.62,19.57,57.62,39.8,57.62,39.8v40.47s-9.42-22.91-52.69-37.65c-2.92-1-33.47-8.9-36.59-9.64C235.06,308.54,98.76,277.12,98.76,277.12Z"/><polygon class="cls-8" points="293.3 752.79 206.43 772.86 98.63 747.32 98.91 706.74 293.3 752.79"/><path class="cls-9" d="M98.91,706.65l-.28,40.58S277.09,709,303.4,700.18c57.76-19.42,57.9-39.65,57.9-39.65l.27-40.47S352,643,308.62,657.57c-2.93,1-33.53,8.81-36.66,9.54C235.43,675.6,98.91,706.65,98.91,706.65Z"/><path class="cls-10" d="M98.69,779l-.28,40.58s178.46-38.2,204.77-47.05c57.75-19.41,57.89-39.65,57.89-39.65l.28-40.47s-9.58,22.89-53,37.52c-2.94,1-33.54,8.81-36.66,9.53C235.21,748,98.69,779,98.69,779Z"/><polygon class="cls-11" points="166.37 575.02 253.09 554.73 361.07 579.98 361.08 620.55 166.37 575.02"/><path class="cls-12" d="M361.08,620.64V580.07s-178.18,38.68-204.43,47.6C99,647.24,99,667.47,99,667.47v40.47s9.42-22.91,52.69-37.66c2.92-1,33.47-8.89,36.59-9.63C224.78,652.06,361.08,620.64,361.08,620.64Z"/><path class="cls-13" d="M360.8,548.3V507.73S182.6,546.41,156.35,555.32c-57.62,19.58-57.61,39.81-57.61,39.81V635.6s9.41-22.91,52.69-37.66c2.92-1,33.47-8.9,36.59-9.63C224.5,579.72,360.8,548.3,360.8,548.3Z"/><polygon class="cls-14" points="194.09 1059.94 107.23 1080 -0.57 1054.46 -0.29 1013.89 194.09 1059.94"/><path d="M-.07,941.2l-.28,40.58s178.46-38.2,204.77-47c57.76-19.42,57.9-39.65,57.9-39.65l.27-40.47S253,877.5,209.64,892.13c-2.93,1-33.53,8.8-36.66,9.53C136.45,910.15-.07,941.2-.07,941.2Z"/><path class="cls-15" d="M-.29,1013.55l-.28,40.57s178.46-38.2,204.77-47c57.75-19.41,57.89-39.65,57.89-39.65l.28-40.47s-9.58,22.89-53,37.52c-2.93,1-33.53,8.81-36.65,9.53C136.23,982.5-.29,1013.55-.29,1013.55Z"/><polygon class="cls-16" points="67.39 809.58 154.11 789.28 262.09 814.53 262.1 855.1 67.39 809.58"/><path class="cls-17" d="M262.1,855.19V814.62S83.91,853.3,57.66,862.22C0,881.79,0,902,0,902v40.47s9.42-22.91,52.69-37.65c2.92-1,33.47-8.9,36.59-9.64C125.8,886.61,262.1,855.19,262.1,855.19Z"/><path class="cls-18" d="M261.82,782.85V742.28S83.62,781,57.37,789.87C-.25,809.45-.24,829.68-.24,829.68v40.47s9.41-22.91,52.69-37.66c2.92-1,33.47-8.9,36.59-9.63C125.52,814.27,261.82,782.85,261.82,782.85Z"/><path class="cls-19" d="M261.66,200.93l.28,40.57S83.48,203.3,57.17,194.45C-.59,175-.72,154.8-.72,154.8L-1,114.33s9.58,22.89,53,37.52c2.93,1,33.54,8.81,36.66,9.53C125.14,169.88,261.66,200.93,261.66,200.93Z"/><polygon class="cls-20" points="469.28 246.07 556.14 266.13 663.94 240.59 663.66 200.02 469.28 246.07"/><path d="M663.89,272.27l.27,40.57s-178.45-38.2-204.76-47c-57.76-19.42-57.9-39.66-57.9-39.66l-.28-40.46s9.58,22.88,53,37.51c2.93,1,33.53,8.81,36.66,9.54C527.37,241.22,663.89,272.27,663.89,272.27Z"/><polygon points="596.2 68.3 509.48 48 401.5 73.25 401.49 113.82 596.2 68.3"/><path class="cls-21" d="M401.49,113.92V73.34S579.69,112,605.93,120.94c57.63,19.57,57.62,39.81,57.62,39.81v40.47s-9.42-22.92-52.69-37.66c-2.92-1-33.47-8.9-36.59-9.64C537.79,145.33,401.49,113.92,401.49,113.92Z"/><path class="cls-22" d="M401.78,41.57V1S580,39.68,606.22,48.6c57.62,19.57,57.62,39.8,57.62,39.8v40.47S654.41,106,611.14,91.22c-2.92-1-33.47-8.9-36.59-9.64C538.08,73,401.78,41.57,401.78,41.57Z"/><polygon class="cls-23" points="568.26 480.62 655.12 500.68 762.92 475.14 762.64 434.57 568.26 480.62"/><path class="cls-24" d="M762.64,434.48l.28,40.57S584.46,436.85,558.15,428c-57.76-19.41-57.89-39.65-57.89-39.65L500,347.88s9.58,22.89,52.95,37.52c2.93,1,33.54,8.81,36.66,9.53C626.12,403.43,762.64,434.48,762.64,434.48Z"/><path class="cls-25" d="M762.87,506.82l.27,40.57s-178.45-38.2-204.76-47c-57.76-19.42-57.9-39.66-57.9-39.66l-.28-40.46s9.58,22.88,53,37.51c2.93,1,33.53,8.81,36.66,9.54C626.35,475.77,762.87,506.82,762.87,506.82Z"/><polygon points="695.18 302.85 608.46 282.55 500.48 307.8 500.47 348.38 695.18 302.85"/><path class="cls-26" d="M500.47,348.47V307.89s178.19,38.68,204.43,47.6c57.63,19.57,57.62,39.81,57.62,39.81v40.47s-9.42-22.92-52.69-37.66c-2.92-1-33.47-8.9-36.59-9.64C636.77,379.88,500.47,348.47,500.47,348.47Z"/><path class="cls-27" d="M500.76,276.12V235.55S679,274.23,705.2,283.15c57.62,19.57,57.62,39.8,57.62,39.8v40.47s-9.42-22.91-52.69-37.65c-2.92-1-33.47-8.9-36.59-9.64C637.06,307.54,500.76,276.12,500.76,276.12Z"/><polygon class="cls-28" points="695.3 751.79 608.43 771.86 500.63 746.32 500.91 705.74 695.3 751.79"/><path class="cls-29" d="M500.91,705.65l-.28,40.58S679.09,708,705.4,699.18c57.76-19.42,57.9-39.65,57.9-39.65l.27-40.47s-9.58,22.89-53,37.51c-2.93,1-33.53,8.81-36.66,9.54C637.43,674.6,500.91,705.65,500.91,705.65Z"/><path class="cls-30" d="M500.69,778l-.28,40.58s178.46-38.2,204.77-47.05c57.75-19.41,57.89-39.65,57.89-39.65l.28-40.47s-9.58,22.89-53,37.52c-2.94,1-33.54,8.81-36.66,9.53C637.21,747,500.69,778,500.69,778Z"/><polygon class="cls-28" points="568.37 574.02 655.09 553.73 763.07 578.98 763.08 619.55 568.37 574.02"/><path class="cls-31" d="M763.08,619.64V579.07s-178.18,38.68-204.43,47.6C501,646.24,501,666.47,501,666.47v40.47s9.42-22.91,52.69-37.66c2.92-1,33.47-8.89,36.59-9.63C626.78,651.06,763.08,619.64,763.08,619.64Z"/><path class="cls-32" d="M762.8,547.3V506.73S584.6,545.41,558.35,554.32c-57.62,19.58-57.61,39.81-57.61,39.81V634.6s9.41-22.91,52.69-37.66c2.92-1,33.47-8.9,36.59-9.63C626.5,578.72,762.8,547.3,762.8,547.3Z"/><polygon points="596.09 1058.94 509.23 1079 401.43 1053.46 401.71 1012.89 596.09 1058.94"/><path d="M401.93,940.2l-.28,40.58s178.46-38.2,204.77-47c57.76-19.42,57.9-39.65,57.9-39.65l.27-40.47s-9.58,22.89-53,37.52c-2.93,1-33.53,8.8-36.66,9.53C538.45,909.15,401.93,940.2,401.93,940.2Z"/><path d="M401.71,1012.55l-.28,40.57s178.46-38.2,204.77-47c57.75-19.41,57.89-39.65,57.89-39.65l.28-40.47s-9.58,22.89-53,37.52c-2.93,1-33.53,8.81-36.65,9.53C538.23,981.5,401.71,1012.55,401.71,1012.55Z"/><polygon class="cls-33" points="469.39 808.58 556.11 788.28 664.09 813.53 664.1 854.1 469.39 808.58"/><path class="cls-34" d="M664.1,854.19V813.62s-178.18,38.68-204.43,47.6C402,880.79,402,901,402,901v40.47s9.42-22.91,52.69-37.65c2.92-1,33.47-8.9,36.59-9.64C527.8,885.61,664.1,854.19,664.1,854.19Z"/><path class="cls-35" d="M663.82,781.85V741.28S485.62,780,459.37,788.87c-57.62,19.58-57.61,39.81-57.61,39.81v40.47s9.41-22.91,52.69-37.66c2.92-1,33.47-8.9,36.59-9.63C527.52,813.27,663.82,781.85,663.82,781.85Z"/><path class="cls-36" d="M663.66,199.93l.28,40.57s-178.46-38.2-204.77-47.05C401.41,174,401.28,153.8,401.28,153.8L401,113.33s9.58,22.89,52.95,37.52c2.93,1,33.54,8.81,36.66,9.53C527.14,168.88,663.66,199.93,663.66,199.93Z"/><polygon class="cls-37" points="847.28 246.07 934.14 266.13 1041.94 240.59 1041.66 200.02 847.28 246.07"/><path d="M1041.89,272.27l.27,40.57s-178.45-38.2-204.76-47c-57.76-19.42-57.9-39.66-57.9-39.66l-.28-40.46s9.58,22.88,53,37.51c2.93,1,33.53,8.81,36.66,9.54C905.37,241.22,1041.89,272.27,1041.89,272.27Z"/><polygon points="974.2 68.3 887.48 48 779.5 73.25 779.49 113.82 974.2 68.3"/><path class="cls-38" d="M779.49,113.92V73.34S957.69,112,983.93,120.94c57.63,19.57,57.62,39.81,57.62,39.81v40.47s-9.42-22.92-52.69-37.66c-2.92-1-33.47-8.9-36.59-9.64C915.79,145.33,779.49,113.92,779.49,113.92Z"/><path d="M779.78,41.57V1S958,39.68,984.22,48.6c57.62,19.57,57.62,39.8,57.62,39.8v40.47s-9.42-22.91-52.69-37.65c-2.92-1-33.47-8.9-36.59-9.64C916.08,73,779.78,41.57,779.78,41.57Z"/><polygon points="946.26 480.62 1033.12 500.68 1140.92 475.14 1140.64 434.57 946.26 480.62"/><path class="cls-39" d="M1140.64,434.48l.28,40.57S962.46,436.85,936.15,428c-57.76-19.41-57.89-39.65-57.89-39.65L878,347.88s9.58,22.89,52.95,37.52c2.93,1,33.54,8.81,36.66,9.53C1004.12,403.43,1140.64,434.48,1140.64,434.48Z"/><path class="cls-40" d="M1140.87,506.82l.27,40.57s-178.45-38.2-204.76-47c-57.76-19.42-57.9-39.66-57.9-39.66l-.28-40.46s9.58,22.88,53,37.51c2.93,1,33.53,8.81,36.66,9.54C1004.35,475.77,1140.87,506.82,1140.87,506.82Z"/><polygon class="cls-41" points="1073.18 302.85 986.46 282.55 878.48 307.8 878.47 348.38 1073.18 302.85"/><path class="cls-42" d="M878.47,348.47V307.89s178.19,38.68,204.43,47.6c57.63,19.57,57.62,39.81,57.62,39.81v40.47s-9.42-22.92-52.69-37.66c-2.92-1-33.47-8.9-36.59-9.64C1014.77,379.88,878.47,348.47,878.47,348.47Z"/><path class="cls-43" d="M878.76,276.12V235.55s178.18,38.68,204.43,47.6c57.62,19.57,57.62,39.8,57.62,39.8v40.47s-9.42-22.91-52.69-37.65c-2.92-1-33.47-8.9-36.59-9.64C1015.06,307.54,878.76,276.12,878.76,276.12Z"/><polygon class="cls-44" points="1073.3 751.79 986.43 771.86 878.63 746.32 878.91 705.74 1073.3 751.79"/><path class="cls-45" d="M878.91,705.65l-.28,40.58S1057.09,708,1083.4,699.18c57.76-19.42,57.9-39.65,57.9-39.65l.27-40.47s-9.58,22.89-53,37.51c-2.93,1-33.53,8.81-36.66,9.54C1015.43,674.6,878.91,705.65,878.91,705.65Z"/><path class="cls-46" d="M878.69,778l-.28,40.58s178.46-38.2,204.77-47.05c57.75-19.41,57.89-39.65,57.89-39.65l.28-40.47s-9.58,22.89-52.95,37.52c-2.94,1-33.54,8.81-36.66,9.53C1015.21,747,878.69,778,878.69,778Z"/><polygon class="cls-47" points="946.37 574.02 1033.09 553.73 1141.07 578.98 1141.08 619.55 946.37 574.02"/><path class="cls-48" d="M1141.08,619.64V579.07s-178.18,38.68-204.43,47.6C879,646.24,879,666.47,879,666.47v40.47s9.42-22.91,52.69-37.66c2.92-1,33.47-8.89,36.59-9.63C1004.78,651.06,1141.08,619.64,1141.08,619.64Z"/><path class="cls-49" d="M1140.8,547.3V506.73S962.6,545.41,936.35,554.32c-57.62,19.58-57.61,39.81-57.61,39.81V634.6s9.41-22.91,52.69-37.66c2.92-1,33.47-8.9,36.59-9.63C1004.5,578.72,1140.8,547.3,1140.8,547.3Z"/><polygon points="974.09 1058.94 887.23 1079 779.43 1053.46 779.71 1012.89 974.09 1058.94"/><path class="cls-50" d="M779.93,940.2l-.28,40.58s178.46-38.2,204.77-47c57.76-19.42,57.9-39.65,57.9-39.65l.27-40.47s-9.58,22.89-52.95,37.52c-2.93,1-33.53,8.8-36.66,9.53C916.45,909.15,779.93,940.2,779.93,940.2Z"/><path d="M779.71,1012.55l-.28,40.57s178.46-38.2,204.77-47c57.75-19.41,57.89-39.65,57.89-39.65l.28-40.47s-9.58,22.89-53,37.52c-2.93,1-33.53,8.81-36.65,9.53C916.23,981.5,779.71,1012.55,779.71,1012.55Z"/><polygon class="cls-51" points="847.39 808.58 934.11 788.28 1042.09 813.53 1042.1 854.1 847.39 808.58"/><path class="cls-52" d="M1042.1,854.19V813.62s-178.18,38.68-204.43,47.6C780,880.79,780,901,780,901v40.47s9.42-22.91,52.69-37.65c2.92-1,33.47-8.9,36.59-9.64C905.8,885.61,1042.1,854.19,1042.1,854.19Z"/><path class="cls-53" d="M1041.82,781.85V741.28S863.62,780,837.37,788.87c-57.62,19.58-57.61,39.81-57.61,39.81v40.47s9.41-22.91,52.69-37.66c2.92-1,33.47-8.9,36.59-9.63C905.52,813.27,1041.82,781.85,1041.82,781.85Z"/><path class="cls-54" d="M1041.66,199.93l.28,40.57s-178.46-38.2-204.77-47.05C779.41,174,779.28,153.8,779.28,153.8L779,113.33s9.58,22.89,53,37.52c2.93,1,33.54,8.81,36.66,9.53C905.14,168.88,1041.66,199.93,1041.66,199.93Z"/><polygon class="cls-55" points="1236.28 247.07 1323.14 267.13 1430.94 241.59 1430.66 201.02 1236.28 247.07"/><path d="M1430.89,273.27l.27,40.57s-178.45-38.2-204.76-47c-57.76-19.42-57.9-39.66-57.9-39.66l-.28-40.46s9.58,22.88,53,37.51c2.93,1,33.53,8.81,36.66,9.54C1294.37,242.22,1430.89,273.27,1430.89,273.27Z"/><polygon class="cls-56" points="1363.2 69.3 1276.48 49 1168.5 74.25 1168.49 114.82 1363.2 69.3"/><path class="cls-57" d="M1168.49,114.92V74.34s178.19,38.68,204.43,47.6c57.63,19.57,57.62,39.81,57.62,39.81v40.47s-9.42-22.92-52.69-37.66c-2.92-1-33.47-8.9-36.59-9.64C1304.79,146.33,1168.49,114.92,1168.49,114.92Z"/><path d="M1168.78,42.57V2S1347,40.68,1373.22,49.6c57.62,19.57,57.62,39.8,57.62,39.8v40.47s-9.42-22.91-52.69-37.65c-2.92-1-33.47-8.9-36.59-9.64C1305.08,74,1168.78,42.57,1168.78,42.57Z"/><polygon points="1335.26 481.62 1422.12 501.68 1529.92 476.14 1529.64 435.57 1335.26 481.62"/><path class="cls-58" d="M1529.64,435.48l.28,40.57s-178.46-38.2-204.77-47.05c-57.76-19.41-57.89-39.65-57.89-39.65l-.28-40.47s9.58,22.89,53,37.52c2.93,1,33.54,8.81,36.66,9.53C1393.12,404.43,1529.64,435.48,1529.64,435.48Z"/><path class="cls-59" d="M1529.87,507.82l.27,40.57s-178.45-38.2-204.76-47c-57.76-19.42-57.9-39.66-57.9-39.66l-.28-40.46s9.58,22.88,53,37.51c2.93,1,33.53,8.81,36.66,9.54C1393.35,476.77,1529.87,507.82,1529.87,507.82Z"/><polygon class="cls-60" points="1462.18 303.85 1375.46 283.55 1267.48 308.8 1267.47 349.38 1462.18 303.85"/><path class="cls-61" d="M1267.47,349.47V308.89s178.19,38.68,204.43,47.6c57.63,19.57,57.62,39.81,57.62,39.81v40.47s-9.42-22.92-52.69-37.66c-2.92-1-33.47-8.9-36.59-9.64C1403.77,380.88,1267.47,349.47,1267.47,349.47Z"/><path class="cls-62" d="M1267.76,277.12V236.55s178.18,38.68,204.43,47.6c57.62,19.57,57.62,39.8,57.62,39.8v40.47s-9.42-22.91-52.69-37.65c-2.92-1-33.47-8.9-36.59-9.64C1404.06,308.54,1267.76,277.12,1267.76,277.12Z"/><polygon class="cls-63" points="1462.3 752.79 1375.43 772.86 1267.63 747.32 1267.91 706.74 1462.3 752.79"/><path class="cls-64" d="M1267.91,706.65l-.28,40.58S1446.09,709,1472.4,700.18c57.76-19.42,57.9-39.65,57.9-39.65l.27-40.47s-9.58,22.89-53,37.51c-2.93,1-33.53,8.81-36.66,9.54C1404.43,675.6,1267.91,706.65,1267.91,706.65Z"/><path class="cls-65" d="M1267.69,779l-.28,40.58s178.46-38.2,204.77-47.05c57.75-19.41,57.89-39.65,57.89-39.65l.28-40.47s-9.58,22.89-52.95,37.52c-2.94,1-33.54,8.81-36.66,9.53C1404.21,748,1267.69,779,1267.69,779Z"/><polygon class="cls-66" points="1335.37 575.02 1422.09 554.73 1530.07 579.98 1530.08 620.55 1335.37 575.02"/><path class="cls-67" d="M1530.08,620.64V580.07s-178.18,38.68-204.43,47.6c-57.62,19.57-57.62,39.8-57.62,39.8v40.47s9.42-22.91,52.69-37.66c2.92-1,33.47-8.89,36.59-9.63C1393.78,652.06,1530.08,620.64,1530.08,620.64Z"/><path class="cls-68" d="M1529.8,548.3V507.73s-178.19,38.68-204.44,47.59c-57.62,19.58-57.61,39.81-57.61,39.81V635.6s9.41-22.91,52.69-37.66c2.92-1,33.47-8.9,36.59-9.63C1393.5,579.72,1529.8,548.3,1529.8,548.3Z"/><polygon points="1363.09 1059.94 1276.23 1080 1168.43 1054.46 1168.71 1013.89 1363.09 1059.94"/><path d="M1168.93,941.2l-.28,40.58s178.46-38.2,204.77-47c57.76-19.42,57.9-39.65,57.9-39.65l.27-40.47s-9.58,22.89-52.95,37.52c-2.93,1-33.53,8.8-36.66,9.53C1305.45,910.15,1168.93,941.2,1168.93,941.2Z"/><path d="M1168.71,1013.55l-.28,40.57s178.46-38.2,204.77-47c57.75-19.41,57.89-39.65,57.89-39.65l.28-40.47s-9.58,22.89-53,37.52c-2.93,1-33.53,8.81-36.65,9.53C1305.23,982.5,1168.71,1013.55,1168.71,1013.55Z"/><polygon class="cls-69" points="1236.39 809.58 1323.11 789.28 1431.09 814.53 1431.1 855.1 1236.39 809.58"/><path class="cls-70" d="M1431.1,855.19V814.62s-178.18,38.68-204.43,47.6C1169,881.79,1169,902,1169,902v40.47s9.42-22.91,52.69-37.65c2.92-1,33.47-8.9,36.59-9.64C1294.8,886.61,1431.1,855.19,1431.1,855.19Z"/><path class="cls-71" d="M1430.82,782.85V742.28S1252.62,781,1226.37,789.87c-57.62,19.58-57.61,39.81-57.61,39.81v40.47s9.41-22.91,52.69-37.66c2.92-1,33.47-8.9,36.59-9.63C1294.52,814.27,1430.82,782.85,1430.82,782.85Z"/><path class="cls-72" d="M1430.66,200.93l.28,40.57s-178.46-38.2-204.77-47.05c-57.76-19.41-57.89-39.65-57.89-39.65l-.28-40.47s9.58,22.89,53,37.52c2.93,1,33.54,8.81,36.66,9.53C1294.14,169.88,1430.66,200.93,1430.66,200.93Z"/><polygon class="cls-73" points="1628.28 246.07 1715.14 266.13 1822.94 240.59 1822.66 200.02 1628.28 246.07"/><path d="M1822.89,272.27l.27,40.57s-178.45-38.2-204.76-47c-57.76-19.42-57.9-39.66-57.9-39.66l-.28-40.46s9.58,22.88,53,37.51c2.93,1,33.53,8.81,36.66,9.54C1686.37,241.22,1822.89,272.27,1822.89,272.27Z"/><polygon class="cls-74" points="1755.2 68.3 1668.48 48 1560.5 73.25 1560.49 113.82 1755.2 68.3"/><path class="cls-75" d="M1560.49,113.92V73.34s178.19,38.68,204.43,47.6c57.63,19.57,57.62,39.81,57.62,39.81v40.47s-9.42-22.92-52.69-37.66c-2.92-1-33.47-8.9-36.59-9.64C1696.79,145.33,1560.49,113.92,1560.49,113.92Z"/><path class="cls-76" d="M1560.78,41.57V1S1739,39.68,1765.22,48.6c57.62,19.57,57.62,39.8,57.62,39.8v40.47s-9.42-22.91-52.69-37.65c-2.92-1-33.47-8.9-36.59-9.64C1697.08,73,1560.78,41.57,1560.78,41.57Z"/><polygon points="1727.26 480.62 1814.12 500.68 1921.92 475.14 1921.64 434.57 1727.26 480.62"/><path class="cls-77" d="M1921.64,434.48l.28,40.57s-178.46-38.2-204.77-47.05c-57.76-19.41-57.89-39.65-57.89-39.65l-.28-40.47s9.58,22.89,53,37.52c2.93,1,33.54,8.81,36.66,9.53C1785.12,403.43,1921.64,434.48,1921.64,434.48Z"/><path class="cls-78" d="M1921.87,506.82l.27,40.57s-178.45-38.2-204.76-47c-57.76-19.42-57.9-39.66-57.9-39.66l-.28-40.46s9.58,22.88,53,37.51c2.93,1,33.53,8.81,36.66,9.54C1785.35,475.77,1921.87,506.82,1921.87,506.82Z"/><polygon class="cls-79" points="1854.18 302.85 1767.46 282.55 1659.48 307.8 1659.47 348.38 1854.18 302.85"/><path class="cls-80" d="M1659.47,348.47V307.89s178.19,38.68,204.43,47.6c57.63,19.57,57.62,39.81,57.62,39.81v40.47s-9.42-22.92-52.69-37.66c-2.92-1-33.47-8.9-36.59-9.64C1795.77,379.88,1659.47,348.47,1659.47,348.47Z"/><path class="cls-81" d="M1659.76,276.12V235.55s178.18,38.68,204.43,47.6c57.62,19.57,57.62,39.8,57.62,39.8v40.47s-9.42-22.91-52.69-37.65c-2.92-1-33.47-8.9-36.59-9.64C1796.06,307.54,1659.76,276.12,1659.76,276.12Z"/><polygon class="cls-82" points="1854.3 751.79 1767.43 771.86 1659.63 746.32 1659.91 705.74 1854.3 751.79"/><path class="cls-83" d="M1659.91,705.65l-.28,40.58S1838.09,708,1864.4,699.18c57.76-19.42,57.9-39.65,57.9-39.65l.27-40.47s-9.58,22.89-53,37.51c-2.93,1-33.53,8.81-36.66,9.54C1796.43,674.6,1659.91,705.65,1659.91,705.65Z"/><path class="cls-84" d="M1659.69,778l-.28,40.58s178.46-38.2,204.77-47.05c57.75-19.41,57.89-39.65,57.89-39.65l.28-40.47s-9.58,22.89-52.95,37.52c-2.94,1-33.54,8.81-36.66,9.53C1796.21,747,1659.69,778,1659.69,778Z"/><polygon class="cls-85" points="1727.37 574.02 1814.09 553.73 1922.07 578.98 1922.08 619.55 1727.37 574.02"/><path class="cls-86" d="M1922.08,619.64V579.07s-178.18,38.68-204.43,47.6c-57.62,19.57-57.62,39.8-57.62,39.8v40.47s9.42-22.91,52.69-37.66c2.92-1,33.47-8.89,36.59-9.63C1785.78,651.06,1922.08,619.64,1922.08,619.64Z"/><path class="cls-87" d="M1921.8,547.3V506.73s-178.19,38.68-204.44,47.59c-57.62,19.58-57.61,39.81-57.61,39.81V634.6s9.41-22.91,52.69-37.66c2.92-1,33.47-8.9,36.59-9.63C1785.5,578.72,1921.8,547.3,1921.8,547.3Z"/><polygon class="cls-88" points="1755.09 1058.94 1668.23 1079 1560.43 1053.46 1560.71 1012.89 1755.09 1058.94"/><path d="M1560.93,940.2l-.28,40.58s178.46-38.2,204.77-47c57.76-19.42,57.9-39.65,57.9-39.65l.27-40.47s-9.58,22.89-52.95,37.52c-2.93,1-33.53,8.8-36.66,9.53C1697.45,909.15,1560.93,940.2,1560.93,940.2Z"/><path class="cls-89" d="M1560.71,1012.55l-.28,40.57s178.46-38.2,204.77-47c57.75-19.41,57.89-39.65,57.89-39.65l.28-40.47s-9.58,22.89-53,37.52c-2.93,1-33.53,8.81-36.65,9.53C1697.23,981.5,1560.71,1012.55,1560.71,1012.55Z"/><polygon class="cls-90" points="1628.39 808.58 1715.11 788.28 1823.09 813.53 1823.1 854.1 1628.39 808.58"/><path class="cls-91" d="M1823.1,854.19V813.62s-178.18,38.68-204.43,47.6C1561,880.79,1561,901,1561,901v40.47s9.42-22.91,52.69-37.65c2.92-1,33.47-8.9,36.59-9.64C1686.8,885.61,1823.1,854.19,1823.1,854.19Z"/><path class="cls-92" d="M1822.82,781.85V741.28S1644.62,780,1618.37,788.87c-57.62,19.58-57.61,39.81-57.61,39.81v40.47s9.41-22.91,52.69-37.66c2.92-1,33.47-8.9,36.59-9.63C1686.52,813.27,1822.82,781.85,1822.82,781.85Z"/><path class="cls-93" d="M1822.66,199.93l.28,40.57s-178.46-38.2-204.77-47.05c-57.76-19.41-57.89-39.65-57.89-39.65l-.28-40.47s9.58,22.89,53,37.52c2.93,1,33.54,8.81,36.66,9.53C1686.14,168.88,1822.66,199.93,1822.66,199.93Z"/></svg>