<svg id="Layer_1" data-name="Layer 1" xmlns="http://www.w3.org/2000/svg" xmlns:xlink="http://www.w3.org/1999/xlink" viewBox="0 0 2000 1080"><defs><style>.cls-1,.cls-10,.cls-11,.cls-12,.cls-13,.cls-14,.cls-15,.cls-16,.cls-17,.cls-18,.cls-19,.cls-2,.cls-20,.cls-21,.cls-22,.cls-3,.cls-4,.cls-5,.cls-6,.cls-7,.cls-8,.cls-9{stroke:#000;stroke-miterlimit:10;stroke-width:33px;}.cls-1{opacity:0.63;}.cls-1,.cls-10,.cls-11,.cls-12,.cls-13,.cls-14,.cls-15,.cls-16,.cls-17,.cls-18,.cls-19,.cls-2,.cls-20,.cls-21,.cls-22,.cls-23,.cls-3,.cls-4,.cls-5,.cls-6,.cls-7,.cls-8,.cls-9{isolation:isolate;}.cls-10,.cls-13,.cls-14,.cls-17,.cls-18,.cls-19,.cls-2,.cls-20,.cls-21,.cls-22,.cls-23,.cls-3,.cls-4,.cls-5,.cls-9{opacity:0.8;}.cls-2{fill:url(#linear-gradient);}.cls-3{fill:url(#linear-gradient-2);}.cls-4{fill:url(#linear-gradient-3);}.cls-5{fill:url(#linear-gradient-4);}.cls-6{opacity:0.5;}.cls-11,.cls-12,.cls-15,.cls-16,.cls-7,.cls-8{opacity:0.1;}.cls-7{fill:url(#linear-gradient-5);}.cls-8{fill:url(#linear-gradient-6);}.cls-9{fill:url(#linear-gradient-7);}.cls-10{fill:url(#linear-gradient-8);}.cls-11{fill:url(#linear-gradient-9);}.cls-12{fill:url(#linear-gradient-10);}.cls-13{fill:url(#linear-gradient-11);}.cls-14{fill:url(#linear-gradient-12);}.cls-15{fill:url(#linear-gradient-13);}.cls-16{fill:url(#linear-gradient-14);}.cls-17{fill:url(#linear-gradient-15);}.cls-18{fill:url(#linear-gradient-16);}.cls-19{fill:url(#linear-gradient-17);}.cls-20{fill:url(#linear-gradient-18);}.cls-21{fill:url(#linear-gradient-19);}.cls-22{fill:url(#linear-gradient-20);}.cls-23{fill:#ed5037;}</style><linearGradient id="linear-gradient" x1="114.35" y1="1175.58" x2="115.45" y2="1175.58" gradientTransform="matrix(241.76, 0, 0, -350.63, -27531.02, 412805.23)" gradientUnits="userSpaceOnUse"><stop offset="0"/><stop offset="0.03" stop-color="#0d0402"/><stop offset="0.08" stop-color="#2e0e08"/><stop offset="0.15" stop-color="#641e12"/><stop offset="0.24" stop-color="#af3520"/><stop offset="0.26" stop-color="#c03a23"/><stop offset="0.34" stop-color="#bc3922"/><stop offset="0.44" stop-color="#af3520"/><stop offset="0.53" stop-color="#9b2f1c"/><stop offset="0.62" stop-color="#7d2617"/><stop offset="0.72" stop-color="#581b10"/><stop offset="0.81" stop-color="#2a0d08"/><stop offset="0.89"/><stop offset="1"/></linearGradient><linearGradient id="linear-gradient-2" x1="114.33" y1="1175.61" x2="115.44" y2="1175.61" gradientTransform="matrix(241.45, 0, 0, -352.56, -27494.46, 414959.95)" gradientUnits="userSpaceOnUse"><stop offset="0"/><stop offset="0.11" stop-color="#140603"/><stop offset="0.33" stop-color="#48150d"/><stop offset="0.64" stop-color="#9b2e1c"/><stop offset="0.96"/></linearGradient><linearGradient id="linear-gradient-3" x1="114.35" y1="1175.67" x2="115.45" y2="1175.67" gradientTransform="matrix(241.45, 0, 0, -352.56, -27493.62, 414764.2)" gradientUnits="userSpaceOnUse"><stop offset="0.34" stop-color="#3f130b"/><stop offset="0.51" stop-color="#752315"/><stop offset="0.59" stop-color="#962d1b"/><stop offset="0.66" stop-color="#9f301d"/><stop offset="0.71" stop-color="#bd3923"/><stop offset="1"/></linearGradient><linearGradient id="linear-gradient-4" x1="114.35" y1="1175.52" x2="115.45" y2="1175.52" gradientTransform="matrix(241.76, 0, 0, -350.63, -27531.39, 413004.57)" gradientUnits="userSpaceOnUse"><stop offset="0"/><stop offset="0.21" stop-color="#912b1b"/><stop offset="0.45" stop-color="#43140c"/><stop offset="0.63" stop-color="#120503"/><stop offset="0.72"/></linearGradient><linearGradient id="linear-gradient-5" x1="115.85" y1="1175.51" x2="116.95" y2="1175.51" xlink:href="#linear-gradient"/><linearGradient id="linear-gradient-6" x1="115.84" y1="1175.53" x2="116.94" y2="1175.53" xlink:href="#linear-gradient-2"/><linearGradient id="linear-gradient-7" x1="115.85" y1="1175.59" x2="116.95" y2="1175.59" gradientTransform="matrix(241.45, 0, 0, -352.56, -27493.62, 414764.2)" gradientUnits="userSpaceOnUse"><stop offset="0.17"/><stop offset="0.34" stop-color="#3f130b"/><stop offset="0.51" stop-color="#752315"/><stop offset="0.59" stop-color="#962d1b"/><stop offset="0.66" stop-color="#9f301d"/><stop offset="0.71" stop-color="#bd3923"/><stop offset="1"/></linearGradient><linearGradient id="linear-gradient-8" x1="115.85" y1="1175.45" x2="116.95" y2="1175.45" xlink:href="#linear-gradient-4"/><linearGradient id="linear-gradient-9" x1="117.48" y1="1175.51" x2="118.58" y2="1175.51" xlink:href="#linear-gradient"/><linearGradient id="linear-gradient-10" x1="117.47" y1="1175.53" x2="118.58" y2="1175.53" xlink:href="#linear-gradient-2"/><linearGradient id="linear-gradient-11" x1="117.48" y1="1175.59" x2="118.59" y2="1175.59" gradientTransform="matrix(241.45, 0, 0, -352.56, -27493.62, 414764.2)" gradientUnits="userSpaceOnUse"><stop offset="0.1"/><stop offset="0.22" stop-color="#3f130b"/><stop offset="0.27" stop-color="#621d11"/><stop offset="0.31" stop-color="#7e2617"/><stop offset="0.35" stop-color="#902b1a"/><stop offset="0.38" stop-color="#962d1b"/><stop offset="0.41" stop-color="#9f301d"/><stop offset="0.49" stop-color="#bd3923"/><stop offset="1"/></linearGradient><linearGradient id="linear-gradient-12" x1="117.48" y1="1175.45" x2="118.58" y2="1175.45" xlink:href="#linear-gradient-4"/><linearGradient id="linear-gradient-13" x1="119.05" y1="1175.51" x2="120.16" y2="1175.51" xlink:href="#linear-gradient"/><linearGradient id="linear-gradient-14" x1="119.04" y1="1175.53" x2="120.15" y2="1175.53" xlink:href="#linear-gradient-2"/><linearGradient id="linear-gradient-15" x1="119.06" y1="1175.59" x2="120.16" y2="1175.59" xlink:href="#linear-gradient-7"/><linearGradient id="linear-gradient-16" x1="119.05" y1="1175.45" x2="120.16" y2="1175.45" xlink:href="#linear-gradient-4"/><linearGradient id="linear-gradient-17" x1="120.56" y1="1175.51" x2="121.66" y2="1175.51" xlink:href="#linear-gradient"/><linearGradient id="linear-gradient-18" x1="120.55" y1="1175.53" x2="121.66" y2="1175.53" xlink:href="#linear-gradient-2"/><linearGradient id="linear-gradient-19" x1="120.56" y1="1175.59" x2="121.67" y2="1175.59" xlink:href="#linear-gradient-7"/><linearGradient id="linear-gradient-20" x1="120.56" y1="1175.45" x2="121.66" y2="1175.45" gradientTransform="matrix(241.76, 0, 0, -350.63, -27531.39, 413004.57)" gradientUnits="userSpaceOnUse"><stop offset="0"/><stop offset="0.21" stop-color="#912b1b"/><stop offset="0.45" stop-color="#43140c"/></linearGradient></defs><title>new</title><path id="Path_2" data-name="Path 2" d="M2000.32,1080.43H.32V.43h2000"/><path id="Path_3" data-name="Path 3" class="cls-1" d="M182.82,817.72,271,879.17l109.91-76L381,680.6Z"/><path id="Path_4" data-name="Path 4" class="cls-2" d="M381,680.32l-.08,122.53S199.69,685.71,173,658.74c-58.6-59.21-58.56-120.32-58.56-120.32l.07-122.21s9.55,69.21,53.55,113.82c3,3,34.05,26.93,37.22,29.16C242.38,585.2,381,680.32,381,680.32Z"/><path id="Path_5" data-name="Path 5" class="cls-1" d="M313.53,282.16,225.47,220,115.38,295.18,115,417.7Z"/><path id="Path_6" data-name="Path 6" class="cls-3" d="M115,418l.36-122.52S296.34,414,323,441.22C381.44,500.91,381.25,562,381.25,562l-.37,122.21S371.5,614.93,327.6,570c-3-3-34-27.21-37.15-29.46C253.42,514.21,115,418,115,418Z"/><path id="Path_7" data-name="Path 7" class="cls-4" d="M115.94,199.53,116.3,77s181,118.58,207.6,145.77c58.46,59.68,58.28,120.78,58.28,120.78l-.37,122.21s-9.38-69.28-53.28-114.24c-3-3-34-27.2-37.15-29.45C254.35,295.75,115.94,199.53,115.94,199.53Z"/><path id="Path_14" data-name="Path 14" class="cls-5" d="M380.61,898.78l-.07,122.53S199.28,904.17,172.59,877.2C114,818,114,756.88,114,756.88l.07-122.21s9.55,69.21,53.56,113.82c3,3,34,26.94,37.21,29.16C242,803.66,380.61,898.78,380.61,898.78Z"/><path id="Path_3-2" data-name="Path 3" class="cls-6" d="M545.48,843.85l88.22,61.44,109.91-76,.07-122.53Z"/><path id="Path_4-2" data-name="Path 4" class="cls-7" d="M743.68,706.44,743.61,829s-181.25-117.14-208-144.11c-58.6-59.21-58.56-120.31-58.56-120.31l.08-122.21s9.54,69.2,53.55,113.81c3,3,34,26.94,37.22,29.16C605,611.32,743.68,706.44,743.68,706.44Z"/><path id="Path_5-2" data-name="Path 5" class="cls-6" d="M676.2,308.29l-88.07-62.15L478,321.3l-.37,122.53Z"/><path id="Path_6-2" data-name="Path 6" class="cls-8" d="M477.67,444.11,478,321.58s181,118.58,207.6,145.77C744.1,527,743.91,588.13,743.91,588.13l-.36,122.21s-9.38-69.29-53.28-114.24c-3-3-34-27.21-37.15-29.46C616.09,540.33,477.67,444.11,477.67,444.11Z"/><path id="Path_7-2" data-name="Path 7" class="cls-9" d="M478.6,225.65,479,103.12s181,118.59,207.6,145.77c58.46,59.68,58.27,120.79,58.27,120.79l-.36,122.2S735.1,422.6,691.2,377.65c-3-3-34-27.21-37.15-29.46C617,321.88,478.6,225.65,478.6,225.65Z"/><path id="Path_14-2" data-name="Path 14" class="cls-10" d="M743.28,924.91l-.08,122.52S562,930.29,535.26,903.32C476.66,844.11,476.69,783,476.69,783l.08-122.21s9.54,69.21,53.55,113.81c3,3,34,26.94,37.22,29.16C604.63,829.79,743.28,924.91,743.28,924.91Z"/><path id="Path_3-3" data-name="Path 3" class="cls-6" d="M939.48,843.85l88.22,61.44,109.91-76,.07-122.53Z"/><path id="Path_4-3" data-name="Path 4" class="cls-11" d="M1137.68,706.44,1137.61,829S956.36,711.83,929.66,684.86c-58.6-59.21-58.56-120.31-58.56-120.31l.08-122.21s9.54,69.2,53.55,113.81c3,3,34,26.94,37.22,29.16C999,611.32,1137.68,706.44,1137.68,706.44Z"/><path id="Path_5-3" data-name="Path 5" class="cls-6" d="M1070.2,308.29l-88.07-62.15L872,321.3l-.37,122.53Z"/><path id="Path_6-3" data-name="Path 6" class="cls-12" d="M871.67,444.11,872,321.58s181,118.58,207.6,145.77c58.46,59.68,58.27,120.78,58.27,120.78l-.36,122.21s-9.38-69.29-53.28-114.24c-3-3-34-27.21-37.15-29.46C1010.09,540.33,871.67,444.11,871.67,444.11Z"/><path id="Path_7-3" data-name="Path 7" class="cls-13" d="M872.6,225.65,873,103.12s181,118.59,207.6,145.77c58.46,59.68,58.27,120.79,58.27,120.79l-.36,122.2s-9.38-69.28-53.28-114.23c-3-3-34-27.21-37.15-29.46C1011,321.88,872.6,225.65,872.6,225.65Z"/><path id="Path_14-3" data-name="Path 14" class="cls-14" d="M1137.28,924.91l-.08,122.52S956,930.29,929.26,903.32C870.66,844.11,870.69,783,870.69,783l.08-122.21s9.54,69.21,53.55,113.81c3,3,34,26.94,37.22,29.16C998.63,829.79,1137.28,924.91,1137.28,924.91Z"/><path id="Path_3-4" data-name="Path 3" class="cls-6" d="M1319.57,844.31l88.21,61.45,109.92-76,.07-122.52Z"/><path id="Path_4-4" data-name="Path 4" class="cls-15" d="M1517.77,706.91l-.07,122.53s-181.26-117.14-208-144.11c-58.6-59.21-58.56-120.32-58.56-120.32l.07-122.21s9.55,69.21,53.56,113.82c3,3,34,26.93,37.21,29.16C1379.13,611.79,1517.77,706.91,1517.77,706.91Z"/><path id="Path_5-4" data-name="Path 5" class="cls-6" d="M1450.29,308.75l-88.07-62.15-110.09,75.17-.37,122.52Z"/><path id="Path_6-4" data-name="Path 6" class="cls-16" d="M1251.76,444.57l.37-122.52s181,118.58,207.6,145.76C1518.19,527.49,1518,588.6,1518,588.6l-.36,122.21s-9.38-69.29-53.28-114.24c-3-3-34-27.21-37.15-29.46C1390.18,540.8,1251.76,444.57,1251.76,444.57Z"/><path id="Path_7-4" data-name="Path 7" class="cls-17" d="M1252.69,226.12l.36-122.53s181,118.58,207.6,145.77c58.46,59.68,58.28,120.78,58.28,120.78l-.36,122.21s-9.39-69.28-53.29-114.24c-3-3-34-27.2-37.14-29.45C1391.1,322.34,1252.69,226.12,1252.69,226.12Z"/><path id="Path_14-4" data-name="Path 14" class="cls-18" d="M1517.36,925.37l-.07,122.53S1336,930.76,1309.35,903.79c-58.61-59.21-58.57-120.32-58.57-120.32l.08-122.21s9.54,69.21,53.55,113.82c3,3,34,26.94,37.22,29.16C1378.72,830.25,1517.36,925.37,1517.36,925.37Z"/><path id="Path_3-5" data-name="Path 3" class="cls-1" d="M1683.57,844.31l88.21,61.45,109.92-76,.07-122.52Z"/><path id="Path_4-5" data-name="Path 4" class="cls-19" d="M1881.77,706.91l-.07,122.53s-181.26-117.14-208-144.11c-58.6-59.21-58.56-120.32-58.56-120.32l.07-122.21s9.55,69.21,53.56,113.82c3,3,34,26.93,37.21,29.16C1743.13,611.79,1881.77,706.91,1881.77,706.91Z"/><path id="Path_5-5" data-name="Path 5" class="cls-1" d="M1814.29,308.75l-88.07-62.15-110.09,75.17-.37,122.52Z"/><path id="Path_6-5" data-name="Path 6" class="cls-20" d="M1615.76,444.57l.37-122.52s181,118.58,207.6,145.76C1882.19,527.49,1882,588.6,1882,588.6l-.36,122.21s-9.38-69.29-53.28-114.24c-3-3-34-27.21-37.15-29.46C1754.18,540.8,1615.76,444.57,1615.76,444.57Z"/><path id="Path_7-5" data-name="Path 7" class="cls-21" d="M1616.69,226.12l.36-122.53s181,118.58,207.6,145.77c58.46,59.68,58.28,120.78,58.28,120.78l-.36,122.21s-9.39-69.28-53.29-114.24c-3-3-34-27.2-37.14-29.45C1755.1,322.34,1616.69,226.12,1616.69,226.12Z"/><path id="Path_14-5" data-name="Path 14" class="cls-22" d="M1881.36,925.37l-.07,122.53S1700,930.76,1673.35,903.79c-58.61-59.21-58.57-120.32-58.57-120.32l.08-122.21s9.54,69.21,53.55,113.82c3,3,34,26.94,37.22,29.16C1742.72,830.25,1881.36,925.37,1881.36,925.37Z"/><rect class="cls-23" x="1006" y="960" width="11" height="86.37"/></svg>