<svg id="Layer_1" data-name="Layer 1" xmlns="http://www.w3.org/2000/svg" viewBox="0 0 192 150"><defs><style>.cls-1,.cls-11,.cls-13,.cls-14,.cls-4,.cls-6{fill:#e53828;}.cls-1{opacity:0.05;}.cls-1,.cls-11,.cls-12,.cls-13,.cls-14,.cls-8{isolation:isolate;}.cls-2{fill:#f8bbb4;}.cls-16,.cls-17,.cls-18,.cls-3{fill:none;}.cls-3{stroke:#030303;stroke-linejoin:bevel;}.cls-17,.cls-18,.cls-3{stroke-width:3px;}.cls-4{opacity:0.32;}.cls-5{fill:#ed4e35;}.cls-7{fill:#84878a;}.cls-8{opacity:0.09;}.cls-9{fill:#cf9c9d;}.cls-10{fill:#959596;}.cls-11{opacity:0.2;}.cls-12{opacity:0.22;}.cls-13{opacity:0.12;}.cls-14{opacity:0.17;}.cls-15{fill:#141212;}.cls-17{stroke:#e53828;}.cls-18{stroke:#000;}</style></defs><title>research</title><g id="Group_22" data-name="Group 22"><path id="Path_298" data-name="Path 298" class="cls-1" d="M68.18,94.19,49.56,123.35,66.64,92.27Z"/><g id="Group_13" data-name="Group 13"><path id="Rectangle_54" data-name="Rectangle 54" class="cls-2" d="M84.64,114.69l-18-22.42,101-78.57a.82.82,0,0,1,1.15.13h0l16.93,21.08a.9.9,0,0,1-.14,1.25h0Z"/><g id="Group_12" data-name="Group 12"><path id="Path_259-2" data-name="Path 259-2" class="cls-3" d="M49.56,123.35s-22.12-11.95-20.62,5.26c2.29,26.31-21.57,11-25.13,7.47h0"/></g><path id="Path_295" data-name="Path 295" class="cls-4" d="M66.64,92.27,49.56,123.35l35.08-8.66Z"/><g id="Rectangle_55" data-name="Rectangle 55"><path id="Path_289" data-name="Path 289" class="cls-5" d="M185.78,35,168.93,13.93l1.43-1.1a2.63,2.63,0,0,1,3.63.43l13.64,17.07a2.53,2.53,0,0,1-.39,3.55l0,0h0Z"/></g><path id="Path_297" data-name="Path 297" class="cls-6" d="M84.64,114.69l-6-7.49,95.61-74.58,6.06,7.68Z"/><path id="Path_290" data-name="Path 290" class="cls-7" d="M184.8,36.8l.87-.68a.81.81,0,0,0,.14-1.13h0l-17-21.16a.83.83,0,0,0-1.16-.14l-.87.67Z"/><path id="Path_293" data-name="Path 293" class="cls-8" d="M184.8,36.8,181,32.05c-.52-.64-1.58-.68-.95-1.21l1.79-1.46a5.48,5.48,0,0,0,1.81-2.31,6.08,6.08,0,0,0,.26-1.39l-.1-.12s3.72,4.62,3.82,4.77a2.16,2.16,0,0,1,.49,1,2.42,2.42,0,0,1-.06,1.36,3.31,3.31,0,0,1-1,1.31l-1.28,1a.73.73,0,0,1,.11.85,1.07,1.07,0,0,1-.45.44"/><path id="Path_294" data-name="Path 294" class="cls-9" d="M182.19,38.82l-17.9-22.5-1.12.87L181.06,39.7Z"/><path id="Path_295-2" data-name="Path 295-2" class="cls-7" d="M181.8,39.13l-18-22.45-1.52,1.18,18,22.44"/><path id="Path_296" data-name="Path 296" class="cls-10" d="M184.8,36.79,166.87,14.31l-2.6,2,17.9,22.52Z"/><path id="Path_299" data-name="Path 299" class="cls-11" d="M49.56,123.35,78.62,107.2l6,7.49-35.08,8.66"/><path id="Path_297-2" data-name="Path 297-2" class="cls-6" d="M72.66,99.76l-6-7.49,95.6-74.58,6.06,7.69Z"/><path id="Path_297-3" data-name="Path 297-3" class="cls-12" d="M174.51,13.91l-1.46.12a6.81,6.81,0,0,0-3.62,1.41L68.18,94.19l-1.54-1.92L93.76,71.18l14.95-11.63,25.76-20L144.15,32l11.7-9.11L163.41,17l4-3.14s.17-.13.37-.26a.76.76,0,0,1,.55-.09.89.89,0,0,1,.52.35l.06.06.8-.62.5-.37a2.81,2.81,0,0,1,1.29-.61,2.64,2.64,0,0,1,.63,0,2.54,2.54,0,0,1,.61.12,2.68,2.68,0,0,1,.87.49A5.89,5.89,0,0,1,174.51,13.91Z"/><path id="Path_300" data-name="Path 300" class="cls-13" d="M78.62,107.2l-6-7.44-23.1,23.59Z"/><path id="Path_301" data-name="Path 301" class="cls-14" d="M72.66,99.76l-23.1,23.59L68.18,94.19Z"/><path id="Path_298-2" data-name="Path 298-2" class="cls-15" d="M49.56,123.35l15-3.66-4.28-.88,2.24-3-4.88,1.59,3.31-4.68-5.5,2.42,1.32-4.8Z"/></g></g><path class="cls-8" d="M181.53,30.17,81.12,110.84l3.46,4.33,100-77.66,1.14-.88a.85.85,0,0,0,.28-.69.88.88,0,0,0-.17-.42Z"/><g id="Ellipse_14" data-name="Ellipse 14"><ellipse id="Ellipse_16" data-name="Ellipse 16" class="cls-16" cx="31.97" cy="42" rx="5.28" ry="5.2"/><ellipse id="Ellipse_17" data-name="Ellipse 17" class="cls-17" cx="31.97" cy="42" rx="4.72" ry="4.64"/></g><line id="Line_1" data-name="Line 1" class="cls-18" x1="169.97" y1="113.64" x2="170.2" y2="124.98"/><line id="Line_2" data-name="Line 2" class="cls-18" x1="175.89" y1="118.75" x2="164.27" y2="118.97"/></svg>