<svg id="Layer_1" data-name="Layer 1" xmlns="http://www.w3.org/2000/svg" viewBox="0 0 143.12 120.56"><defs><style>.cls-1{fill:#f8bbb4;}.cls-2{fill:#ed5037;}.cls-3{fill:#c4c4c4;}.cls-4{opacity:0.16;}.cls-4,.cls-6,.cls-7{isolation:isolate;}.cls-5{fill:#f5ada5;}.cls-6{fill:#fff;opacity:0.13;}.cls-7{fill:#ed543d;opacity:0.2;}.cls-10,.cls-11,.cls-8,.cls-9{fill:none;}.cls-8{stroke:#fff;stroke-width:3px;}.cls-10{stroke:#e53828;}.cls-10,.cls-11{stroke-width:3px;}.cls-11{stroke:#000;}</style></defs><title>research</title><g id="Group_21" data-name="Group 21"><g id="Group_15" data-name="Group 15"><ellipse id="Ellipse_20" data-name="Ellipse 20" class="cls-1" cx="118.17" cy="62.94" rx="9.36" ry="11.02" transform="translate(-35.98 28.52) rotate(-19.01)"/><path id="Path_303" data-name="Path 303" class="cls-2" d="M88.56,89.35,78.74,60.88S100.11,50,110,34.22c0,0,20.05,57.09,19,56.51C129,90.73,104.52,84.28,88.56,89.35Z" transform="translate(-21.93 -13.42)"/><ellipse id="Ellipse_21" data-name="Ellipse 21" class="cls-2" cx="58.7" cy="83.43" rx="9.36" ry="11.02" transform="translate(-45.91 10.26) rotate(-19.01)"/><path id="Path_304" data-name="Path 304" class="cls-3" d="M66.71,97.65" transform="translate(-21.93 -13.42)"/><rect id="Rectangle_58" data-name="Rectangle 58" class="cls-2" x="73.17" y="88.9" width="12.02" height="30.2" transform="translate(-51.49 18.06) rotate(-19.01)"/><path id="Rectangle_59" data-name="Rectangle 59" class="cls-4" d="M76.73,94.25l4.87-1.68h0l8.48,24.61a2.68,2.68,0,0,1-1.66,3.41l-2.34.81h0L76.73,94.25Z" transform="translate(-21.93 -13.42)"/><path id="Path_305" data-name="Path 305" class="cls-4" d="M127.31,84.69a144.73,144.73,0,0,0-18-3,79.47,79.47,0,0,0-9.76-.36c-2.43.07-4.05.26-6.74.51a51.55,51.55,0,0,0-6.38,1.42l2.11,6.11A49.27,49.27,0,0,1,94.88,88c2.13-.19,4.3-.44,6.73-.5a75.7,75.7,0,0,1,9.76.36A136.61,136.61,0,0,1,129,90.73s.2,0-.64-2.67Z" transform="translate(-21.93 -13.42)"/><path id="Path_306" data-name="Path 306" class="cls-5" d="M88.81,90.08l-22.1,7.57s-9.19-.07-11-5.47L50.42,77s1.58-7.56,6-9.74l21.95-7.56Z" transform="translate(-21.93 -13.42)"/><path id="Path_307" data-name="Path 307" class="cls-6" d="M129.07,90.7" transform="translate(-21.93 -13.42)"/><path id="Path_308" data-name="Path 308" class="cls-7" d="M56.38,67.24l21.95-7.56,10.48,30.4-22.1,7.57" transform="translate(-21.93 -13.42)"/><path id="Rectangle_60" data-name="Rectangle 60" class="cls-1" d="M78.42,120.24l11.37-3.92h0l.33,1a2.58,2.58,0,0,1-1.59,3.27h0L82,122.8a2.56,2.56,0,0,1-3.26-1.59h0l-.34-1Z" transform="translate(-21.93 -13.42)"/></g><g id="Group_16" data-name="Group 16"><path id="Path_309" data-name="Path 309" class="cls-8" d="M135.34,65.68c4.44-1.53,6.58-7,4.78-12.23s-6.85-8.22-11.29-6.69" transform="translate(-21.93 -13.42)"/><path id="Path_310" data-name="Path 310" class="cls-8" d="M151.74,62.86c6.07-2.09,9.11-9.25,6.79-16s-9.12-10.51-15.19-8.42" transform="translate(-21.93 -13.42)"/></g><g id="Ellipse_14" data-name="Ellipse 14"><circle id="Ellipse_16" data-name="Ellipse 16" class="cls-9" cx="137.86" cy="5.26" r="4.21"/><circle id="Ellipse_17" data-name="Ellipse 17" class="cls-10" cx="137.87" cy="5.26" r="3.76"/></g></g><line id="Line_1-2" data-name="Line 1-2" class="cls-11" x1="5.73" y1="13.18" x2="5.96" y2="24.53"/><line id="Line_2-2" data-name="Line 2-2" class="cls-11" x1="11.65" y1="18.29" x2="0.03" y2="18.51"/><line id="Line_1-2-2" data-name="Line 1-2" class="cls-11" x1="134.73" y1="109.18" x2="134.96" y2="120.53"/><line id="Line_2-2-2" data-name="Line 2-2" class="cls-11" x1="140.65" y1="114.29" x2="129.03" y2="114.51"/></svg>