<svg xmlns="http://www.w3.org/2000/svg" viewBox="0 0 188.03 135.85"><defs><style>.cls-1{fill:#ed5037;}.cls-2{fill:#f5ada5;opacity:0.78;isolation:isolate;}.cls-3{opacity:0.45;}.cls-10,.cls-11,.cls-12,.cls-4,.cls-8{fill:none;}.cls-12,.cls-4{stroke:#000;}.cls-4{stroke-width:15px;opacity:0.28;}.cls-5{fill:#f8bbb4;}.cls-6{opacity:0.2;}.cls-7{opacity:0.11;}.cls-8{stroke:#f8bbb4;stroke-width:14px;}.cls-9{opacity:0.16;}.cls-11{stroke:#e53828;}.cls-11,.cls-12{stroke-width:3px;}.cls-13{fill:#514f4f;opacity:0.25;}.cls-14{opacity:0.05;}.cls-15{opacity:0.07;}</style></defs><title>researchicon</title><g id="Layer_2" data-name="Layer 2"><g id="Layer_1-2" data-name="Layer 1"><g id="Group_20" data-name="Group 20"><g id="Group_18" data-name="Group 18"><path id="Path_311" data-name="Path 311" class="cls-1" d="M113,.77H47.8a9.08,9.08,0,0,0-9.19,9v99.9a9.08,9.08,0,0,0,9.19,9h73.57a9.08,9.08,0,0,0,9.18-9V17.79l-11.61-3.41Z"/><path id="Path_312" data-name="Path 312" class="cls-2" d="M130.55,17.79,113,.77,116.4,17Z"/><path id="Rectangle_63-2-2" data-name="Rectangle 63-2-2" class="cls-3" d="M100.75,112.73l1.94,5.88H90l-.72-2.55A37.56,37.56,0,0,0,100.75,112.73Z"/><path id="Ellipse_22-2-2" data-name="Ellipse 22-2-2" class="cls-4" d="M77.3,51.87a29.51,29.51,0,0,1,35.67,21A28.71,28.71,0,0,1,91.86,108a29.51,29.51,0,0,1-35.67-21A28.71,28.71,0,0,1,77.3,51.87Z"/><path id="Rectangle_63-2-2-2" data-name="Rectangle 63-2-2" class="cls-5" d="M79.72,102.48l-11.73,4,7.11,25.27h0a6.13,6.13,0,0,0,7.37,3.95h0l.1,0A5.44,5.44,0,0,0,86.86,129Z"/><path id="Path_313" data-name="Path 313" class="cls-6" d="M130.55,17.79,113,.77,112.58,22Z"/><path id="Path_313-2" data-name="Path 313-2" class="cls-5" d="M130.55,17.79,113,.77l3.62,16.28Z"/><rect x="52.04" y="63.5" width="23.28" height="4.84" rx="2.37"/><rect x="52.04" y="76.52" width="23.28" height="4.84" rx="2.37"/><path id="Ellipse_22-2-2-2" data-name="Ellipse 22-2-2" class="cls-7" d="M56.59,45.81A28.74,28.74,0,0,1,91.32,66.28a28,28,0,0,1-20.55,34.14A28.73,28.73,0,0,1,36,80,28,28,0,0,1,56.59,45.81Z"/><path id="Ellipse_22-2-2-3" data-name="Ellipse 22-2-2" class="cls-8" d="M56.59,44.82A28.73,28.73,0,0,1,91.32,65.29,28,28,0,0,1,70.77,99.43,28.73,28.73,0,0,1,36,79,28,28,0,0,1,56.59,44.82Z"/><path class="cls-9" d="M68.15,107s9-1.39,11.83-3.57l.56,2.09S76.9,108.87,68.7,109Z"/></g><g id="Ellipse_14" data-name="Ellipse 14"><ellipse id="Ellipse_16" data-name="Ellipse 16" class="cls-10" cx="175.85" cy="114.82" rx="5.15" ry="5.02"/><ellipse id="Ellipse_17" data-name="Ellipse 17" class="cls-11" cx="175.85" cy="114.82" rx="4.59" ry="4.49"/></g><line id="Line_1" data-name="Line 1" class="cls-12" x1="5.72" y1="0.03" x2="5.96" y2="11.38"/><line id="Line_2" data-name="Line 2" class="cls-12" x1="11.65" y1="5.14" x2="0.03" y2="5.36"/></g><rect x="164.96" y="43.51" width="5.11" height="34.69" rx="2.5" transform="translate(92.1 -100.63) rotate(45)"/><rect x="138.73" y="44.27" width="5.11" height="34.69" rx="2.5" transform="translate(-2.19 117.95) rotate(-45)"/><rect x="121.52" y="45.01" width="5.11" height="16.44" rx="2.5" transform="translate(73.98 -72.14) rotate(45)"/><path id="Ellipse_26" data-name="Ellipse 26" class="cls-5" d="M129.09,40.64a7.2,7.2,0,1,1-7.2,7.2A7.21,7.21,0,0,1,129.09,40.64Z"/><polygon class="cls-13" points="155.81 73.54 180.17 49.09 178.13 53.86 159.7 72.29 155.81 73.54"/><ellipse id="Ellipse_25" data-name="Ellipse 25" class="cls-5" cx="180.67" cy="47.84" rx="7.35" ry="7.2"/><circle id="Ellipse_22" data-name="Ellipse 22" class="cls-5" cx="153.49" cy="73.12" r="7.2"/><path class="cls-14" d="M175.93,53.35s9.12-.56,7.59-12.15A7.22,7.22,0,0,1,188,47.27a7,7,0,0,1-2.89,6.32,7.24,7.24,0,0,1-6.84,1.06A7.65,7.65,0,0,1,175.93,53.35Z"/><path class="cls-15" d="M159.76,69.58s-4,11-13.47,3.54a7.19,7.19,0,0,0,7.63,7.18,7.07,7.07,0,0,0,5.42-3,7,7,0,0,0,1.16-5.81A6.22,6.22,0,0,0,159.76,69.58Z"/><path class="cls-14" d="M133.23,47.59s1.39-3.51-.11-5.72a7.48,7.48,0,0,1,3,4.22,7.11,7.11,0,0,1-3,7.72s-2.89,2.47-7.28.46a7.61,7.61,0,0,1-3.31-3.46S130.79,52.4,133.23,47.59Z"/></g></g></svg>