<?xml version="1.0" encoding="UTF-8"?><svg id="a" xmlns="http://www.w3.org/2000/svg" xmlns:xlink="http://www.w3.org/1999/xlink" viewBox="0 0 2000 1080"><defs><style>.b`{letter-spacing:0em;}.ba{letter-spacing:-.02em;}.bb{opacity:.5;}.bb,.bc,.bd,.be,.bf,.bg,.bh,.bi,.bj,.bk,.bl,.bm,.bn,.bo,.bp,.bq,.br,.bs,.bt,.bu,.bv,.bw,.bx,.by,.c`{isolation:isolate;}.bb,.bc,.bd,.be,.bf,.bg,.bh,.bj,.bk,.bl,.bm,.bn,.bo,.bp,.br,.bs,.bt,.bu,.bv,.bw,.bx,.c`{stroke:#000;stroke-miterlimit:10;stroke-width:33px;}.ca{letter-spacing:-.03em;}.bc{fill:url(#aa);}.bc,.bd,.be,.bf,.bg,.bh{opacity:.1;}.bd{fill:url(#ag);}.be{fill:url(#aj);}.bf{fill:url(#n);}.bg{fill:url(#q);}.bh{fill:url(#x);}.bi{font-size:68px;}.bi,.bq{font-family:SofiaPro-SemiBold, Sofia Pro;}.bi,.bq,.by{fill:#fff;}.cb{letter-spacing:0em;}.cc{letter-spacing:-.02em;}.bj{fill:url(#u);}.bj,.bk,.bl,.bm,.bn,.bo,.br,.bs,.bt,.bu,.bv,.bw,.bx,.c`{opacity:.8;}.bk{fill:url(#g);}.bl{fill:url(#i);}.bm{fill:url(#k);}.bn{fill:url(#s);}.bo{fill:url(#d);}.cd{letter-spacing:-.02em;}.ce{letter-spacing:0em;}.cf{letter-spacing:0em;}.bp{opacity:.63;}.bq,.by{font-size:47px;}.cg{letter-spacing:0em;}.ch{letter-spacing:0em;}.br{fill:url(#ac);}.bs{fill:url(#ax);}.bt{fill:url(#aq);}.bu{fill:url(#av);}.bv{fill:url(#al);}.bw{fill:url(#an);}.bx{fill:url(#at);}.ci{letter-spacing:0em;}.by{font-family:SofiaPro-Bold, Sofia Pro;}.c`{fill:#006094;}</style><linearGradient id="d" x1="280.3" y1="640.15" x2="502.2" y2="640.15" gradientTransform="matrix(1, 0, 0, 1, 0, 0)" gradientUnits="userSpaceOnUse"><stop offset=".34" stop-color="#000c55"/><stop offset=".51" stop-color="#004794"/><stop offset=".59" stop-color="#006094"/><stop offset=".66" stop-color="#04a"/><stop offset=".71" stop-color="#3f51ff"/><stop offset=".8" stop-color="#0060d4"/><stop offset="1" stop-color="#000"/></linearGradient><linearGradient id="g" x1="280.8" y1="540.45" x2="502.3" y2="540.45" gradientTransform="matrix(1, 0, 0, 1, 0, 0)" gradientUnits="userSpaceOnUse"><stop offset=".34" stop-color="#000c55"/><stop offset=".51" stop-color="#004794"/><stop offset=".59" stop-color="#006094"/><stop offset=".66" stop-color="#04a"/><stop offset=".71" stop-color="#3f51ff"/><stop offset=".8" stop-color="#0060d4"/><stop offset="1" stop-color="#000"/></linearGradient><linearGradient id="i" x1="281.6" y1="358.75" x2="503.1" y2="358.75" gradientTransform="matrix(1, 0, 0, 1, 0, 0)" gradientUnits="userSpaceOnUse"><stop offset=".34" stop-color="#000c55"/><stop offset=".51" stop-color="#004794"/><stop offset=".59" stop-color="#006094"/><stop offset=".66" stop-color="#04a"/><stop offset=".71" stop-color="#3f51ff"/><stop offset=".8" stop-color="#0060d4"/><stop offset="1" stop-color="#000"/></linearGradient><linearGradient id="k" x1="280" y1="821.9" x2="501.8" y2="821.9" gradientTransform="matrix(1, 0, 0, 1, 0, 0)" gradientUnits="userSpaceOnUse"><stop offset=".34" stop-color="#000c55"/><stop offset=".51" stop-color="#004794"/><stop offset=".59" stop-color="#006094"/><stop offset=".66" stop-color="#04a"/><stop offset=".71" stop-color="#3f51ff"/><stop offset=".8" stop-color="#0060d4"/><stop offset="1" stop-color="#000"/></linearGradient><linearGradient id="n" x1="582.1" y1="661.95" x2="803.9" y2="661.95" gradientTransform="matrix(1, 0, 0, 1, 0, 0)" gradientUnits="userSpaceOnUse"><stop offset=".34" stop-color="#000c55"/><stop offset=".51" stop-color="#004794"/><stop offset=".59" stop-color="#006094"/><stop offset=".66" stop-color="#04a"/><stop offset=".71" stop-color="#3f51ff"/><stop offset=".8" stop-color="#0060d4"/><stop offset="1" stop-color="#000"/></linearGradient><linearGradient id="q" x1="582.6" y1="562.25" x2="804.1" y2="562.25" gradientTransform="matrix(1, 0, 0, 1, 0, 0)" gradientUnits="userSpaceOnUse"><stop offset=".34" stop-color="#000c55"/><stop offset=".51" stop-color="#004794"/><stop offset=".59" stop-color="#006094"/><stop offset=".66" stop-color="#04a"/><stop offset=".71" stop-color="#3f51ff"/><stop offset=".8" stop-color="#0060d4"/><stop offset="1" stop-color="#000"/></linearGradient><linearGradient id="s" x1="583.4" y1="380.45" x2="804.9" y2="380.45" gradientTransform="matrix(1, 0, 0, 1, 0, 0)" gradientUnits="userSpaceOnUse"><stop offset=".34" stop-color="#000c55"/><stop offset=".51" stop-color="#004794"/><stop offset=".59" stop-color="#006094"/><stop offset=".66" stop-color="#04a"/><stop offset=".71" stop-color="#3f51ff"/><stop offset=".8" stop-color="#0060d4"/><stop offset="1" stop-color="#000"/></linearGradient><linearGradient id="u" x1="581.8" y1="843.75" x2="803.6" y2="843.75" gradientTransform="matrix(1, 0, 0, 1, 0, 0)" gradientUnits="userSpaceOnUse"><stop offset=".34" stop-color="#000c55"/><stop offset=".51" stop-color="#004794"/><stop offset=".59" stop-color="#006094"/><stop offset=".66" stop-color="#04a"/><stop offset=".71" stop-color="#3f51ff"/><stop offset=".8" stop-color="#0060d4"/><stop offset="1" stop-color="#000"/></linearGradient><linearGradient id="x" x1="905" y1="661.9" x2="1126.8" y2="661.9" gradientTransform="matrix(1, 0, 0, 1, 0, 0)" gradientUnits="userSpaceOnUse"><stop offset=".34" stop-color="#000c55"/><stop offset=".51" stop-color="#004794"/><stop offset=".59" stop-color="#006094"/><stop offset=".66" stop-color="#04a"/><stop offset=".71" stop-color="#3f51ff"/><stop offset=".8" stop-color="#0060d4"/><stop offset="1" stop-color="#000"/></linearGradient><linearGradient id="aa" x1="905.4" y1="562.25" x2="1126.9" y2="562.25" gradientTransform="matrix(1, 0, 0, 1, 0, 0)" gradientUnits="userSpaceOnUse"><stop offset=".34" stop-color="#000c55"/><stop offset=".51" stop-color="#004794"/><stop offset=".59" stop-color="#006094"/><stop offset=".66" stop-color="#04a"/><stop offset=".71" stop-color="#3f51ff"/><stop offset=".8" stop-color="#0060d4"/><stop offset="1" stop-color="#000"/></linearGradient><linearGradient id="ac" x1="906.2" y1="380.45" x2="1127.7" y2="380.45" gradientTransform="matrix(1, 0, 0, 1, 0, 0)" gradientUnits="userSpaceOnUse"><stop offset=".34" stop-color="#000c55"/><stop offset=".51" stop-color="#004794"/><stop offset=".59" stop-color="#006094"/><stop offset=".66" stop-color="#04a"/><stop offset=".71" stop-color="#3f51ff"/><stop offset=".8" stop-color="#0060d4"/><stop offset="1" stop-color="#000"/></linearGradient><linearGradient id="ag" x1="1226.3" y1="662.35" x2="1448.1" y2="662.35" gradientTransform="matrix(1, 0, 0, 1, 0, 0)" gradientUnits="userSpaceOnUse"><stop offset=".34" stop-color="#000c55"/><stop offset=".51" stop-color="#004794"/><stop offset=".59" stop-color="#006094"/><stop offset=".66" stop-color="#04a"/><stop offset=".71" stop-color="#3f51ff"/><stop offset=".8" stop-color="#0060d4"/><stop offset="1" stop-color="#000"/></linearGradient><linearGradient id="aj" x1="1226.7" y1="562.65" x2="1448.2" y2="562.65" gradientTransform="matrix(1, 0, 0, 1, 0, 0)" gradientUnits="userSpaceOnUse"><stop offset=".34" stop-color="#000c55"/><stop offset=".51" stop-color="#004794"/><stop offset=".59" stop-color="#006094"/><stop offset=".66" stop-color="#04a"/><stop offset=".71" stop-color="#3f51ff"/><stop offset=".8" stop-color="#0060d4"/><stop offset="1" stop-color="#000"/></linearGradient><linearGradient id="al" x1="1227.5" y1="380.85" x2="1449" y2="380.85" gradientTransform="matrix(1, 0, 0, 1, 0, 0)" gradientUnits="userSpaceOnUse"><stop offset=".34" stop-color="#000c55"/><stop offset=".51" stop-color="#004794"/><stop offset=".59" stop-color="#006094"/><stop offset=".66" stop-color="#04a"/><stop offset=".71" stop-color="#3f51ff"/><stop offset=".8" stop-color="#0060d4"/><stop offset="1" stop-color="#000"/></linearGradient><linearGradient id="an" x1="1225.9" y1="844.05" x2="1447.7" y2="844.05" gradientTransform="matrix(1, 0, 0, 1, 0, 0)" gradientUnits="userSpaceOnUse"><stop offset=".34" stop-color="#000c55"/><stop offset=".51" stop-color="#004794"/><stop offset=".59" stop-color="#006094"/><stop offset=".66" stop-color="#04a"/><stop offset=".71" stop-color="#3f51ff"/><stop offset=".8" stop-color="#0060d4"/><stop offset="1" stop-color="#000"/></linearGradient><linearGradient id="aq" x1="1529.2" y1="662.35" x2="1751" y2="662.35" gradientTransform="matrix(1, 0, 0, 1, 0, 0)" gradientUnits="userSpaceOnUse"><stop offset=".34" stop-color="#000c55"/><stop offset=".51" stop-color="#004794"/><stop offset=".59" stop-color="#006094"/><stop offset=".66" stop-color="#04a"/><stop offset=".71" stop-color="#3f51ff"/><stop offset=".8" stop-color="#0060d4"/><stop offset="1" stop-color="#000"/></linearGradient><linearGradient id="at" x1="1529.6" y1="562.65" x2="1751.1" y2="562.65" gradientTransform="matrix(1, 0, 0, 1, 0, 0)" gradientUnits="userSpaceOnUse"><stop offset=".34" stop-color="#000c55"/><stop offset=".51" stop-color="#004794"/><stop offset=".59" stop-color="#006094"/><stop offset=".66" stop-color="#04a"/><stop offset=".71" stop-color="#3f51ff"/><stop offset=".8" stop-color="#0060d4"/><stop offset="1" stop-color="#000"/></linearGradient><linearGradient id="av" x1="1530.4" y1="380.85" x2="1751.9" y2="380.85" gradientTransform="matrix(1, 0, 0, 1, 0, 0)" gradientUnits="userSpaceOnUse"><stop offset=".34" stop-color="#000c55"/><stop offset=".51" stop-color="#004794"/><stop offset=".59" stop-color="#006094"/><stop offset=".66" stop-color="#04a"/><stop offset=".71" stop-color="#3f51ff"/><stop offset=".8" stop-color="#0060d4"/><stop offset="1" stop-color="#000"/></linearGradient><linearGradient id="ax" x1="1528.8" y1="844.05" x2="1750.6" y2="844.05" gradientTransform="matrix(1, 0, 0, 1, 0, 0)" gradientUnits="userSpaceOnUse"><stop offset=".34" stop-color="#000c55"/><stop offset=".51" stop-color="#004794"/><stop offset=".59" stop-color="#006094"/><stop offset=".66" stop-color="#04a"/><stop offset=".71" stop-color="#3f51ff"/><stop offset=".8" stop-color="#0060d4"/><stop offset="1" stop-color="#000"/></linearGradient></defs><path id="b" d="M1874.5,1080.4H153.5V.4H1874.5"/><path id="c" d="M337.2,813.4l73.4,51.1,91.5-63.3,.1-102-165,114.2Z" isolation="isolate" opacity=".63" stroke="#000" stroke-miterlimit="10" stroke-width="33"/><path id="e" d="M502.2,699l-.1,102s-150.8-97.5-173-119.9c-48.8-49.3-48.8-100.1-48.8-100.1l.1-101.7s7.9,57.6,44.6,94.7c2.5,2.5,28.3,22.4,31,24.3,30.8,21.6,146.2,100.7,146.2,100.7Z" fill="#d" isolation="isolate" opacity=".8" stroke="#000" stroke-miterlimit="10" stroke-width="33"/><path id="f" d="M446,367.7l-73.3-51.7-91.6,62.5-.3,102,165.2-112.8Z" isolation="isolate" opacity=".63" stroke="#000" stroke-miterlimit="10" stroke-width="33"/><path id="h" d="M280.8,480.7l.3-102s150.6,98.7,172.7,121.3c48.6,49.7,48.5,100.5,48.5,100.5l-.3,101.7s-7.8-57.7-44.3-95.1c-2.5-2.5-28.3-22.6-30.9-24.5-30.8-21.8-146-101.9-146-101.9Z" fill="#g" isolation="isolate" opacity=".8" stroke="#000" stroke-miterlimit="10" stroke-width="33"/><path id="j" d="M281.6,299l.3-102s150.6,98.7,172.7,121.3c48.6,49.7,48.5,100.5,48.5,100.5l-.3,101.7s-7.8-57.7-44.3-95.1c-2.5-2.5-28.3-22.6-30.9-24.5-30.8-21.9-146-101.9-146-101.9Z" fill="#i" isolation="isolate" opacity=".8" stroke="#000" stroke-miterlimit="10" stroke-width="33"/><path id="l" d="M501.8,880.8l-.1,102s-150.8-97.5-173-119.9c-48.7-49.3-48.7-100.2-48.7-100.2l.1-101.7s7.9,57.6,44.6,94.7c2.5,2.5,28.3,22.4,31,24.3,30.8,21.7,146.1,100.8,146.1,100.8Z" fill="#k" isolation="isolate" opacity=".8" stroke="#000" stroke-miterlimit="10" stroke-width="33"/><path id="m" d="M639,835.1l73.4,51.1,91.5-63.3,.1-102-165,114.2Z" isolation="isolate" opacity=".5" stroke="#000" stroke-miterlimit="10" stroke-width="33"/><path id="o" d="M803.9,720.8l-.1,102s-150.8-97.5-173-119.9c-48.8-49.3-48.7-100.1-48.7-100.1l.1-101.7s7.9,57.6,44.6,94.7c2.5,2.5,28.3,22.4,31,24.3,30.8,21.5,146.1,100.7,146.1,100.7Z" fill="#n" isolation="isolate" opacity=".1" stroke="#000" stroke-miterlimit="10" stroke-width="33"/><path id="p" d="M747.8,389.5l-73.3-51.7-91.6,62.5-.3,102,165.2-112.8Z" isolation="isolate" opacity=".5" stroke="#000" stroke-miterlimit="10" stroke-width="33"/><path id="r" d="M582.6,502.5l.3-102s150.6,98.7,172.7,121.3c48.6,49.7,48.5,100.5,48.5,100.5l-.3,101.7s-7.8-57.7-44.3-95.1c-2.5-2.5-28.3-22.6-30.9-24.5-30.8-21.9-146-101.9-146-101.9Z" fill="#q" isolation="isolate" opacity=".1" stroke="#000" stroke-miterlimit="10" stroke-width="33"/><path id="t" d="M583.4,320.7l.3-102s150.6,98.7,172.7,121.3c48.6,49.7,48.5,100.5,48.5,100.5l-.3,101.7s-7.8-57.7-44.3-95.1c-2.5-2.5-28.3-22.6-30.9-24.5-30.9-21.8-146-101.9-146-101.9Z" fill="#s" isolation="isolate" opacity=".8" stroke="#000" stroke-miterlimit="10" stroke-width="33"/><path id="v" d="M803.6,902.6l-.1,102s-150.8-97.5-173-119.9c-48.8-49.3-48.7-100.1-48.7-100.1l.1-101.7s7.9,57.6,44.6,94.7c2.5,2.5,28.3,22.4,31,24.3,30.7,21.5,146.1,100.7,146.1,100.7Z" fill="#u" isolation="isolate" opacity=".8" stroke="#000" stroke-miterlimit="10" stroke-width="33"/><path id="w" d="M961.9,835.1l73.4,51.1,91.5-63.3,.1-102-165,114.2Z" isolation="isolate" opacity=".5" stroke="#000" stroke-miterlimit="10" stroke-width="33"/><path id="y" d="M1126.8,720.8l-.1,102s-150.8-97.5-173-119.9c-48.8-49.4-48.7-100.2-48.7-100.2v-101.7s7.9,57.6,44.6,94.7c2.5,2.5,28.3,22.4,31,24.3,30.8,21.6,146.2,100.8,146.2,100.8Z" fill="#x" isolation="isolate" opacity=".1" stroke="#000" stroke-miterlimit="10" stroke-width="33"/><path id="a`" d="M1070.6,389.5l-73.3-51.7-91.6,62.5-.3,102,165.2-112.8Z" isolation="isolate" opacity=".5" stroke="#000" stroke-miterlimit="10" stroke-width="33"/><path id="ab" d="M905.4,502.5l.3-102s150.6,98.7,172.7,121.3c48.6,49.7,48.5,100.5,48.5,100.5l-.3,101.7s-7.8-57.7-44.3-95.1c-2.5-2.5-28.3-22.6-30.9-24.5-30.8-21.9-146-101.9-146-101.9Z" fill="#aa" isolation="isolate" opacity=".1" stroke="#000" stroke-miterlimit="10" stroke-width="33"/><path id="ad" d="M906.2,320.7l.3-102s150.6,98.7,172.7,121.3c48.6,49.7,48.5,100.5,48.5,100.5l-.3,101.7s-7.8-57.7-44.3-95.1c-2.5-2.5-28.3-22.6-30.9-24.5-30.8-21.8-146-101.9-146-101.9Z" fill="#ac" isolation="isolate" opacity=".8" stroke="#000" stroke-miterlimit="10" stroke-width="33"/><path id="ae" d="M1126.5,902.6l-.1,102s-150.8-97.5-173-119.9c-48.8-49.3-48.7-100.1-48.7-100.1l.1-101.7s7.9,57.6,44.6,94.7c2.5,2.5,28.3,22.4,31,24.3,30.7,21.5,146.1,100.7,146.1,100.7Z" fill="#006094" isolation="isolate" opacity=".8" stroke="#000" stroke-miterlimit="10" stroke-width="33"/><path id="af" d="M1283.2,835.5l73.4,51.1,91.5-63.3,.1-102-165,114.2Z" isolation="isolate" opacity=".5" stroke="#000" stroke-miterlimit="10" stroke-width="33"/><path id="ah" d="M1448.1,721.2l-.1,102s-150.8-97.5-173-119.9c-48.8-49.3-48.7-100.1-48.7-100.1l.1-101.7s7.9,57.6,44.6,94.7c2.5,2.5,28.3,22.4,31,24.3,30.7,21.5,146.1,100.7,146.1,100.7Z" fill="#ag" isolation="isolate" opacity=".1" stroke="#000" stroke-miterlimit="10" stroke-width="33"/><path id="ai" d="M1391.9,389.8l-73.3-51.7-91.6,62.5-.3,102,165.2-112.8Z" isolation="isolate" opacity=".5" stroke="#000" stroke-miterlimit="10" stroke-width="33"/><path id="ak" d="M1226.7,502.9l.3-102s150.6,98.7,172.7,121.3c48.6,49.7,48.5,100.5,48.5,100.5l-.3,101.7s-7.8-57.7-44.3-95.1c-2.5-2.5-28.3-22.6-30.9-24.5-30.8-21.9-146-101.9-146-101.9Z" fill="#aj" isolation="isolate" opacity=".1" stroke="#000" stroke-miterlimit="10" stroke-width="33"/><path id="am" d="M1227.5,321.1l.3-102s150.6,98.7,172.7,121.3c48.6,49.7,48.5,100.5,48.5,100.5l-.3,101.7s-7.8-57.7-44.3-95.1c-2.5-2.5-28.3-22.6-30.9-24.5-30.8-21.8-146-101.9-146-101.9Z" fill="#al" isolation="isolate" opacity=".8" stroke="#000" stroke-miterlimit="10" stroke-width="33"/><path id="ao" d="M1447.7,902.9l-.1,102s-150.8-97.5-173-119.9c-48.8-49.3-48.7-100.1-48.7-100.1l.1-101.7s7.9,57.6,44.6,94.7c2.5,2.5,28.3,22.4,31,24.3,30.8,21.6,146.1,100.7,146.1,100.7Z" fill="#an" isolation="isolate" opacity=".8" stroke="#000" stroke-miterlimit="10" stroke-width="33"/><path id="ap" d="M1586,835.5l73.4,51.1,91.5-63.3,.1-102-165,114.2Z" isolation="isolate" opacity=".63" stroke="#000" stroke-miterlimit="10" stroke-width="33"/><path id="ar" d="M1751,721.2l-.1,102s-150.8-97.5-173-119.9c-48.8-49.3-48.7-100.1-48.7-100.1l.1-101.7s7.9,57.6,44.6,94.7c2.5,2.5,28.3,22.4,31,24.3,30.7,21.5,146.1,100.7,146.1,100.7Z" fill="#aq" isolation="isolate" opacity=".8" stroke="#000" stroke-miterlimit="10" stroke-width="33"/><path id="as" d="M1694.8,389.8l-73.3-51.7-91.6,62.5-.3,102,165.2-112.8Z" isolation="isolate" opacity=".63" stroke="#000" stroke-miterlimit="10" stroke-width="33"/><path id="au" d="M1529.6,502.9l.3-102s150.6,98.7,172.7,121.3c48.6,49.7,48.5,100.5,48.5,100.5l-.3,101.7s-7.8-57.7-44.3-95.1c-2.5-2.5-28.3-22.6-30.9-24.5-30.8-21.9-146-101.9-146-101.9Z" fill="#at" isolation="isolate" opacity=".8" stroke="#000" stroke-miterlimit="10" stroke-width="33"/><path id="aw" d="M1530.4,321.1l.3-102s150.6,98.7,172.7,121.3c48.6,49.7,48.5,100.5,48.5,100.5l-.3,101.7s-7.8-57.7-44.3-95.1c-2.5-2.5-28.3-22.6-30.9-24.5-30.8-21.8-146-101.9-146-101.9Z" fill="#av" isolation="isolate" opacity=".8" stroke="#000" stroke-miterlimit="10" stroke-width="33"/><path id="ay" d="M1750.6,902.9l-.1,102s-150.8-97.5-173-119.9c-48.8-49.3-48.7-100.1-48.7-100.1l.1-101.7s7.9,57.6,44.6,94.7c2.5,2.5,28.3,22.4,31,24.3,30.8,21.6,146.1,100.7,146.1,100.7Z" fill="#ax" isolation="isolate" opacity=".8" stroke="#000" stroke-miterlimit="10" stroke-width="33"/><text transform="translate(646.07 598.26)" fill="#fff" font-family="SofiaPro-SemiBold, Sofia Pro" font-size="68" isolation="isolate"><tspan x="0" y="0" letter-spacing="0em">H</tspan><tspan x="47.19" y="0">ello </tspan><tspan x="175.51" y="0" letter-spacing="0em">M</tspan><tspan x="237.32" y="0" letter-spacing="-.02em">y</tspan><tspan x="270.36" y="0" letter-spacing="0em"> </tspan><tspan x="287.23" y="0" letter-spacing="0em">N</tspan><tspan x="332.92" y="0" letter-spacing="0em">ame </tspan><tspan x="487.89" y="0" letter-spacing="0em">I</tspan><tspan x="507.75" y="0">s </tspan><tspan x="555.49" y="0" letter-spacing="-.02em">K</tspan><tspan x="594.86" y="0">a</tspan><tspan x="636.61" y="0" letter-spacing="0em">t</tspan><tspan x="660.07" y="0">e,</tspan></text><text transform="translate(608.57 681.26)" fill="#fff" font-family="SofiaPro-Bold, Sofia Pro" font-size="47" isolation="isolate"><tspan x="0" y="0">UX </tspan><tspan x="74.45" y="0" letter-spacing="0em">D</tspan><tspan x="107.44" y="0" letter-spacing="0em">esigne</tspan><tspan x="248.86" y="0" letter-spacing="-.02em">r</tspan></text><text transform="translate(877.57 681.26)" fill="#fff" font-family="SofiaPro-SemiBold, Sofia Pro" font-size="47" isolation="isolate"><tspan x="0" y="0" xml:space="preserve">,  Questione</tspan><tspan x="255.16" y="0" letter-spacing="-.02em">r</tspan><tspan x="273.39" y="0" xml:space="preserve"> and Thin</tspan><tspan x="474.03" y="0" letter-spacing="-.03em">k</tspan><tspan x="497.02" y="0">e</tspan><tspan x="523.01" y="0" letter-spacing="-.02em">r</tspan></text></svg>