<?xml version="1.0" encoding="UTF-8"?><svg xmlns="http://www.w3.org/2000/svg" xmlns:xlink="http://www.w3.org/1999/xlink" viewBox="0 0 1721 1080"><defs><style>.bb{letter-spacing:0em;}.bc{letter-spacing:-.02em;}.bd{opacity:.5;}.bd,.be,.bf,.bg,.bh,.bi,.bj,.bk,.bl,.bm,.bn,.bo,.bp,.bq,.br,.bs,.bt,.bu,.bv,.bw,.bx,.by,.c`,.ca,.cb{isolation:isolate;}.bd,.be,.bf,.bg,.bh,.bi,.bj,.bl,.bm,.bn,.bo,.bp,.bq,.br,.bt,.bu,.bv,.bw,.bx,.by,.c`,.cb{stroke:#000;stroke-miterlimit:10;stroke-width:33px;}.cc{letter-spacing:-.03em;}.be{fill:url(#a`);}.be,.bf,.bg,.bh,.bi,.bj{opacity:.1;}.bf{fill:url(#ac);}.bg{fill:url(#ai);}.bh{fill:url(#al);}.bi{fill:url(#p);}.bj{fill:url(#s);}.bk{font-size:68px;}.bk,.bs{font-family:SofiaPro-SemiBold, Sofia Pro;}.bk,.bs,.ca{fill:#fff;}.cd{letter-spacing:0em;}.ce{letter-spacing:-.02em;}.bl{fill:url(#u);}.bl,.bm,.bn,.bo,.bp,.bq,.bt,.bu,.bv,.bw,.bx,.by,.c`,.cb{opacity:.8;}.bm{fill:url(#f);}.bn{fill:url(#i);}.bo{fill:url(#k);}.bp{fill:url(#m);}.bq{fill:url(#w);}.cf{letter-spacing:-.02em;}.cg{letter-spacing:0em;}.ch{letter-spacing:0em;}.br{opacity:.63;}.bs,.ca{font-size:47px;}.ci{letter-spacing:0em;}.cj{letter-spacing:0em;}.bt{fill:url(#b`);}.bu{fill:url(#ax);}.bv{fill:url(#av);}.bw{fill:url(#ae);}.bx{fill:url(#ap);}.by{fill:url(#as);}.c`{fill:url(#an);}.ck{letter-spacing:0em;}.ca{font-family:SofiaPro-Bold, Sofia Pro;}.cb{fill:#006094;}</style><linearGradient id="f" x1="126.8" y1="639.75" x2="348.7" y2="639.75" gradientTransform="matrix(1, 0, 0, 1, 0, 0)" gradientUnits="userSpaceOnUse"><stop offset=".34" stop-color="#000c55"/><stop offset=".51" stop-color="#004794"/><stop offset=".59" stop-color="#006094"/><stop offset=".66" stop-color="#04a"/><stop offset=".71" stop-color="#3f51ff"/><stop offset=".8" stop-color="#0060d4"/><stop offset="1" stop-color="#000"/></linearGradient><linearGradient id="i" x1="127.3" y1="540.05" x2="348.8" y2="540.05" xlink:href="#f"/><linearGradient id="k" x1="128.1" y1="358.35" x2="349.6" y2="358.35" xlink:href="#f"/><linearGradient id="m" x1="126.5" y1="821.5" x2="348.3" y2="821.5" xlink:href="#f"/><linearGradient id="p" x1="428.6" y1="661.55" x2="650.4" y2="661.55" xlink:href="#f"/><linearGradient id="s" x1="429.1" y1="561.85" x2="650.6" y2="561.85" xlink:href="#f"/><linearGradient id="u" x1="429.9" y1="380.05" x2="651.4" y2="380.05" xlink:href="#f"/><linearGradient id="w" x1="428.3" y1="843.35" x2="650.1" y2="843.35" xlink:href="#f"/><linearGradient id="a`" x1="751.5" y1="661.5" x2="973.3" y2="661.5" xlink:href="#f"/><linearGradient id="ac" x1="751.9" y1="561.85" x2="973.4" y2="561.85" xlink:href="#f"/><linearGradient id="ae" x1="752.7" y1="380.05" x2="974.2" y2="380.05" xlink:href="#f"/><linearGradient id="ai" x1="1072.8" y1="661.95" x2="1294.6" y2="661.95" xlink:href="#f"/><linearGradient id="al" x1="1073.2" y1="562.25" x2="1294.7" y2="562.25" xlink:href="#f"/><linearGradient id="an" x1="1074" y1="380.45" x2="1295.5" y2="380.45" xlink:href="#f"/><linearGradient id="ap" x1="1072.4" y1="843.65" x2="1294.2" y2="843.65" xlink:href="#f"/><linearGradient id="as" x1="1375.7" y1="661.95" x2="1597.5" y2="661.95" xlink:href="#f"/><linearGradient id="av" x1="1376.1" y1="562.25" x2="1597.6" y2="562.25" xlink:href="#f"/><linearGradient id="ax" x1="1376.9" y1="380.45" x2="1598.4" y2="380.45" xlink:href="#f"/><linearGradient id="b`" x1="1375.3" y1="843.65" x2="1597.1" y2="843.65" xlink:href="#f"/></defs><g id="a"/><g id="b"><g id="c"><g><path id="d" d="M1721,1080H0V0H1721"/><path id="e" d="M183.7,813l73.4,51.1,91.5-63.3,.1-102-165,114.2Z" isolation="isolate" opacity=".63" stroke="#000" stroke-miterlimit="10" stroke-width="33"/><path id="g" d="M348.7,698.6l-.1,102s-150.8-97.5-173-119.9c-48.8-49.3-48.8-100.1-48.8-100.1l.1-101.7s7.9,57.6,44.6,94.7c2.5,2.5,28.3,22.4,31,24.3,30.8,21.6,146.2,100.7,146.2,100.7Z" fill="#f" isolation="isolate" opacity=".8" stroke="#000" stroke-miterlimit="10" stroke-width="33"/><path id="h" d="M292.5,367.3l-73.3-51.7-91.6,62.5-.3,102,165.2-112.8Z" isolation="isolate" opacity=".63" stroke="#000" stroke-miterlimit="10" stroke-width="33"/><path id="j" d="M127.3,480.3l.3-102s150.6,98.7,172.7,121.3c48.6,49.7,48.5,100.5,48.5,100.5l-.3,101.7s-7.8-57.7-44.3-95.1c-2.5-2.5-28.3-22.6-30.9-24.5-30.8-21.8-146-101.9-146-101.9Z" fill="#i" isolation="isolate" opacity=".8" stroke="#000" stroke-miterlimit="10" stroke-width="33"/><path id="l" d="M128.1,298.6l.3-102s150.6,98.7,172.7,121.3c48.6,49.7,48.5,100.5,48.5,100.5l-.3,101.7s-7.8-57.7-44.3-95.1c-2.5-2.5-28.3-22.6-30.9-24.5-30.8-21.9-146-101.9-146-101.9Z" fill="#k" isolation="isolate" opacity=".8" stroke="#000" stroke-miterlimit="10" stroke-width="33"/><path id="n" d="M348.3,880.4l-.1,102s-150.8-97.5-173-119.9c-48.7-49.3-48.7-100.2-48.7-100.2l.1-101.7s7.9,57.6,44.6,94.7c2.5,2.5,28.3,22.4,31,24.3,30.8,21.7,146.1,100.8,146.1,100.8Z" fill="#m" isolation="isolate" opacity=".8" stroke="#000" stroke-miterlimit="10" stroke-width="33"/><path id="o" d="M485.5,834.7l73.4,51.1,91.5-63.3,.1-102-165,114.2Z" isolation="isolate" opacity=".5" stroke="#000" stroke-miterlimit="10" stroke-width="33"/><path id="q" d="M650.4,720.4l-.1,102s-150.8-97.5-173-119.9c-48.8-49.3-48.7-100.1-48.7-100.1l.1-101.7s7.9,57.6,44.6,94.7c2.5,2.5,28.3,22.4,31,24.3,30.8,21.5,146.1,100.7,146.1,100.7Z" fill="#p" isolation="isolate" opacity=".1" stroke="#000" stroke-miterlimit="10" stroke-width="33"/><path id="r" d="M594.3,389.1l-73.3-51.7-91.6,62.5-.3,102,165.2-112.8Z" isolation="isolate" opacity=".5" stroke="#000" stroke-miterlimit="10" stroke-width="33"/><path id="t" d="M429.1,502.1l.3-102s150.6,98.7,172.7,121.3c48.6,49.7,48.5,100.5,48.5,100.5l-.3,101.7s-7.8-57.7-44.3-95.1c-2.5-2.5-28.3-22.6-30.9-24.5-30.8-21.9-146-101.9-146-101.9Z" fill="#s" isolation="isolate" opacity=".1" stroke="#000" stroke-miterlimit="10" stroke-width="33"/><path id="v" d="M429.9,320.3l.3-102s150.6,98.7,172.7,121.3c48.6,49.7,48.5,100.5,48.5,100.5l-.3,101.7s-7.8-57.7-44.3-95.1c-2.5-2.5-28.3-22.6-30.9-24.5-30.9-21.8-146-101.9-146-101.9Z" fill="#u" isolation="isolate" opacity=".8" stroke="#000" stroke-miterlimit="10" stroke-width="33"/><path id="x" d="M650.1,902.2l-.1,102s-150.8-97.5-173-119.9c-48.8-49.3-48.7-100.1-48.7-100.1l.1-101.7s7.9,57.6,44.6,94.7c2.5,2.5,28.3,22.4,31,24.3,30.7,21.5,146.1,100.7,146.1,100.7Z" fill="#w" isolation="isolate" opacity=".8" stroke="#000" stroke-miterlimit="10" stroke-width="33"/><path id="y" d="M808.4,834.7l73.4,51.1,91.5-63.3,.1-102-165,114.2Z" isolation="isolate" opacity=".5" stroke="#000" stroke-miterlimit="10" stroke-width="33"/><path id="aa" d="M973.3,720.4l-.1,102s-150.8-97.5-173-119.9c-48.8-49.4-48.7-100.2-48.7-100.2v-101.7s7.9,57.6,44.6,94.7c2.5,2.5,28.3,22.4,31,24.3,30.8,21.6,146.2,100.8,146.2,100.8Z" fill="#a`" isolation="isolate" opacity=".1" stroke="#000" stroke-miterlimit="10" stroke-width="33"/><path id="ab" d="M917.1,389.1l-73.3-51.7-91.6,62.5-.3,102,165.2-112.8Z" isolation="isolate" opacity=".5" stroke="#000" stroke-miterlimit="10" stroke-width="33"/><path id="ad" d="M751.9,502.1l.3-102s150.6,98.7,172.7,121.3c48.6,49.7,48.5,100.5,48.5,100.5l-.3,101.7s-7.8-57.7-44.3-95.1c-2.5-2.5-28.3-22.6-30.9-24.5-30.8-21.9-146-101.9-146-101.9Z" fill="#ac" isolation="isolate" opacity=".1" stroke="#000" stroke-miterlimit="10" stroke-width="33"/><path id="af" d="M752.7,320.3l.3-102s150.6,98.7,172.7,121.3c48.6,49.7,48.5,100.5,48.5,100.5l-.3,101.7s-7.8-57.7-44.3-95.1c-2.5-2.5-28.3-22.6-30.9-24.5-30.8-21.8-146-101.9-146-101.9Z" fill="#ae" isolation="isolate" opacity=".8" stroke="#000" stroke-miterlimit="10" stroke-width="33"/><path id="ag" d="M973,902.2l-.1,102s-150.8-97.5-173-119.9c-48.8-49.3-48.7-100.1-48.7-100.1l.1-101.7s7.9,57.6,44.6,94.7c2.5,2.5,28.3,22.4,31,24.3,30.7,21.5,146.1,100.7,146.1,100.7Z" fill="#006094" isolation="isolate" opacity=".8" stroke="#000" stroke-miterlimit="10" stroke-width="33"/><path id="ah" d="M1129.7,835.1l73.4,51.1,91.5-63.3,.1-102-165,114.2Z" isolation="isolate" opacity=".5" stroke="#000" stroke-miterlimit="10" stroke-width="33"/><path id="aj" d="M1294.6,720.8l-.1,102s-150.8-97.5-173-119.9c-48.8-49.3-48.7-100.1-48.7-100.1l.1-101.7s7.9,57.6,44.6,94.7c2.5,2.5,28.3,22.4,31,24.3,30.7,21.5,146.1,100.7,146.1,100.7Z" fill="#ai" isolation="isolate" opacity=".1" stroke="#000" stroke-miterlimit="10" stroke-width="33"/><path id="ak" d="M1238.4,389.4l-73.3-51.7-91.6,62.5-.3,102,165.2-112.8Z" isolation="isolate" opacity=".5" stroke="#000" stroke-miterlimit="10" stroke-width="33"/><path id="am" d="M1073.2,502.5l.3-102s150.6,98.7,172.7,121.3c48.6,49.7,48.5,100.5,48.5,100.5l-.3,101.7s-7.8-57.7-44.3-95.1c-2.5-2.5-28.3-22.6-30.9-24.5-30.8-21.9-146-101.9-146-101.9Z" fill="#al" isolation="isolate" opacity=".1" stroke="#000" stroke-miterlimit="10" stroke-width="33"/><path id="ao" d="M1074,320.7l.3-102s150.6,98.7,172.7,121.3c48.6,49.7,48.5,100.5,48.5,100.5l-.3,101.7s-7.8-57.7-44.3-95.1c-2.5-2.5-28.3-22.6-30.9-24.5-30.8-21.8-146-101.9-146-101.9Z" fill="#an" isolation="isolate" opacity=".8" stroke="#000" stroke-miterlimit="10" stroke-width="33"/><path id="aq" d="M1294.2,902.5l-.1,102s-150.8-97.5-173-119.9c-48.8-49.3-48.7-100.1-48.7-100.1l.1-101.7s7.9,57.6,44.6,94.7c2.5,2.5,28.3,22.4,31,24.3,30.8,21.6,146.1,100.7,146.1,100.7Z" fill="#ap" isolation="isolate" opacity=".8" stroke="#000" stroke-miterlimit="10" stroke-width="33"/><path id="ar" d="M1432.5,835.1l73.4,51.1,91.5-63.3,.1-102-165,114.2Z" isolation="isolate" opacity=".63" stroke="#000" stroke-miterlimit="10" stroke-width="33"/><path id="at" d="M1597.5,720.8l-.1,102s-150.8-97.5-173-119.9c-48.8-49.3-48.7-100.1-48.7-100.1l.1-101.7s7.9,57.6,44.6,94.7c2.5,2.5,28.3,22.4,31,24.3,30.7,21.5,146.1,100.7,146.1,100.7Z" fill="#as" isolation="isolate" opacity=".8" stroke="#000" stroke-miterlimit="10" stroke-width="33"/><path id="au" d="M1541.3,389.4l-73.3-51.7-91.6,62.5-.3,102,165.2-112.8Z" isolation="isolate" opacity=".63" stroke="#000" stroke-miterlimit="10" stroke-width="33"/><path id="aw" d="M1376.1,502.5l.3-102s150.6,98.7,172.7,121.3c48.6,49.7,48.5,100.5,48.5,100.5l-.3,101.7s-7.8-57.7-44.3-95.1c-2.5-2.5-28.3-22.6-30.9-24.5-30.8-21.9-146-101.9-146-101.9Z" fill="#av" isolation="isolate" opacity=".8" stroke="#000" stroke-miterlimit="10" stroke-width="33"/><path id="ay" d="M1376.9,320.7l.3-102s150.6,98.7,172.7,121.3c48.6,49.7,48.5,100.5,48.5,100.5l-.3,101.7s-7.8-57.7-44.3-95.1c-2.5-2.5-28.3-22.6-30.9-24.5-30.8-21.8-146-101.9-146-101.9Z" fill="#ax" isolation="isolate" opacity=".8" stroke="#000" stroke-miterlimit="10" stroke-width="33"/><path id="ba" d="M1597.1,902.5l-.1,102s-150.8-97.5-173-119.9c-48.8-49.3-48.7-100.1-48.7-100.1l.1-101.7s7.9,57.6,44.6,94.7c2.5,2.5,28.3,22.4,31,24.3,30.8,21.6,146.1,100.7,146.1,100.7Z" fill="#b`" isolation="isolate" opacity=".8" stroke="#000" stroke-miterlimit="10" stroke-width="33"/><text transform="translate(492.57 597.86)" fill="#fff" font-family="SofiaPro-SemiBold, Sofia Pro" font-size="68" isolation="isolate"><tspan x="0" y="0" letter-spacing="0em">H</tspan><tspan x="47.19" y="0">ello </tspan><tspan x="175.51" y="0" letter-spacing="0em">M</tspan><tspan x="237.32" y="0" letter-spacing="-.02em">y</tspan><tspan x="270.36" y="0" letter-spacing="0em"> </tspan><tspan x="287.23" y="0" letter-spacing="0em">N</tspan><tspan x="332.92" y="0" letter-spacing="0em">ame </tspan><tspan x="487.89" y="0" letter-spacing="0em">I</tspan><tspan x="507.75" y="0">s </tspan><tspan x="555.49" y="0" letter-spacing="-.02em">K</tspan><tspan x="594.86" y="0">a</tspan><tspan x="636.61" y="0" letter-spacing="0em">t</tspan><tspan x="660.07" y="0">e,</tspan></text><text transform="translate(455.07 680.86)" fill="#fff" font-family="SofiaPro-Bold, Sofia Pro" font-size="47" isolation="isolate"><tspan x="0" y="0">UX </tspan><tspan x="74.45" y="0" letter-spacing="0em">D</tspan><tspan x="107.44" y="0" letter-spacing="0em">esigne</tspan><tspan x="248.86" y="0" letter-spacing="-.02em">r</tspan></text><text transform="translate(724.07 680.86)" fill="#fff" font-family="SofiaPro-SemiBold, Sofia Pro" font-size="47" isolation="isolate"><tspan x="0" y="0" xml:space="preserve">,  Questione</tspan><tspan x="255.16" y="0" letter-spacing="-.02em">r</tspan><tspan x="273.39" y="0" xml:space="preserve"> and Thin</tspan><tspan x="474.03" y="0" letter-spacing="-.03em">k</tspan><tspan x="497.02" y="0">e</tspan><tspan x="523.01" y="0" letter-spacing="-.02em">r</tspan></text></g></g></g></svg>